<svg width="100" height="100" fill="none" xmlns="http://www.w3.org/2000/svg"><rect width="100" height="100" rx="24" fill="#fff"/><path d="M77.91 28H22.09l-.698.001c-.196.002-.392.004-.587.01a8.489 8.489 0 0 0-1.28.113 4.296 4.296 0 0 0-1.215.404 4.082 4.082 0 0 0-1.787 1.8 4.354 4.354 0 0 0-.4 1.226 8.607 8.607 0 0 0-.113 1.288c-.006.197-.008.395-.009.592v33.002c.001.197.003.394.009.591.011.43.037.863.113 1.288.076.432.202.834.4 1.225a4.095 4.095 0 0 0 1.787 1.801c.39.2.788.327 1.216.405.421.076.852.101 1.279.113a90.005 90.005 0 0 0 1.285.01h55.82c.232 0 .465 0 .697-.002.196 0 .392-.004.588-.008a8.576 8.576 0 0 0 1.28-.113 4.284 4.284 0 0 0 1.214-.405 4.121 4.121 0 0 0 1.787-1.8c.199-.392.325-.794.4-1.226.077-.425.102-.858.113-1.288.006-.197.008-.394.01-.591l.001-.704V34.137c0-.235 0-.469-.002-.703 0-.197-.003-.395-.009-.592a8.606 8.606 0 0 0-.112-1.288 4.328 4.328 0 0 0-.4-1.226 4.087 4.087 0 0 0-1.787-1.801 4.298 4.298 0 0 0-1.216-.403 8.51 8.51 0 0 0-1.279-.114 29.665 29.665 0 0 0-.588-.009L77.91 28Z" fill="#000"/><path d="m77.912 29.463.687.001c.186.002.372.004.56.009.325.009.705.026 1.06.09.308.056.567.142.815.269a2.63 2.63 0 0 1 1.152 1.162c.126.248.21.508.265.82.064.354.081.739.09 1.069.005.186.007.372.008.563.002.23.002.46.002.692v31.595c0 .23 0 .46-.002.696 0 .186-.003.373-.008.56a7.32 7.32 0 0 1-.09 1.07 2.857 2.857 0 0 1-.265.819 2.647 2.647 0 0 1-1.154 1.162 2.827 2.827 0 0 1-.81.267 7.344 7.344 0 0 1-1.057.09c-.188.005-.375.008-.567.008-.228.002-.457.002-.686.002h-55.83l-.681-.001c-.187-.001-.374-.004-.555-.008a7.35 7.35 0 0 1-1.061-.09 2.834 2.834 0 0 1-.816-.27 2.63 2.63 0 0 1-1.15-1.16c-.127-.25-.21-.51-.266-.822a7.291 7.291 0 0 1-.09-1.067 27.737 27.737 0 0 1-.009-.561V33.444c.001-.187.003-.375.008-.562.01-.327.027-.71.091-1.07.055-.31.14-.57.266-.82a2.638 2.638 0 0 1 1.152-1.16c.247-.128.505-.213.813-.268a7.198 7.198 0 0 1 1.062-.091c.186-.005.372-.008.557-.009l.689-.001h55.82" fill="#fff"/><path d="M34.567 42.755c.582-.733.977-1.719.873-2.726-.852.043-1.892.567-2.494 1.301-.541.63-1.02 1.656-.895 2.62.957.084 1.913-.481 2.516-1.195ZM35.428 44.138c-1.39-.083-2.571.795-3.235.795-.664 0-1.68-.753-2.779-.732-1.43.02-2.757.836-3.483 2.132-1.493 2.593-.394 6.44 1.058 8.552.705 1.044 1.554 2.195 2.674 2.154 1.058-.042 1.472-.69 2.758-.69 1.285 0 1.659.69 2.779.669 1.16-.021 1.887-1.046 2.592-2.092.809-1.19 1.14-2.34 1.16-2.404-.02-.02-2.239-.878-2.26-3.45-.02-2.153 1.742-3.177 1.825-3.24-.995-1.484-2.55-1.652-3.09-1.694ZM47.527 41.225c3.02 0 5.122 2.097 5.122 5.151 0 3.066-2.146 5.174-5.198 5.174h-3.344v5.359h-2.416V41.225h5.836Zm-3.42 8.282h2.772c2.104 0 3.3-1.141 3.3-3.12 0-1.978-1.197-3.108-3.289-3.108h-2.783v6.228ZM53.281 53.658c0-2 1.521-3.228 4.218-3.38l3.106-.184v-.88c0-1.273-.852-2.033-2.276-2.033-1.348 0-2.19.652-2.394 1.673h-2.2c.129-2.065 1.876-3.586 4.68-3.586 2.75 0 4.509 1.467 4.509 3.76v7.88H60.69v-1.88h-.054c-.658 1.272-2.092 2.076-3.58 2.076-2.223 0-3.776-1.391-3.776-3.446Zm7.324-1.032v-.902l-2.794.174c-1.391.098-2.178.717-2.178 1.695 0 1 .82 1.652 2.07 1.652 1.629 0 2.902-1.13 2.902-2.619ZM65.032 61.115v-1.902c.172.043.56.043.755.043 1.078 0 1.66-.456 2.016-1.63 0-.022.206-.695.206-.706L63.91 45.475h2.524l2.869 9.304h.043l2.87-9.304h2.458l-4.25 12.032c-.97 2.771-2.092 3.663-4.443 3.663-.194 0-.777-.022-.95-.055Z" fill="#000"/></svg>