<svg width="100" height="100" fill="none" xmlns="http://www.w3.org/2000/svg"><rect width="100" height="100" rx="24" fill="#fff"/><path d="M20.089 74v-8.727h3.494c.642 0 1.178.095 1.607.285.428.19.75.455.967.793.216.335.324.721.324 1.159 0 .34-.069.64-.205.9a1.766 1.766 0 0 1-.562.63 2.305 2.305 0 0 1-.81.345v.085a1.991 1.991 0 0 1 1.645 1.01c.182.31.273.68.273 1.108 0 .463-.116.877-.346 1.24-.227.36-.563.646-1.01.857-.446.21-.995.315-1.649.315H20.09Zm1.845-1.508h1.504c.514 0 .89-.099 1.125-.295a.985.985 0 0 0 .354-.792c0-.242-.059-.455-.175-.64a1.187 1.187 0 0 0-.499-.434 1.708 1.708 0 0 0-.762-.158h-1.547v2.319Zm0-3.567h1.368c.253 0 .477-.044.673-.132a1.12 1.12 0 0 0 .469-.384 1 1 0 0 0 .174-.592.957.957 0 0 0-.336-.763c-.222-.193-.537-.29-.946-.29h-1.402v2.16Zm7.92 5.199c-.417 0-.79-.073-1.116-.218a1.798 1.798 0 0 1-.776-.652c-.187-.29-.28-.65-.28-1.082 0-.364.066-.67.2-.916.133-.248.315-.446.545-.597.23-.15.492-.264.784-.34.296-.078.605-.132.93-.163.38-.04.687-.077.92-.11.233-.038.401-.092.507-.163a.356.356 0 0 0 .157-.315v-.025c0-.27-.085-.48-.255-.627-.168-.147-.407-.221-.716-.221-.327 0-.587.072-.78.217a1 1 0 0 0-.384.537l-1.679-.136c.086-.398.253-.742.503-1.032.25-.292.573-.517.968-.673.397-.16.857-.239 1.38-.239.364 0 .712.043 1.044.128.335.085.632.218.89.397.262.178.468.409.619.69.15.278.226.612.226 1.001V74h-1.722v-.908h-.051a1.846 1.846 0 0 1-.422.541 1.952 1.952 0 0 1-.635.363 2.623 2.623 0 0 1-.856.128Zm.52-1.253c.268 0 .503-.053.708-.158.204-.108.365-.253.481-.435a1.12 1.12 0 0 0 .175-.618v-.694a.974.974 0 0 1-.234.102 4.245 4.245 0 0 1-.328.081c-.123.023-.245.044-.367.064a99.05 99.05 0 0 0-.332.047c-.213.031-.4.08-.558.15a.892.892 0 0 0-.371.276.675.675 0 0 0-.132.426c0 .247.09.436.268.567.182.128.412.192.69.192Zm6.39-2.655V74H34.95v-6.546h1.73v1.155h.077c.145-.38.388-.681.729-.903.34-.225.754-.337 1.24-.337.454 0 .85.1 1.188.299.339.198.601.483.789.852.187.366.281.804.281 1.312V74h-1.815v-3.844c.003-.4-.1-.713-.307-.937-.207-.227-.493-.341-.857-.341-.244 0-.46.052-.647.157-.185.106-.33.259-.435.46a1.594 1.594 0 0 0-.158.72Zm7.295 1.9.004-2.177h.264l2.097-2.484h2.084l-2.817 3.29h-.43l-1.202 1.371ZM42.414 74v-8.727h1.815V74h-1.815Zm4.09 0-1.925-2.85 1.21-1.284L48.63 74h-2.126Zm13.406-5.672h-1.866a1.825 1.825 0 0 0-.21-.643 1.637 1.637 0 0 0-.404-.486 1.781 1.781 0 0 0-.571-.307 2.184 2.184 0 0 0-.695-.106c-.452 0-.845.112-1.18.336-.335.222-.595.546-.78.972-.185.423-.277.937-.277 1.542 0 .623.092 1.145.277 1.569.188.423.449.742.784.958a2.1 2.1 0 0 0 1.163.324c.248 0 .476-.032.686-.098a1.645 1.645 0 0 0 .976-.75c.111-.182.188-.389.23-.622l1.867.009a3.487 3.487 0 0 1-1.133 2.152c-.322.29-.705.52-1.151.69a4.23 4.23 0 0 1-1.504.251c-.779 0-1.475-.176-2.088-.528-.611-.352-1.094-.862-1.45-1.53-.352-.668-.528-1.476-.528-2.425 0-.951.18-1.761.537-2.429.358-.667.844-1.176 1.458-1.525.613-.353 1.304-.529 2.07-.529.506 0 .975.071 1.407.213.434.142.82.35 1.155.623.335.27.608.6.818.992.213.393.35.841.409 1.347Zm3.156 5.796c-.418 0-.79-.073-1.117-.218a1.797 1.797 0 0 1-.776-.652c-.187-.29-.28-.65-.28-1.082 0-.364.066-.67.2-.916a1.62 1.62 0 0 1 .545-.597c.23-.15.491-.264.784-.34.296-.078.605-.132.929-.163.38-.04.688-.077.92-.11.233-.038.403-.092.508-.163a.356.356 0 0 0 .157-.315v-.025c0-.27-.085-.48-.255-.627-.168-.147-.407-.221-.716-.221-.327 0-.587.072-.78.217a1 1 0 0 0-.384.537l-1.679-.136c.086-.398.253-.742.503-1.032.25-.292.573-.517.968-.673.397-.16.857-.239 1.38-.239.364 0 .712.043 1.044.128.336.085.632.218.89.397.262.178.468.409.619.69.15.278.226.612.226 1.001V74H65.03v-.908h-.051a1.846 1.846 0 0 1-.422.541 1.952 1.952 0 0 1-.635.363 2.623 2.623 0 0 1-.856.128Zm.52-1.253c.267 0 .502-.053.707-.158.204-.108.365-.253.481-.435a1.12 1.12 0 0 0 .175-.618v-.694a.975.975 0 0 1-.234.102 4.248 4.248 0 0 1-.329.081c-.122.023-.244.044-.366.064l-.332.047c-.213.031-.4.08-.559.15a.893.893 0 0 0-.37.276.675.675 0 0 0-.132.426c0 .247.09.436.268.567.182.128.412.192.69.192ZM68.16 74v-6.546h1.76v1.143h.068c.12-.407.32-.713.601-.92a1.58 1.58 0 0 1 .972-.316 2.762 2.762 0 0 1 .57.064v1.61a2.373 2.373 0 0 0-.353-.068c-.15-.02-.288-.03-.413-.03-.267 0-.506.059-.716.175a1.287 1.287 0 0 0-.495.478c-.119.204-.179.44-.179.707V74H68.16Zm7.017.106a2.47 2.47 0 0 1-1.35-.383c-.401-.258-.72-.638-.955-1.138-.233-.503-.35-1.12-.35-1.85 0-.75.121-1.373.363-1.87.241-.5.562-.873.963-1.12.403-.25.845-.376 1.325-.376.367 0 .672.063.916.188.248.122.446.275.597.46.153.182.27.36.35.537h.055v-3.281h1.81V74h-1.789v-1.048h-.077a2.338 2.338 0 0 1-.362.54 1.801 1.801 0 0 1-.6.44c-.245.116-.543.174-.896.174Zm.576-1.444c.292 0 .54-.08.741-.239.205-.162.36-.388.469-.677.11-.29.166-.63.166-1.019 0-.389-.054-.727-.162-1.014a1.456 1.456 0 0 0-.469-.665 1.192 1.192 0 0 0-.745-.234c-.299 0-.55.08-.755.243-.204.162-.359.386-.464.673-.105.287-.158.62-.158.997 0 .381.053.718.158 1.01.108.29.263.517.464.682.205.162.456.243.755.243Z" fill="#313131"/><path d="M65.001 28.666h-30a3.333 3.333 0 0 0-3.333 3.333v20a3.333 3.333 0 0 0 3.333 3.334h30a3.333 3.333 0 0 0 3.334-3.334V32A3.333 3.333 0 0 0 65 28.666ZM31.668 38.666h36.667" stroke="#313131" stroke-width="2" stroke-linecap="round" stroke-linejoin="round"/></svg>