<svg width="840" height="600" fill="none" xmlns="http://www.w3.org/2000/svg"><mask id="b" style="mask-type:alpha" maskUnits="userSpaceOnUse" x="0" y="0" width="840" height="600"><rect width="840" height="600" rx="60" fill="url(#a)"/></mask><g mask="url(#b)"><path fill-rule="evenodd" clip-rule="evenodd" d="M418.003-41.49a349.568 349.568 0 0 1 3.994 0 1.5 1.5 0 0 1-.017 3 343.9 343.9 0 0 0-3.96 0 1.5 1.5 0 1 1-.017-3Zm10.412 1.592a1.5 1.5 0 0 1 1.542-1.456c1.323.038 2.644.083 3.964.136a1.5 1.5 0 1 1-.121 2.998 342.019 342.019 0 0 0-3.929-.135 1.5 1.5 0 0 1-1.456-1.543Zm-16.83 0a1.5 1.5 0 0 1-1.456 1.543c-1.312.037-2.622.082-3.93.135a1.5 1.5 0 0 1-.12-2.998 346.63 346.63 0 0 1 3.964-.136 1.5 1.5 0 0 1 1.542 1.456Zm28.681.492a1.5 1.5 0 0 1 1.592-1.402c1.325.083 2.649.175 3.97.273a1.5 1.5 0 1 1-.224 2.992 338.765 338.765 0 0 0-3.935-.271 1.5 1.5 0 0 1-1.403-1.592Zm-40.533 0a1.499 1.499 0 0 1-1.402 1.592c-1.314.083-2.626.173-3.935.271a1.5 1.5 0 1 1-.224-2.992 344.82 344.82 0 0 1 3.97-.273 1.5 1.5 0 0 1 1.591 1.402Zm52.358.9a1.5 1.5 0 0 1 1.639-1.346c1.322.13 2.641.267 3.958.411a1.5 1.5 0 1 1-.328 2.983c-1.305-.144-2.613-.28-3.923-.408a1.5 1.5 0 0 1-1.346-1.64Zm-64.182 0a1.5 1.5 0 0 1-1.346 1.64c-1.31.128-2.618.264-3.924.408a1.5 1.5 0 1 1-.327-2.983c1.317-.144 2.636-.281 3.958-.41a1.5 1.5 0 0 1 1.639 1.346Zm75.991 1.314a1.5 1.5 0 0 1 1.685-1.288c1.312.175 2.621.357 3.928.547a1.5 1.5 0 1 1-.431 2.969 340.797 340.797 0 0 0-3.893-.543 1.5 1.5 0 0 1-1.289-1.685Zm-87.8 0a1.5 1.5 0 0 1-1.289 1.685c-1.3.174-2.597.354-3.893.543a1.5 1.5 0 1 1-.431-2.97c1.307-.189 2.616-.371 3.928-.546a1.5 1.5 0 0 1 1.685 1.288Zm99.541 1.723a1.5 1.5 0 0 1 1.729-1.23c1.308.222 2.613.45 3.916.687a1.5 1.5 0 0 1-.535 2.952c-1.291-.234-2.585-.461-3.882-.68a1.5 1.5 0 0 1-1.228-1.73Zm-111.282 0a1.5 1.5 0 0 1-1.228 1.729c-1.297.219-2.591.446-3.882.68a1.5 1.5 0 1 1-.535-2.952c1.303-.236 2.608-.465 3.916-.686a1.5 1.5 0 0 1 1.729 1.229Zm122.944 2.13a1.5 1.5 0 0 1 1.771-1.168c1.303.268 2.602.542 3.899.825a1.5 1.5 0 0 1-.638 2.931c-1.286-.28-2.574-.552-3.864-.817a1.5 1.5 0 0 1-1.168-1.771Zm-134.606 0a1.5 1.5 0 0 1-1.168 1.77c-1.29.266-2.578.538-3.864.818a1.5 1.5 0 0 1-.638-2.931c1.297-.282 2.596-.557 3.898-.825a1.5 1.5 0 0 1 1.772 1.168Zm146.211 2.543a1.5 1.5 0 0 1 1.811-1.105c1.286.312 2.568.63 3.848.957a1.5 1.5 0 0 1-.74 2.907 341.32 341.32 0 0 0-3.814-.948 1.5 1.5 0 0 1-1.105-1.811Zm-157.816 0a1.5 1.5 0 0 1-1.105 1.81 341.32 341.32 0 0 0-3.814.949 1.5 1.5 0 0 1-.74-2.907c1.279-.326 2.562-.645 3.848-.957a1.5 1.5 0 0 1 1.811 1.105Zm169.315 2.947a1.5 1.5 0 0 1 1.848-1.04c1.277.357 2.55.721 3.82 1.093a1.501 1.501 0 0 1-.842 2.88c-1.259-.369-2.521-.73-3.786-1.084a1.5 1.5 0 0 1-1.04-1.85Zm-180.814 0a1.5 1.5 0 0 1-1.04 1.849 335.7 335.7 0 0 0-3.786 1.084 1.5 1.5 0 0 1-.842-2.88c1.27-.371 2.543-.736 3.819-1.093a1.5 1.5 0 0 1 1.849 1.04Zm192.194 3.347a1.5 1.5 0 0 1 1.884-.974c1.265.402 2.526.812 3.785 1.229a1.5 1.5 0 1 1-.944 2.848c-1.247-.413-2.497-.82-3.751-1.218a1.5 1.5 0 0 1-.974-1.885Zm-203.574 0a1.5 1.5 0 0 1-.974 1.885 337.73 337.73 0 0 0-3.752 1.218 1.5 1.5 0 1 1-.943-2.848c1.259-.417 2.52-.827 3.785-1.23a1.5 1.5 0 0 1 1.884.975Zm214.836 3.748a1.5 1.5 0 0 1 1.918-.907c1.247.446 2.491.898 3.731 1.358a1.5 1.5 0 1 1-1.042 2.813 339.65 339.65 0 0 0-3.699-1.346 1.501 1.501 0 0 1-.908-1.918Zm-226.098 0a1.501 1.501 0 0 1-.908 1.918c-1.236.442-2.469.89-3.699 1.346a1.5 1.5 0 0 1-1.043-2.813c1.241-.46 2.485-.912 3.732-1.358a1.5 1.5 0 0 1 1.918.907Zm237.225 4.143a1.5 1.5 0 0 1 1.948-.84c1.231.49 2.458.986 3.681 1.49a1.5 1.5 0 1 1-1.141 2.774c-1.212-.499-2.429-.99-3.648-1.476a1.5 1.5 0 0 1-.84-1.948Zm-248.352 0a1.5 1.5 0 0 1-.84 1.948c-1.219.485-2.436.977-3.648 1.476a1.5 1.5 0 1 1-1.141-2.774c1.223-.504 2.45-1 3.681-1.49a1.5 1.5 0 0 1 1.948.84Zm259.32 4.53a1.5 1.5 0 0 1 1.977-.771c1.214.533 2.424 1.072 3.631 1.619a1.5 1.5 0 0 1-1.238 2.732 339.539 339.539 0 0 0-3.599-1.604 1.5 1.5 0 0 1-.771-1.977Zm-270.288 0a1.5 1.5 0 0 1-.771 1.976 340.153 340.153 0 0 0-3.599 1.605 1.5 1.5 0 1 1-1.238-2.733 342.936 342.936 0 0 1 3.631-1.62 1.5 1.5 0 0 1 1.977.771Zm281.088 4.91a1.5 1.5 0 0 1 2.002-.702c1.196.576 2.387 1.158 3.575 1.747a1.5 1.5 0 0 1-1.333 2.688 334.465 334.465 0 0 0-3.543-1.732 1.5 1.5 0 0 1-.701-2.002Zm-291.888 0a1.5 1.5 0 0 1-.701 2.001c-1.185.57-2.366 1.148-3.543 1.732a1.5 1.5 0 0 1-1.333-2.688 338.165 338.165 0 0 1 3.575-1.747 1.5 1.5 0 0 1 2.002.701Zm302.519 5.29a1.5 1.5 0 0 1 2.025-.63 341.33 341.33 0 0 1 3.504 1.866 1.5 1.5 0 0 1-1.426 2.64 337.822 337.822 0 0 0-3.473-1.85 1.5 1.5 0 0 1-.63-2.026Zm-313.15 0a1.5 1.5 0 0 1-.63 2.025c-1.162.61-2.319 1.227-3.473 1.85a1.5 1.5 0 0 1-1.426-2.639 341.643 341.643 0 0 1 3.504-1.867 1.5 1.5 0 0 1 2.025.63Zm323.584 5.657a1.5 1.5 0 0 1 2.047-.56c1.15.657 2.297 1.32 3.439 1.99a1.5 1.5 0 0 1-1.518 2.588 331.003 331.003 0 0 0-3.409-1.972 1.5 1.5 0 0 1-.559-2.046Zm-334.018 0c.41.72.16 1.635-.559 2.046a331.003 331.003 0 0 0-3.409 1.972 1.5 1.5 0 0 1-1.518-2.587c1.142-.67 2.289-1.334 3.439-1.99a1.5 1.5 0 0 1 2.047.559Zm344.246 6.016a1.5 1.5 0 0 1 2.065-.487c1.127.697 2.251 1.4 3.369 2.11a1.5 1.5 0 1 1-1.607 2.534c-1.109-.704-2.222-1.401-3.34-2.092a1.501 1.501 0 0 1-.487-2.065Zm-354.474 0c.435.705.217 1.63-.487 2.065-1.118.691-2.232 1.388-3.341 2.092a1.5 1.5 0 1 1-1.606-2.534 337.85 337.85 0 0 1 3.369-2.11 1.5 1.5 0 0 1 2.065.488Zm364.488 6.372a1.5 1.5 0 0 1 2.08-.415c1.102.735 2.2 1.477 3.292 2.225a1.5 1.5 0 1 1-1.694 2.476 339.485 339.485 0 0 0-3.263-2.206 1.5 1.5 0 0 1-.415-2.08Zm-374.502 0a1.5 1.5 0 0 1-.415 2.08c-1.092.73-2.18 1.464-3.263 2.206a1.5 1.5 0 0 1-1.695-2.476c1.093-.748 2.191-1.49 3.293-2.225a1.5 1.5 0 0 1 2.08.415Zm384.289 6.717a1.5 1.5 0 0 1 2.093-.342c1.076.773 2.146 1.552 3.212 2.338a1.5 1.5 0 1 1-1.779 2.415 342.786 342.786 0 0 0-3.184-2.317 1.5 1.5 0 0 1-.342-2.094Zm-394.076 0a1.5 1.5 0 0 1-.342 2.094 344.645 344.645 0 0 0-3.184 2.317 1.5 1.5 0 1 1-1.779-2.415 337.494 337.494 0 0 1 3.212-2.338 1.5 1.5 0 0 1 2.093.342Zm403.621 7.053a1.501 1.501 0 0 1 2.105-.27c1.048.811 2.091 1.627 3.13 2.45a1.5 1.5 0 0 1-1.863 2.352 334.61 334.61 0 0 0-3.102-2.428 1.5 1.5 0 0 1-.27-2.104Zm-413.166 0a1.5 1.5 0 0 1-.27 2.104 336.324 336.324 0 0 0-3.102 2.428 1.501 1.501 0 0 1-1.863-2.352 352.896 352.896 0 0 1 3.13-2.45 1.5 1.5 0 0 1 2.105.27Zm422.461 7.38a1.5 1.5 0 0 1 2.112-.196c1.019.846 2.034 1.698 3.043 2.556a1.5 1.5 0 1 1-1.942 2.286 354.568 354.568 0 0 0-3.017-2.534 1.499 1.499 0 0 1-.196-2.112Zm-431.756 0c.53.637.442 1.583-.196 2.112a354.58 354.58 0 0 0-3.017 2.534 1.5 1.5 0 1 1-1.942-2.286c1.009-.858 2.024-1.71 3.043-2.556a1.5 1.5 0 0 1 2.112.196Zm440.789 7.7a1.5 1.5 0 0 1 2.118-.123c.989.88 1.973 1.767 2.952 2.66a1.5 1.5 0 0 1-2.021 2.216c-.97-.884-1.946-1.763-2.926-2.636a1.5 1.5 0 0 1-.123-2.118Zm-449.822 0a1.5 1.5 0 0 1-.123 2.117c-.981.873-1.956 1.752-2.926 2.636a1.5 1.5 0 1 1-2.021-2.217c.979-.892 1.963-1.778 2.952-2.66a1.5 1.5 0 0 1 2.118.123Zm458.583 8.007a1.5 1.5 0 0 1 2.121-.049c.958.915 1.911 1.835 2.858 2.76a1.5 1.5 0 0 1-2.097 2.147c-.939-.918-1.883-1.83-2.833-2.737a1.5 1.5 0 0 1-.049-2.12Zm-467.344 0a1.5 1.5 0 0 1-.049 2.121c-.95.907-1.894 1.819-2.833 2.737a1.5 1.5 0 0 1-2.097-2.146c.947-.926 1.9-1.846 2.858-2.76a1.5 1.5 0 0 1 2.121.048Zm475.821 8.307a1.5 1.5 0 0 1 2.121.024c.926.948 1.846 1.9 2.761 2.859a1.5 1.5 0 0 1-2.17 2.071c-.906-.95-1.819-1.894-2.736-2.833a1.5 1.5 0 0 1 .024-2.121Zm-484.298 0a1.5 1.5 0 0 1 .024 2.121c-.917.94-1.83 1.884-2.736 2.833a1.5 1.5 0 0 1-2.17-2.071c.915-.958 1.835-1.911 2.76-2.858a1.501 1.501 0 0 1 2.122-.025Zm492.483 8.596a1.5 1.5 0 0 1 2.119.098c.892.98 1.779 1.963 2.66 2.952a1.5 1.5 0 1 1-2.241 1.995c-.873-.98-1.752-1.956-2.636-2.926a1.5 1.5 0 0 1 .098-2.119Zm-500.668 0a1.5 1.5 0 0 1 .098 2.12c-.884.97-1.763 1.945-2.636 2.925a1.5 1.5 0 0 1-2.241-1.995c.881-.989 1.768-1.973 2.66-2.952a1.5 1.5 0 0 1 2.119-.098Zm508.549 8.874a1.5 1.5 0 0 1 2.114.172c.858 1.01 1.71 2.024 2.556 3.044a1.499 1.499 0 1 1-2.308 1.916 349.859 349.859 0 0 0-2.534-3.017 1.5 1.5 0 0 1 .172-2.114Zm-516.43 0a1.5 1.5 0 0 1 .172 2.115c-.851 1-1.695 2.006-2.534 3.017a1.5 1.5 0 0 1-2.309-1.916c.847-1.02 1.699-2.034 2.557-3.044a1.5 1.5 0 0 1 2.114-.171Zm523.998 9.143a1.5 1.5 0 0 1 2.107.245 358.1 358.1 0 0 1 2.449 3.13 1.5 1.5 0 0 1-2.374 1.835 336.587 336.587 0 0 0-2.427-3.103 1.499 1.499 0 0 1 .245-2.107Zm7.246 9.401a1.5 1.5 0 0 1 2.098.318 343.928 343.928 0 0 1 2.337 3.212 1.5 1.5 0 1 1-2.436 1.751 323.345 323.345 0 0 0-2.317-3.184 1.5 1.5 0 0 1 .318-2.097Zm6.915 9.647a1.5 1.5 0 0 1 2.085.391c.748 1.093 1.49 2.19 2.226 3.292a1.502 1.502 0 0 1-2.496 1.666 332.783 332.783 0 0 0-2.205-3.264 1.5 1.5 0 0 1 .39-2.085Zm6.574 9.88a1.5 1.5 0 0 1 2.07.463c.71 1.119 1.413 2.242 2.11 3.37a1.5 1.5 0 1 1-2.552 1.577 346.292 346.292 0 0 0-2.091-3.34 1.499 1.499 0 0 1 .463-2.07Zm6.226 10.104a1.5 1.5 0 0 1 2.053.536c.67 1.142 1.333 2.288 1.99 3.439a1.5 1.5 0 1 1-2.606 1.487 338.828 338.828 0 0 0-1.972-3.409 1.5 1.5 0 0 1 .535-2.053Zm5.872 10.32a1.5 1.5 0 0 1 2.032.606 344.906 344.906 0 0 1 1.867 3.504 1.501 1.501 0 0 1-2.656 1.395 338.639 338.639 0 0 0-1.85-3.472 1.5 1.5 0 0 1 .607-2.033Zm5.503 10.512a1.5 1.5 0 0 1 2.01.678 327.836 327.836 0 0 1 1.747 3.574 1.5 1.5 0 1 1-2.703 1.302 331.302 331.302 0 0 0-1.731-3.544 1.5 1.5 0 0 1 .677-2.01Zm5.132 10.699a1.5 1.5 0 0 1 1.986.748 348.19 348.19 0 0 1 1.619 3.631 1.5 1.5 0 1 1-2.747 1.205 331.026 331.026 0 0 0-1.605-3.599 1.5 1.5 0 0 1 .747-1.985Zm4.756 10.877a1.5 1.5 0 0 1 1.958.817c.503 1.223.999 2.451 1.489 3.681a1.5 1.5 0 0 1-2.788 1.109c-.485-1.22-.977-2.436-1.476-3.649a1.5 1.5 0 0 1 .817-1.958Zm4.371 11.039a1.5 1.5 0 0 1 1.928.885c.46 1.24.913 2.484 1.359 3.732a1.5 1.5 0 0 1-2.825 1.009 332.036 332.036 0 0 0-1.347-3.698 1.5 1.5 0 0 1 .885-1.928Zm-636.756 0a1.5 1.5 0 0 1 .885 1.928 332.036 332.036 0 0 0-1.347 3.698 1.5 1.5 0 1 1-2.825-1.009c.446-1.248.899-2.492 1.359-3.732a1.5 1.5 0 0 1 1.928-.885Zm640.733 11.175a1.501 1.501 0 0 1 1.896.953c.416 1.258.826 2.52 1.229 3.784a1.5 1.5 0 0 1-2.859.91 341.794 341.794 0 0 0-1.218-3.751 1.5 1.5 0 0 1 .952-1.896Zm-644.71 0a1.5 1.5 0 0 1 .952 1.896c-.413 1.247-.819 2.498-1.218 3.751a1.5 1.5 0 1 1-2.859-.909c.403-1.265.813-2.527 1.23-3.785a1.5 1.5 0 0 1 1.895-.953Zm648.293 11.315a1.5 1.5 0 0 1 1.861 1.018 348.3 348.3 0 0 1 1.094 3.82 1.501 1.501 0 0 1-2.889.809 342.118 342.118 0 0 0-1.084-3.786 1.5 1.5 0 0 1 1.018-1.861Zm-651.876 0a1.5 1.5 0 0 1 1.018 1.861c-.368 1.259-.73 2.521-1.084 3.786a1.5 1.5 0 0 1-2.889-.809c.358-1.276.722-2.55 1.094-3.82a1.5 1.5 0 0 1 1.86-1.018Zm655.062 11.443a1.5 1.5 0 0 1 1.824 1.083c.326 1.28.645 2.563.956 3.848a1.5 1.5 0 0 1-2.915.707 337.05 337.05 0 0 0-.948-3.814 1.5 1.5 0 0 1 1.083-1.824Zm-658.248 0a1.5 1.5 0 0 1 1.083 1.824c-.323 1.268-.639 2.54-.948 3.814a1.5 1.5 0 0 1-2.915-.707c.311-1.285.63-2.568.956-3.848a1.5 1.5 0 0 1 1.824-1.083Zm661.025 11.531a1.5 1.5 0 0 1 1.785 1.147c.282 1.296.557 2.596.824 3.898a1.5 1.5 0 0 1-2.938.604 326.681 326.681 0 0 0-.818-3.864 1.5 1.5 0 0 1 1.147-1.785Zm-663.802 0a1.5 1.5 0 0 1 1.147 1.785c-.28 1.285-.553 2.573-.818 3.864a1.5 1.5 0 0 1-2.938-.604c.267-1.302.542-2.602.824-3.898a1.5 1.5 0 0 1 1.785-1.147Zm666.173 11.625a1.5 1.5 0 0 1 1.744 1.208c.236 1.303.464 2.609.686 3.917a1.5 1.5 0 0 1-2.958.5c-.22-1.297-.446-2.591-.68-3.882a1.499 1.499 0 0 1 1.208-1.743Zm-668.544 0a1.5 1.5 0 0 1 1.208 1.743c-.234 1.292-.46 2.586-.68 3.882a1.5 1.5 0 0 1-2.958-.5c.222-1.308.45-2.614.686-3.917a1.5 1.5 0 0 1 1.744-1.208Zm670.509 11.713a1.5 1.5 0 0 1 1.7 1.268c.189 1.307.372 2.617.547 3.928a1.5 1.5 0 0 1-2.974.397c-.173-1.3-.354-2.598-.542-3.893a1.5 1.5 0 0 1 1.269-1.7Zm-672.474 0a1.5 1.5 0 0 1 1.27 1.7 339.922 339.922 0 0 0-.543 3.893 1.5 1.5 0 1 1-2.974-.397c.175-1.311.358-2.621.547-3.927a1.5 1.5 0 0 1 1.7-1.269Zm674.026 11.766a1.5 1.5 0 0 1 1.655 1.327c.145 1.317.282 2.637.411 3.958a1.5 1.5 0 0 1-2.986.293 335.92 335.92 0 0 0-.407-3.923 1.5 1.5 0 0 1 1.327-1.655Zm-675.578 0a1.5 1.5 0 0 1 1.327 1.655c-.143 1.305-.279 2.613-.407 3.923a1.5 1.5 0 1 1-2.986-.293c.13-1.321.267-2.64.411-3.957a1.5 1.5 0 0 1 1.655-1.328Zm676.719 11.803a1.501 1.501 0 0 1 1.608 1.384c.099 1.322.19 2.645.274 3.97a1.5 1.5 0 0 1-2.994.189 341.84 341.84 0 0 0-.272-3.935 1.5 1.5 0 0 1 1.384-1.608Zm-677.86 0a1.5 1.5 0 0 1 1.384 1.608c-.098 1.31-.189 2.622-.272 3.936a1.5 1.5 0 0 1-2.994-.19c.084-1.325.175-2.648.274-3.97a1.5 1.5 0 0 1 1.608-1.384Zm678.593 11.853a1.5 1.5 0 0 1 1.558 1.439c.053 1.319.099 2.64.137 3.963a1.5 1.5 0 0 1-2.999.086 364.623 364.623 0 0 0-.135-3.929 1.5 1.5 0 0 1 1.439-1.559Zm-679.326 0a1.5 1.5 0 0 1 1.44 1.559 340.536 340.536 0 0 0-.136 3.929 1.501 1.501 0 0 1-2.999-.086c.038-1.323.084-2.644.137-3.963a1.5 1.5 0 0 1 1.559-1.439Zm679.649 11.871a1.5 1.5 0 0 1 1.508 1.492l.004.755.001.601.001.64-.002 1.126-.004.871a1.5 1.5 0 1 1-3-.017 326.21 326.21 0 0 0 0-3.959 1.5 1.5 0 0 1 1.492-1.509Zm-679.972 0a1.5 1.5 0 0 1 1.492 1.509 343.292 343.292 0 0 0 0 3.959 1.5 1.5 0 1 1-3 .017 349.568 349.568 0 0 1 0-3.993 1.5 1.5 0 0 1 1.508-1.492Zm679.887 11.903c.828.024 1.48.715 1.457 1.543a346.443 346.443 0 0 1-.137 3.963 1.5 1.5 0 1 1-2.997-.12c.052-1.308.097-2.618.135-3.929a1.5 1.5 0 0 1 1.542-1.457Zm-679.802 0a1.501 1.501 0 0 1 1.542 1.457c.038 1.311.083 2.621.135 3.929a1.5 1.5 0 1 1-2.997.12c-.053-1.319-.099-2.64-.137-3.963a1.5 1.5 0 0 1 1.457-1.543Zm679.31 11.852a1.5 1.5 0 0 1 1.403 1.591 344.818 344.818 0 0 1-.274 3.97 1.5 1.5 0 0 1-2.992-.223c.098-1.31.189-2.622.272-3.936a1.499 1.499 0 0 1 1.591-1.402Zm-678.818 0a1.5 1.5 0 0 1 1.591 1.402c.083 1.314.174 2.626.272 3.936a1.499 1.499 0 1 1-2.992.224c-.099-1.322-.19-2.645-.274-3.97a1.5 1.5 0 0 1 1.403-1.592Zm677.918 11.824a1.5 1.5 0 0 1 1.346 1.639 321.242 321.242 0 0 1-.411 3.958 1.5 1.5 0 1 1-2.982-.327c.143-1.306.279-2.613.408-3.923a1.499 1.499 0 0 1 1.639-1.347Zm-677.018 0a1.5 1.5 0 0 1 1.64 1.347c.128 1.31.264 2.618.407 3.923a1.5 1.5 0 0 1-2.982.327 341.854 341.854 0 0 1-.411-3.957 1.5 1.5 0 0 1 1.346-1.64Zm675.704 11.809c.821.11 1.398.864 1.289 1.686a363.45 363.45 0 0 1-.547 3.927 1.5 1.5 0 0 1-2.969-.431c.188-1.295.369-2.593.542-3.893a1.501 1.501 0 0 1 1.685-1.289Zm-674.39.001a1.5 1.5 0 0 1 1.685 1.288c.173 1.3.354 2.598.542 3.893a1.5 1.5 0 1 1-2.969.431c-.19-1.306-.372-2.616-.547-3.927a1.5 1.5 0 0 1 1.289-1.685Zm672.668 11.74a1.5 1.5 0 0 1 1.229 1.729c-.222 1.308-.45 2.614-.686 3.917a1.5 1.5 0 0 1-2.952-.535c.234-1.292.46-2.586.68-3.882a1.5 1.5 0 0 1 1.729-1.229Zm-670.946 0a1.5 1.5 0 0 1 1.73 1.229c.219 1.296.445 2.59.68 3.882a1.5 1.5 0 1 1-2.953.535 341.386 341.386 0 0 1-.686-3.917 1.5 1.5 0 0 1 1.23-1.729Zm668.816 11.663a1.5 1.5 0 0 1 1.167 1.771 336.807 336.807 0 0 1-.824 3.898 1.5 1.5 0 0 1-2.932-.638c.28-1.285.553-2.573.818-3.864a1.5 1.5 0 0 1 1.771-1.167Zm-666.686 0a1.5 1.5 0 0 1 1.771 1.167c.266 1.291.538 2.579.818 3.864a1.5 1.5 0 1 1-2.932.638 343.235 343.235 0 0 1-.824-3.898 1.5 1.5 0 0 1 1.167-1.771ZM750.8 378.912a1.5 1.5 0 0 1 1.104 1.811c-.311 1.285-.63 2.568-.956 3.848a1.501 1.501 0 0 1-2.907-.741c.323-1.268.639-2.54.948-3.814a1.5 1.5 0 0 1 1.811-1.104Zm-661.6 0a1.5 1.5 0 0 1 1.811 1.104c.31 1.274.625 2.546.948 3.814a1.5 1.5 0 0 1-2.907.741c-.326-1.28-.645-2.563-.956-3.848a1.5 1.5 0 0 1 1.104-1.811Zm658.652 11.498a1.5 1.5 0 0 1 1.041 1.849 354.764 354.764 0 0 1-1.094 3.82 1.5 1.5 0 1 1-2.879-.843c.368-1.259.73-2.521 1.084-3.786a1.5 1.5 0 0 1 1.848-1.04Zm-655.704 0a1.5 1.5 0 0 1 1.848 1.04c.354 1.265.716 2.527 1.084 3.786a1.5 1.5 0 0 1-2.88.843c-.37-1.27-.735-2.544-1.093-3.82a1.5 1.5 0 0 1 1.04-1.849Zm652.357 11.38a1.5 1.5 0 0 1 .975 1.884 363.404 363.404 0 0 1-1.229 3.785 1.5 1.5 0 0 1-2.848-.943c.413-1.247.819-2.498 1.218-3.751a1.5 1.5 0 0 1 1.884-.975Zm-649.01 0a1.5 1.5 0 0 1 1.884.975 337.57 337.57 0 0 0 1.218 3.751 1.5 1.5 0 0 1-2.848.943c-.416-1.258-.826-2.52-1.229-3.785a1.5 1.5 0 0 1 .975-1.884Zm645.262 11.263a1.5 1.5 0 0 1 .908 1.917 345.759 345.759 0 0 1-1.359 3.732 1.5 1.5 0 1 1-2.813-1.043c.456-1.229.905-2.462 1.347-3.699a1.5 1.5 0 0 1 1.917-.907Zm-641.514 0a1.5 1.5 0 0 1 1.917.907c.442 1.237.891 2.47 1.347 3.699a1.5 1.5 0 1 1-2.813 1.043c-.46-1.241-.913-2.484-1.359-3.732a1.5 1.5 0 0 1 .908-1.917Zm637.371 11.126a1.501 1.501 0 0 1 .84 1.949c-.49 1.23-.986 2.457-1.489 3.681a1.5 1.5 0 0 1-2.775-1.141c.499-1.213.991-2.429 1.476-3.649a1.5 1.5 0 0 1 1.948-.84Zm-633.228.001a1.499 1.499 0 0 1 1.948.839c.485 1.22.977 2.436 1.476 3.649a1.5 1.5 0 0 1-2.775 1.141 367.495 367.495 0 0 1-1.489-3.681 1.5 1.5 0 0 1 .84-1.948Zm4.529 10.968a1.5 1.5 0 0 1 1.976.77 322.623 322.623 0 0 0 1.605 3.599 1.5 1.5 0 0 1-2.733 1.238 348.19 348.19 0 0 1-1.619-3.631 1.5 1.5 0 0 1 .771-1.976Zm4.91 10.799a1.5 1.5 0 0 1 2.002.701c.57 1.185 1.148 2.366 1.731 3.543a1.5 1.5 0 0 1-2.687 1.333 327.836 327.836 0 0 1-1.747-3.574 1.5 1.5 0 0 1 .701-2.003Zm5.29 10.631a1.501 1.501 0 0 1 2.026.63c.61 1.162 1.227 2.32 1.85 3.473a1.5 1.5 0 0 1-2.639 1.426 334.426 334.426 0 0 1-1.867-3.503 1.5 1.5 0 0 1 .63-2.026Zm5.657 10.435a1.5 1.5 0 0 1 2.047.559c.651 1.14 1.308 2.277 1.972 3.409a1.5 1.5 0 0 1-2.588 1.517 333.912 333.912 0 0 1-1.99-3.439 1.5 1.5 0 0 1 .559-2.046Zm6.017 10.228a1.5 1.5 0 0 1 2.065.487 346.292 346.292 0 0 0 2.091 3.34 1.5 1.5 0 1 1-2.533 1.607 333.641 333.641 0 0 1-2.11-3.37 1.499 1.499 0 0 1 .487-2.064Zm6.371 10.013a1.5 1.5 0 0 1 2.081.415c.729 1.093 1.464 2.18 2.205 3.264a1.5 1.5 0 0 1-2.475 1.694c-.748-1.093-1.49-2.19-2.226-3.292a1.502 1.502 0 0 1 .415-2.081Zm6.718 9.787a1.5 1.5 0 0 1 2.094.343 326.996 326.996 0 0 0 2.317 3.184 1.5 1.5 0 1 1-2.416 1.779 350.673 350.673 0 0 1-2.337-3.212 1.5 1.5 0 0 1 .342-2.094Zm547.191 9.546a1.5 1.5 0 0 1 .27 2.104 355.123 355.123 0 0 1-2.449 3.13 1.5 1.5 0 0 1-2.352-1.862c.815-1.03 1.624-2.064 2.427-3.103a1.5 1.5 0 0 1 2.104-.269Zm-540.138 0a1.5 1.5 0 0 1 2.104.269 344.939 344.939 0 0 0 2.427 3.103 1.499 1.499 0 1 1-2.352 1.862 355.123 355.123 0 0 1-2.449-3.13 1.5 1.5 0 0 1 .27-2.104Zm532.759 9.294a1.5 1.5 0 0 1 .196 2.112 354.643 354.643 0 0 1-2.557 3.044 1.5 1.5 0 1 1-2.286-1.943 331.268 331.268 0 0 0 2.534-3.017 1.501 1.501 0 0 1 2.113-.196Zm-525.379 0a1.5 1.5 0 0 1 2.112.196 331.268 331.268 0 0 0 2.534 3.017 1.5 1.5 0 1 1-2.286 1.943 337.15 337.15 0 0 1-2.556-3.044 1.498 1.498 0 0 1 .196-2.112Zm517.679 9.034a1.5 1.5 0 0 1 .123 2.118c-.881.989-1.768 1.973-2.66 2.951a1.5 1.5 0 1 1-2.217-2.02c.884-.971 1.763-1.946 2.636-2.927a1.5 1.5 0 0 1 2.118-.122Zm-509.98 0a1.5 1.5 0 0 1 2.118.122c.873.981 1.752 1.956 2.636 2.927a1.5 1.5 0 1 1-2.217 2.02 338.669 338.669 0 0 1-2.66-2.951 1.5 1.5 0 0 1 .123-2.118Zm8.008 8.76a1.5 1.5 0 0 1 2.121.049c.906.95 1.819 1.895 2.736 2.834a1.5 1.5 0 0 1-2.145 2.096 338.42 338.42 0 0 1-2.761-2.858 1.5 1.5 0 0 1 .049-2.121Zm493.964 0a1.5 1.5 0 0 1 .049 2.121c-.914.958-1.835 1.911-2.76 2.858a1.5 1.5 0 1 1-2.146-2.096 332.55 332.55 0 0 0 2.736-2.834 1.5 1.5 0 0 1 2.121-.049Zm-8.307 8.478a1.5 1.5 0 0 1-.024 2.121c-.947.926-1.9 1.846-2.858 2.761a1.5 1.5 0 0 1-2.072-2.17c.95-.907 1.894-1.819 2.833-2.737a1.5 1.5 0 0 1 2.121.025Zm-477.35 0a1.5 1.5 0 0 1 2.121-.025c.939.918 1.883 1.83 2.833 2.737a1.5 1.5 0 0 1-2.072 2.17 338.42 338.42 0 0 1-2.858-2.761 1.5 1.5 0 0 1-.024-2.121Zm468.754 8.184a1.5 1.5 0 0 1-.098 2.119c-.979.893-1.963 1.779-2.952 2.66a1.5 1.5 0 0 1-1.995-2.24c.981-.874 1.956-1.752 2.926-2.637a1.5 1.5 0 0 1 2.119.098Zm-460.158 0a1.5 1.5 0 0 1 2.119-.098c.97.885 1.946 1.763 2.926 2.637a1.499 1.499 0 1 1-1.995 2.24 337.203 337.203 0 0 1-2.952-2.66 1.5 1.5 0 0 1-.098-2.119Zm451.284 7.881a1.5 1.5 0 0 1-.172 2.114 337.129 337.129 0 0 1-3.043 2.557 1.5 1.5 0 0 1-1.916-2.308 345.61 345.61 0 0 0 3.017-2.535 1.5 1.5 0 0 1 2.114.172Zm-442.41 0a1.5 1.5 0 0 1 2.114-.171c1.001.85 2.007 1.695 3.017 2.534a1.5 1.5 0 0 1-1.916 2.308 337.129 337.129 0 0 1-3.043-2.557 1.5 1.5 0 0 1-.172-2.114Zm433.267 7.568a1.5 1.5 0 0 1-.244 2.107 351.065 351.065 0 0 1-3.13 2.449 1.501 1.501 0 0 1-1.835-2.373 348.892 348.892 0 0 0 3.102-2.428 1.5 1.5 0 0 1 2.107.245Zm-424.124 0a1.5 1.5 0 0 1 2.107-.245c1.029.815 2.063 1.624 3.102 2.428a1.5 1.5 0 1 1-1.835 2.373 351.065 351.065 0 0 1-3.13-2.449 1.5 1.5 0 0 1-.244-2.107Zm414.723 7.247a1.499 1.499 0 0 1-.318 2.097 337.532 337.532 0 0 1-3.212 2.338 1.5 1.5 0 0 1-1.751-2.436 344.624 344.624 0 0 0 3.184-2.317 1.499 1.499 0 0 1 2.097.318Zm-405.322 0a1.499 1.499 0 0 1 2.097-.318c1.057.778 2.118 1.551 3.184 2.317a1.5 1.5 0 0 1-1.751 2.436 337.532 337.532 0 0 1-3.212-2.338 1.499 1.499 0 0 1-.318-2.097Zm395.675 6.915a1.5 1.5 0 0 1-.39 2.085 351.418 351.418 0 0 1-3.293 2.225 1.5 1.5 0 1 1-1.665-2.495c1.092-.729 2.18-1.465 3.263-2.206a1.5 1.5 0 0 1 2.085.391Zm-386.028 0a1.5 1.5 0 0 1 2.085-.391c1.083.741 2.171 1.477 3.263 2.206a1.5 1.5 0 1 1-1.665 2.495c-1.102-.735-2.2-1.477-3.293-2.225a1.5 1.5 0 0 1-.39-2.085Zm376.149 6.573c.443.7.236 1.627-.464 2.071a352.406 352.406 0 0 1-3.369 2.11 1.5 1.5 0 0 1-1.578-2.552 327.937 327.937 0 0 0 3.341-2.092 1.5 1.5 0 0 1 2.07.463Zm-366.27 0a1.502 1.502 0 0 1 2.071-.463c1.109.704 2.222 1.401 3.34 2.092a1.5 1.5 0 0 1-1.578 2.552 352.406 352.406 0 0 1-3.369-2.11 1.501 1.501 0 0 1-.464-2.071Zm356.165 6.227a1.5 1.5 0 0 1-.535 2.052c-1.142.67-2.289 1.333-3.439 1.99a1.5 1.5 0 1 1-1.488-2.605 328.14 328.14 0 0 0 3.409-1.973 1.5 1.5 0 0 1 2.053.536Zm-346.06 0a1.5 1.5 0 0 1 2.053-.536 328.14 328.14 0 0 0 3.409 1.973 1.5 1.5 0 1 1-1.488 2.605c-1.15-.657-2.297-1.32-3.439-1.99a1.5 1.5 0 0 1-.535-2.052Zm335.741 5.871a1.501 1.501 0 0 1-.607 2.033 325.945 325.945 0 0 1-3.504 1.866 1.499 1.499 0 1 1-1.395-2.655 338.87 338.87 0 0 0 3.473-1.851 1.501 1.501 0 0 1 2.033.607Zm-325.421 0a1.5 1.5 0 0 1 2.032-.607c1.154.624 2.311 1.241 3.473 1.851a1.499 1.499 0 1 1-1.395 2.656 344.906 344.906 0 0 1-3.504-1.867 1.5 1.5 0 0 1-.606-2.033Zm314.908 5.504a1.5 1.5 0 0 1-.677 2.01 347.383 347.383 0 0 1-3.575 1.747 1.5 1.5 0 0 1-1.301-2.704c1.185-.57 2.366-1.147 3.543-1.731a1.5 1.5 0 0 1 2.01.678Zm-304.396 0a1.5 1.5 0 0 1 2.01-.678c1.177.584 2.358 1.161 3.543 1.732a1.5 1.5 0 1 1-1.301 2.703 347.383 347.383 0 0 1-3.575-1.747 1.5 1.5 0 0 1-.677-2.01Zm10.699 5.132a1.5 1.5 0 0 1 1.985-.748c1.196.542 2.396 1.077 3.599 1.605a1.5 1.5 0 1 1-1.206 2.747 336.92 336.92 0 0 1-3.631-1.619 1.5 1.5 0 0 1-.747-1.985Zm282.998 0a1.5 1.5 0 0 1-.747 1.985 336.92 336.92 0 0 1-3.631 1.619 1.5 1.5 0 0 1-1.206-2.747 331.026 331.026 0 0 0 3.599-1.605 1.5 1.5 0 0 1 1.985.748Zm-272.121 4.756a1.5 1.5 0 0 1 1.958-.817c1.212.499 2.429.99 3.648 1.475a1.5 1.5 0 1 1-1.108 2.788 310.888 310.888 0 0 1-3.681-1.489 1.499 1.499 0 0 1-.817-1.957Zm261.244-.001a1.5 1.5 0 0 1-.817 1.958c-1.223.503-2.45 1-3.681 1.489a1.5 1.5 0 1 1-1.108-2.788 330.78 330.78 0 0 0 3.648-1.475 1.5 1.5 0 0 1 1.958.816Zm-11.038 4.372a1.5 1.5 0 0 1-.885 1.927c-1.241.46-2.485.913-3.732 1.359a1.5 1.5 0 1 1-1.01-2.825c1.236-.442 2.469-.891 3.699-1.346a1.5 1.5 0 0 1 1.928.885Zm-239.168 0a1.5 1.5 0 0 1 1.928-.885c1.23.455 2.463.904 3.699 1.346a1.5 1.5 0 1 1-1.01 2.825 359.673 359.673 0 0 1-3.731-1.358 1.5 1.5 0 0 1-.886-1.928Zm227.992 3.976a1.5 1.5 0 0 1-.952 1.896c-1.259.417-2.52.827-3.785 1.229a1.5 1.5 0 0 1-.91-2.859c1.254-.399 2.504-.805 3.752-1.218a1.5 1.5 0 0 1 1.895.952Zm-216.816 0a1.5 1.5 0 0 1 1.896-.952c1.247.413 2.497.819 3.751 1.218a1.5 1.5 0 0 1-.91 2.859 327.483 327.483 0 0 1-3.785-1.229 1.5 1.5 0 0 1-.952-1.896Zm205.502 3.584a1.501 1.501 0 0 1-1.019 1.861c-1.27.371-2.543.736-3.819 1.093a1.5 1.5 0 1 1-.809-2.889c1.265-.354 2.527-.715 3.786-1.084a1.501 1.501 0 0 1 1.861 1.019Zm-194.188 0a1.501 1.501 0 0 1 1.861-1.019c1.259.369 2.521.73 3.786 1.084a1.5 1.5 0 1 1-.809 2.889 348.092 348.092 0 0 1-3.819-1.093 1.501 1.501 0 0 1-1.019-1.861Zm11.444 3.185a1.499 1.499 0 0 1 1.823-1.083c1.269.323 2.54.639 3.814.948a1.5 1.5 0 0 1-.706 2.916 348.606 348.606 0 0 1-3.848-.957 1.5 1.5 0 0 1-1.083-1.824Zm171.301 0a1.5 1.5 0 0 1-1.084 1.824c-1.279.326-2.562.645-3.848.957a1.5 1.5 0 0 1-.706-2.916c1.274-.309 2.545-.625 3.814-.948a1.5 1.5 0 0 1 1.824 1.083Zm-159.77 2.777a1.5 1.5 0 0 1 1.784-1.146c1.286.28 2.574.552 3.864.817a1.5 1.5 0 0 1-.603 2.939 354.4 354.4 0 0 1-3.899-.825 1.5 1.5 0 0 1-1.146-1.785Zm148.238 0a1.5 1.5 0 0 1-1.146 1.785c-1.297.282-2.596.557-3.898.825a1.501 1.501 0 0 1-.604-2.939c1.29-.265 2.578-.538 3.864-.817a1.5 1.5 0 0 1 1.784 1.146Zm-136.614 2.372a1.501 1.501 0 0 1 1.744-1.209c1.291.234 2.585.461 3.882.68a1.5 1.5 0 1 1-.501 2.958c-1.308-.221-2.613-.45-3.916-.686a1.5 1.5 0 0 1-1.209-1.743Zm124.99 0a1.5 1.5 0 0 1-1.209 1.743c-1.303.236-2.608.465-3.916.686a1.5 1.5 0 0 1-.501-2.958c1.297-.219 2.591-.446 3.882-.68a1.5 1.5 0 0 1 1.744 1.209Zm-113.277 1.964a1.5 1.5 0 0 1 1.7-1.269c1.296.188 2.593.369 3.893.543a1.5 1.5 0 1 1-.396 2.973 337.241 337.241 0 0 1-3.928-.547 1.5 1.5 0 0 1-1.269-1.7Zm101.564 0a1.5 1.5 0 0 1-1.269 1.7c-1.307.19-2.616.372-3.928.547a1.5 1.5 0 1 1-.396-2.973c1.3-.174 2.597-.355 3.893-.543a1.5 1.5 0 0 1 1.7 1.269Zm-89.797 1.553a1.5 1.5 0 0 1 1.655-1.328c1.305.144 2.613.279 3.923.408a1.5 1.5 0 0 1-.293 2.986 341.94 341.94 0 0 1-3.958-.412 1.499 1.499 0 0 1-1.327-1.654Zm78.03 0a1.499 1.499 0 0 1-1.327 1.654 341.94 341.94 0 0 1-3.958.412 1.5 1.5 0 0 1-.293-2.986c1.31-.129 2.618-.264 3.924-.408a1.5 1.5 0 0 1 1.654 1.328Zm-66.227 1.141a1.5 1.5 0 0 1 1.608-1.384c1.309.098 2.621.188 3.935.271a1.5 1.5 0 0 1-.189 2.994 346.376 346.376 0 0 1-3.97-.274 1.5 1.5 0 0 1-1.384-1.607Zm54.424 0a1.5 1.5 0 0 1-1.384 1.607c-1.321.099-2.644.19-3.97.274a1.5 1.5 0 0 1-.189-2.994 338.77 338.77 0 0 0 3.935-.271 1.5 1.5 0 0 1 1.608 1.384Zm-42.571.732a1.5 1.5 0 0 1 1.559-1.439c1.307.053 2.617.098 3.929.135a1.5 1.5 0 0 1-.086 2.999 347.42 347.42 0 0 1-3.964-.136 1.5 1.5 0 0 1-1.438-1.559Zm30.718 0a1.499 1.499 0 0 1-1.438 1.559c-1.319.053-2.641.098-3.964.136a1.5 1.5 0 1 1-.086-2.999c1.312-.037 2.622-.082 3.93-.135a1.5 1.5 0 0 1 1.558 1.439Zm-18.847.323a1.5 1.5 0 0 1 1.508-1.491 326.704 326.704 0 0 0 3.96 0 1.5 1.5 0 1 1 .017 3c-.665.004-1.331.005-1.997.005-.394 0-.787 0-1.181-.002l-.816-.003a1.5 1.5 0 0 1-1.491-1.509Z" fill="#fff" fill-opacity=".08"/><circle cx="52" cy="52" r="52" transform="matrix(-1 0 0 1 182 80)" fill="url(#c)"/><circle cx="52" cy="52" r="51" transform="matrix(-1 0 0 1 182 80)" stroke="#fff" stroke-opacity=".2" stroke-width="2"/><path d="M111.054 120.727V144h-2.125v-21.045h-.136l-5.455 3.625v-2.205l5.5-3.648h2.216ZM118.122 144v-1.557l7.602-8.545a52.353 52.353 0 0 0 2.398-2.875c.606-.796 1.046-1.531 1.318-2.205a5.411 5.411 0 0 0 .421-2.102c0-.886-.209-1.659-.625-2.318a4.203 4.203 0 0 0-1.693-1.557c-.72-.371-1.531-.557-2.432-.557-.955 0-1.792.205-2.512.614a4.312 4.312 0 0 0-1.659 1.682c-.394.712-.591 1.53-.591 2.454h-2.034c0-1.288.296-2.428.887-3.42a6.4 6.4 0 0 1 2.443-2.353c1.038-.568 2.212-.852 3.523-.852 1.295 0 2.447.28 3.454.841a6.202 6.202 0 0 1 2.375 2.261c.576.955.864 2.023.864 3.205 0 .856-.152 1.686-.455 2.489-.295.803-.807 1.697-1.534 2.681-.727.985-1.735 2.19-3.023 3.614l-5.772 6.443v.148h11.511V144h-14.466Zm31.702-10.284h-1.909v-12.989h1.909v12.989Zm-4.966 0h-1.909v-12.989h1.909v12.989ZM137.46 144v-1.909h17.614V144H137.46Zm9.012-.557c-1.766-.007-3.326-.458-4.682-1.352-1.356-.894-2.417-2.11-3.182-3.648-.765-1.538-1.148-3.273-1.148-5.204 0-1.955.375-3.652 1.125-5.091.758-1.447 1.807-2.568 3.148-3.364 1.341-.795 2.894-1.193 4.659-1.193 1.796 0 3.364.409 4.705 1.227 1.341.818 2.382 1.985 3.125 3.5.75 1.508 1.125 3.307 1.125 5.398h-2.114c0-1.773-.288-3.261-.864-4.466-.575-1.212-1.378-2.125-2.409-2.739-1.03-.613-2.223-.92-3.579-.92-1.303 0-2.47.311-3.5.932-1.023.613-1.834 1.515-2.432 2.704-.599 1.182-.898 2.629-.898 4.341-.007 1.667.296 3.144.909 4.432.614 1.28 1.5 2.284 2.659 3.011 1.167.72 2.561 1.08 4.182 1.08l-.829 1.352Zm-4.898-1.318.091-.273h.761l-.125.273h-.727Z" fill="#fff" fill-opacity=".4"/><circle cx="40" cy="40" r="40" transform="matrix(-1 0 0 1 754 429)" fill="url(#d)"/><circle cx="40" cy="40" r="39" transform="matrix(-1 0 0 1 754 429)" stroke="#fff" stroke-opacity=".2" stroke-width="2"/><path d="M698.564 460.545V478h-1.594v-15.784h-.102l-4.091 2.719v-1.654l4.125-2.736h1.662ZM703.865 478v-1.168l5.702-6.409a39.158 39.158 0 0 0 1.798-2.156c.455-.597.784-1.148.989-1.653.21-.506.315-1.032.315-1.577 0-.665-.156-1.244-.469-1.739-.307-.5-.73-.889-1.27-1.167-.539-.279-1.147-.418-1.823-.418-.716 0-1.344.153-1.884.46a3.238 3.238 0 0 0-1.244 1.262c-.296.534-.443 1.147-.443 1.841h-1.526c0-.966.222-1.821.665-2.566a4.792 4.792 0 0 1 1.832-1.764c.779-.426 1.659-.639 2.642-.639.972 0 1.835.21 2.591.631.756.414 1.349.98 1.781 1.696.432.715.648 1.517.648 2.403 0 .642-.114 1.264-.341 1.866-.221.603-.605 1.273-1.15 2.012-.546.738-1.302 1.642-2.267 2.71l-4.33 4.832v.111h8.633V478h-10.849Zm23.478-3.239v-.792c0-.654.131-1.242.392-1.764a3.055 3.055 0 0 1 1.117-1.253c.483-.307 1.056-.461 1.721-.461.671 0 1.244.154 1.722.461.477.307.843.724 1.099 1.253.256.522.384 1.11.384 1.764v.792c0 .654-.131 1.242-.392 1.765-.256.522-.623.94-1.1 1.252-.477.307-1.048.461-1.713.461-.676 0-1.256-.154-1.738-.461a3.145 3.145 0 0 1-1.108-1.252c-.256-.523-.384-1.111-.384-1.765Zm1.338-.792v.792c0 .642.156 1.191.469 1.645.318.449.792.674 1.423.674.614 0 1.077-.225 1.389-.674.313-.454.469-1.003.469-1.645v-.792c0-.642-.153-1.188-.46-1.637-.307-.454-.773-.681-1.398-.681-.619 0-1.091.227-1.415.681-.318.449-.477.995-.477 1.637Zm-10.133-9.392v-.793c0-.653.13-1.241.392-1.764a3.06 3.06 0 0 1 1.116-1.244c.483-.313 1.057-.469 1.722-.469.67 0 1.244.156 1.721.469.478.306.844.721 1.1 1.244.255.523.383 1.111.383 1.764v.793c0 .653-.13 1.244-.392 1.772a3.03 3.03 0 0 1-1.099 1.245c-.478.307-1.049.46-1.713.46-.676 0-1.256-.153-1.739-.46a3.093 3.093 0 0 1-1.108-1.245c-.256-.528-.383-1.119-.383-1.772Zm1.338-.793v.793c0 .642.156 1.19.468 1.645.319.448.793.673 1.424.673.613 0 1.076-.225 1.389-.673.312-.455.469-1.003.469-1.645v-.793c0-.642-.154-1.187-.461-1.636-.306-.455-.772-.682-1.397-.682-.62 0-1.091.227-1.415.682-.318.449-.477.994-.477 1.636ZM719.332 478l11.991-17.455h1.509L720.84 478h-1.508Z" fill="#fff" fill-opacity=".4"/></g><defs><linearGradient id="a" x1="14.318" y1="580.147" x2="732.846" y2="684.081" gradientUnits="userSpaceOnUse"><stop stop-color="#1F5248"/><stop offset="1" stop-color="#102E2A"/></linearGradient><linearGradient id="c" x1="104" y1="52" x2="0" y2="52" gradientUnits="userSpaceOnUse"><stop stop-color="#fff" stop-opacity=".1"/><stop offset="1" stop-color="#fff" stop-opacity="0"/></linearGradient><linearGradient id="d" x1="80" y1="40" x2="0" y2="40" gradientUnits="userSpaceOnUse"><stop stop-color="#fff" stop-opacity=".1"/><stop offset="1" stop-color="#fff" stop-opacity="0"/></linearGradient></defs></svg>