<svg width="100" height="100" fill="none" xmlns="http://www.w3.org/2000/svg"><rect width="100" height="100" rx="24" fill="#fff"/><path d="M66.92 30H33.174C22.628 30 14 38.54 14 48.978c0 10.439 8.628 18.979 19.174 18.979H66.92c10.546 0 19.174-8.54 19.174-18.978C86.094 38.54 77.466 30 66.92 30Z" fill="#fff"/><path d="M66.92 31.537c2.368 0 4.67.465 6.836 1.376 2.1.883 3.978 2.145 5.608 3.748a17.477 17.477 0 0 1 3.787 5.552 17.064 17.064 0 0 1 1.39 6.765c0 2.344-.47 4.622-1.39 6.766a17.583 17.583 0 0 1-3.787 5.551 17.677 17.677 0 0 1-5.608 3.749 17.547 17.547 0 0 1-6.836 1.376H33.174c-2.368 0-4.669-.465-6.835-1.376a17.785 17.785 0 0 1-5.609-3.748 17.477 17.477 0 0 1-3.787-5.552 17.066 17.066 0 0 1-1.39-6.766c0-2.343.47-4.62 1.39-6.765a17.583 17.583 0 0 1 3.787-5.552 17.677 17.677 0 0 1 5.608-3.748 17.547 17.547 0 0 1 6.836-1.376H66.92Zm0-1.537H33.174C22.628 30 14 38.54 14 48.978c0 10.439 8.628 18.979 19.174 18.979H66.92c10.546 0 19.174-8.54 19.174-18.978C86.094 38.54 77.466 30 66.92 30Z" fill="#3C4043"/><path d="M48.458 50.327v5.74h-1.84V41.892h4.879c1.237 0 2.291.408 3.154 1.224.882.816 1.323 1.812 1.323 2.989 0 1.205-.44 2.201-1.323 3.008-.853.806-1.908 1.205-3.154 1.205h-3.04v.01Zm0-6.69v4.944h3.077c.729 0 1.343-.247 1.822-.731.489-.484.738-1.072.738-1.737 0-.654-.25-1.233-.738-1.717-.48-.503-1.084-.75-1.822-.75h-3.077v-.01ZM60.788 46.047c1.36 0 2.435.36 3.22 1.082.787.72 1.18 1.708 1.18 2.96v5.979h-1.754V54.72h-.077c-.758 1.11-1.774 1.66-3.04 1.66-1.083 0-1.984-.313-2.712-.948-.729-.636-1.093-1.424-1.093-2.373 0-1.005.383-1.802 1.15-2.39.767-.599 1.793-.893 3.068-.893 1.093 0 1.994.2 2.694.598v-.418c0-.635-.25-1.167-.757-1.613a2.614 2.614 0 0 0-1.784-.664c-1.025 0-1.84.427-2.435 1.29l-1.62-1.005c.892-1.281 2.215-1.917 3.96-1.917Zm-2.378 7.04c0 .475.201.874.614 1.187.402.313.882.474 1.428.474.776 0 1.467-.284 2.07-.853.605-.57.912-1.234.912-2.003-.576-.446-1.371-.674-2.397-.674-.748 0-1.371.18-1.87.532-.508.37-.757.816-.757 1.338ZM75.196 46.36l-6.135 13.968h-1.899l2.282-4.887-4.046-9.082h2.004l2.915 6.965h.038l2.838-6.965h2.003Z" fill="#3C4043"/><path d="M41.139 49.168c0-.594-.054-1.162-.154-1.709H33.27v3.131l4.443.001a3.764 3.764 0 0 1-1.649 2.523v2.031h2.645c1.545-1.415 2.43-3.506 2.43-5.977Z" fill="#4285F4"/><path d="M36.063 53.113c-.736.492-1.684.78-2.794.78-2.142 0-3.96-1.43-4.61-3.356h-2.73v2.095a8.223 8.223 0 0 0 7.34 4.477c2.219 0 4.083-.722 5.44-1.965l-2.646-2.03Z" fill="#34A853"/><path d="M28.404 48.983c0-.541.09-1.064.256-1.556v-2.095h-2.728a8.019 8.019 0 0 0-.873 3.65c0 1.314.315 2.553.873 3.651l2.728-2.095a4.858 4.858 0 0 1-.256-1.555Z" fill="#FABB05"/><path d="M33.27 44.072c1.21 0 2.295.413 3.15 1.22l2.345-2.319c-1.424-1.312-3.28-2.117-5.495-2.117a8.224 8.224 0 0 0-7.34 4.477l2.728 2.095c.651-1.927 2.469-3.356 4.611-3.356Z" fill="#E94235"/></svg>