<svg width="118" height="40" viewBox="0 0 118 40" fill="none" xmlns="http://www.w3.org/2000/svg">
<path d="M0.420455 6.98011V1.90909H24.3125V6.98011H15.4062V31H9.3267V6.98011H0.420455ZM28.1335 31V9.18182H34.1847V31H28.1335ZM31.1733 6.36932C30.2737 6.36932 29.5019 6.07102 28.858 5.47443C28.2235 4.86837 27.9062 4.14394 27.9062 3.30114C27.9062 2.4678 28.2235 1.75284 28.858 1.15625C29.5019 0.550188 30.2737 0.247158 31.1733 0.247158C32.0729 0.247158 32.84 0.550188 33.4744 1.15625C34.1184 1.75284 34.4403 2.4678 34.4403 3.30114C34.4403 4.14394 34.1184 4.86837 33.4744 5.47443C32.84 6.07102 32.0729 6.36932 31.1733 6.36932ZM39.032 39.1818V9.18182H44.9979V12.8466H45.2678C45.5329 12.2595 45.9164 11.6629 46.4183 11.0568C46.9297 10.4413 47.5926 9.92992 48.407 9.52273C49.2308 9.10606 50.2536 8.89773 51.4751 8.89773C53.0661 8.89773 54.5339 9.31439 55.8786 10.1477C57.2232 10.9716 58.2981 12.2169 59.103 13.8835C59.9079 15.5407 60.3104 17.6193 60.3104 20.1193C60.3104 22.553 59.9174 24.608 59.1314 26.2841C58.3549 27.9508 57.2943 29.215 55.9496 30.0767C54.6143 30.929 53.1181 31.3551 51.4609 31.3551C50.2867 31.3551 49.2876 31.161 48.4638 30.7727C47.6494 30.3845 46.9818 29.8968 46.4609 29.3097C45.9401 28.7131 45.5424 28.1117 45.2678 27.5057H45.0831V39.1818H39.032ZM44.9553 20.0909C44.9553 21.3883 45.1352 22.5199 45.495 23.4858C45.8549 24.4517 46.3757 25.2045 47.0575 25.7443C47.7393 26.2746 48.5679 26.5398 49.5433 26.5398C50.5282 26.5398 51.3615 26.2699 52.0433 25.7301C52.7251 25.1809 53.2412 24.4233 53.5916 23.4574C53.9515 22.482 54.1314 21.3598 54.1314 20.0909C54.1314 18.8314 53.9562 17.7235 53.6058 16.767C53.2554 15.8106 52.7393 15.0625 52.0575 14.5227C51.3757 13.983 50.5376 13.7131 49.5433 13.7131C48.5585 13.7131 47.7251 13.9735 47.0433 14.4943C46.371 15.0152 45.8549 15.7538 45.495 16.7102C45.1352 17.6667 44.9553 18.7936 44.9553 20.0909ZM82.4979 15.4034L76.9581 15.7443C76.8634 15.2708 76.6598 14.8447 76.3473 14.4659C76.0348 14.0777 75.6229 13.7699 75.1115 13.5426C74.6096 13.3059 74.0083 13.1875 73.3075 13.1875C72.37 13.1875 71.5793 13.3864 70.9354 13.7841C70.2914 14.1723 69.9695 14.6932 69.9695 15.3466C69.9695 15.8674 70.1778 16.3078 70.5945 16.6676C71.0111 17.0275 71.7261 17.3163 72.7393 17.5341L76.6882 18.3295C78.8094 18.7652 80.3909 19.4659 81.4325 20.4318C82.4742 21.3977 82.995 22.6667 82.995 24.2386C82.995 25.6686 82.5736 26.9233 81.7308 28.0028C80.8975 29.0824 79.7517 29.9252 78.2933 30.5312C76.8445 31.1278 75.1731 31.4261 73.2791 31.4261C70.3909 31.4261 68.0897 30.8248 66.3757 29.6222C64.6712 28.41 63.6721 26.7623 63.3786 24.679L69.3303 24.3665C69.5102 25.2472 69.9458 25.9195 70.6371 26.3835C71.3284 26.8381 72.2138 27.0653 73.2933 27.0653C74.3539 27.0653 75.2062 26.8617 75.8501 26.4545C76.5036 26.0379 76.835 25.5028 76.8445 24.8494C76.835 24.3002 76.603 23.8504 76.1484 23.5C75.6939 23.1402 74.9931 22.8655 74.0462 22.6761L70.2678 21.9233C68.1371 21.4972 66.5509 20.7585 65.5092 19.7074C64.477 18.6562 63.9609 17.3163 63.9609 15.6875C63.9609 14.286 64.3397 13.0786 65.0973 12.0653C65.8643 11.0521 66.9392 10.2708 68.3217 9.72159C69.7138 9.17235 71.3426 8.89773 73.2081 8.89773C75.9638 8.89773 78.1323 9.48011 79.7138 10.6449C81.3047 11.8097 82.2327 13.3958 82.4979 15.4034ZM96.7486 31.4261C94.5043 31.4261 92.5724 30.9716 90.9531 30.0625C89.3433 29.1439 88.1027 27.8466 87.2315 26.1705C86.3603 24.4848 85.9247 22.4915 85.9247 20.1903C85.9247 17.946 86.3603 15.9763 87.2315 14.2812C88.1027 12.5862 89.3291 11.2652 90.9105 10.3182C92.5014 9.37121 94.367 8.89773 96.5071 8.89773C97.9465 8.89773 99.2865 9.12973 100.527 9.59375C101.777 10.0483 102.866 10.7348 103.794 11.6534C104.732 12.572 105.461 13.7273 105.982 15.1193C106.502 16.5019 106.763 18.1212 106.763 19.9773V21.6392H88.3395V17.8892H101.067C101.067 17.018 100.877 16.2462 100.499 15.5739C100.12 14.9015 99.5942 14.3759 98.9219 13.9972C98.259 13.6089 97.4872 13.4148 96.6065 13.4148C95.688 13.4148 94.8736 13.6278 94.1634 14.054C93.4626 14.4706 92.9134 15.0341 92.5156 15.7443C92.1179 16.4451 91.9143 17.2263 91.9048 18.0881V21.6534C91.9048 22.733 92.1037 23.6657 92.5014 24.4517C92.9086 25.2377 93.4815 25.8438 94.2202 26.2699C94.9588 26.696 95.8348 26.9091 96.848 26.9091C97.5204 26.9091 98.1359 26.8144 98.6946 26.625C99.2533 26.4356 99.7315 26.1515 100.129 25.7727C100.527 25.3939 100.83 24.9299 101.038 24.3807L106.635 24.75C106.351 26.0947 105.768 27.2689 104.888 28.2727C104.017 29.267 102.89 30.0436 101.507 30.6023C100.134 31.1515 98.5478 31.4261 96.7486 31.4261ZM114.249 31.3693C113.311 31.3693 112.506 31.0379 111.834 30.375C111.171 29.7027 110.839 28.8977 110.839 27.9602C110.839 27.0322 111.171 26.2367 111.834 25.5739C112.506 24.911 113.311 24.5795 114.249 24.5795C115.158 24.5795 115.953 24.911 116.635 25.5739C117.317 26.2367 117.658 27.0322 117.658 27.9602C117.658 28.5852 117.497 29.1581 117.175 29.679C116.862 30.1903 116.45 30.6023 115.939 30.9148C115.428 31.2178 114.864 31.3693 114.249 31.3693Z" fill="#327B6E"/>
</svg>
