<svg width="84" height="28" viewBox="0 0 84 28" fill="none" xmlns="http://www.w3.org/2000/svg">
<path d="M0.994318 5.18608V1.63636H17.7188V5.18608H11.4844V22H7.22869V5.18608H0.994318ZM20.3935 22V6.72727H24.6293V22H20.3935ZM22.5213 4.75852C21.8916 4.75852 21.3513 4.54972 20.9006 4.1321C20.4564 3.70786 20.2344 3.20076 20.2344 2.61079C20.2344 2.02746 20.4564 1.52699 20.9006 1.10938C21.3513 0.685132 21.8916 0.47301 22.5213 0.47301C23.151 0.47301 23.688 0.685132 24.1321 1.10938C24.5829 1.52699 24.8082 2.02746 24.8082 2.61079C24.8082 3.20076 24.5829 3.70786 24.1321 4.1321C23.688 4.54972 23.151 4.75852 22.5213 4.75852ZM28.0224 27.7273V6.72727H32.1985V9.29261H32.3874C32.573 8.88163 32.8415 8.46401 33.1928 8.03977C33.5508 7.6089 34.0148 7.25095 34.5849 6.96591C35.1616 6.67424 35.8775 6.52841 36.7326 6.52841C37.8462 6.52841 38.8737 6.82008 39.815 7.40341C40.7563 7.98011 41.5086 8.8518 42.0721 10.0185C42.6355 11.1785 42.9173 12.6335 42.9173 14.3835C42.9173 16.0871 42.6422 17.5256 42.092 18.6989C41.5484 19.8655 40.806 20.7505 39.8647 21.3537C38.93 21.9503 37.8827 22.2486 36.7227 22.2486C35.9007 22.2486 35.2013 22.1127 34.6246 21.8409C34.0546 21.5691 33.5872 21.2277 33.2227 20.8168C32.8581 20.3991 32.5797 19.9782 32.3874 19.554H32.2582V27.7273H28.0224ZM32.1687 14.3636C32.1687 15.2718 32.2946 16.0639 32.5465 16.7401C32.7984 17.4162 33.163 17.9432 33.6403 18.321C34.1175 18.6922 34.6976 18.8778 35.3803 18.8778C36.0697 18.8778 36.6531 18.6889 37.1303 18.3111C37.6076 17.9266 37.9689 17.3963 38.2141 16.7202C38.466 16.0374 38.592 15.2519 38.592 14.3636C38.592 13.482 38.4693 12.7064 38.2241 12.0369C37.9788 11.3674 37.6175 10.8437 37.1403 10.4659C36.663 10.0881 36.0763 9.89915 35.3803 9.89915C34.6909 9.89915 34.1076 10.0814 33.6303 10.446C33.1597 10.8106 32.7984 11.3277 32.5465 11.9972C32.2946 12.6667 32.1687 13.4555 32.1687 14.3636ZM58.4485 11.0824L54.5707 11.321C54.5044 10.9896 54.3619 10.6913 54.1431 10.4261C53.9244 10.1544 53.636 9.93892 53.2781 9.77983C52.9267 9.61411 52.5058 9.53125 52.0153 9.53125C51.359 9.53125 50.8055 9.67045 50.3548 9.94886C49.904 10.2206 49.6786 10.5852 49.6786 11.0426C49.6786 11.4072 49.8245 11.7154 50.1161 11.9673C50.4078 12.2192 50.9083 12.4214 51.6175 12.5739L54.3817 13.1307C55.8666 13.4356 56.9736 13.9261 57.7028 14.6023C58.4319 15.2784 58.7965 16.1667 58.7965 17.267C58.7965 18.268 58.5015 19.1463 57.9116 19.902C57.3282 20.6577 56.5262 21.2476 55.5053 21.6719C54.4911 22.0895 53.3211 22.2983 51.9954 22.2983C49.9736 22.2983 48.3628 21.8774 47.163 21.0355C45.9698 20.187 45.2705 19.0336 45.065 17.5753L49.2312 17.3565C49.3571 17.973 49.6621 18.4437 50.146 18.7685C50.6299 19.0866 51.2496 19.2457 52.0053 19.2457C52.7478 19.2457 53.3443 19.1032 53.7951 18.8182C54.2525 18.5265 54.4845 18.152 54.4911 17.6946C54.4845 17.3101 54.3221 16.9953 54.0039 16.75C53.6857 16.4981 53.1952 16.3059 52.5323 16.1733L49.8874 15.6463C48.396 15.348 47.2856 14.831 46.5565 14.0952C45.8339 13.3594 45.4727 12.4214 45.4727 11.2812C45.4727 10.3002 45.7378 9.45502 46.2681 8.74574C46.805 8.03646 47.5574 7.48958 48.5252 7.10511C49.4996 6.72064 50.6398 6.52841 51.9457 6.52841C53.8746 6.52841 55.3926 6.93608 56.4996 7.75142C57.6133 8.56676 58.2629 9.67708 58.4485 11.0824ZM68.424 22.2983C66.853 22.2983 65.5007 21.9801 64.3672 21.3438C63.2403 20.7008 62.3719 19.7926 61.7621 18.6193C61.1522 17.4394 60.8473 16.044 60.8473 14.4332C60.8473 12.8622 61.1522 11.4834 61.7621 10.2969C62.3719 9.11032 63.2304 8.18561 64.3374 7.52273C65.451 6.85985 66.7569 6.52841 68.255 6.52841C69.2625 6.52841 70.2005 6.69081 71.0689 7.01562C71.9439 7.33381 72.7062 7.81439 73.3558 8.45739C74.0121 9.10038 74.5225 9.90909 74.8871 10.8835C75.2517 11.8513 75.4339 12.9848 75.4339 14.2841V15.4474H62.5376V12.8224H71.4467C71.4467 12.2126 71.3142 11.6723 71.049 11.2017C70.7839 10.7311 70.416 10.3632 69.9453 10.098C69.4813 9.82623 68.9411 9.69034 68.3246 9.69034C67.6816 9.69034 67.1115 9.83949 66.6143 10.1378C66.1238 10.4295 65.7393 10.8239 65.4609 11.321C65.1825 11.8116 65.04 12.3584 65.0334 12.9616V15.4574C65.0334 16.2131 65.1726 16.866 65.451 17.4162C65.736 17.9664 66.1371 18.3906 66.6541 18.6889C67.1712 18.9872 67.7843 19.1364 68.4936 19.1364C68.9643 19.1364 69.3951 19.0701 69.7862 18.9375C70.1773 18.8049 70.5121 18.6061 70.7905 18.3409C71.0689 18.0758 71.281 17.7509 71.4268 17.3665L75.3445 17.625C75.1456 18.5663 74.7379 19.3883 74.1214 20.0909C73.5116 20.7869 72.7228 21.3305 71.755 21.7216C70.7938 22.1061 69.6835 22.2983 68.424 22.2983ZM80.674 22.2585C80.0178 22.2585 79.4543 22.0265 78.9837 21.5625C78.5196 21.0919 78.2876 20.5284 78.2876 19.8722C78.2876 19.2225 78.5196 18.6657 78.9837 18.2017C79.4543 17.7377 80.0178 17.5057 80.674 17.5057C81.3104 17.5057 81.8672 17.7377 82.3445 18.2017C82.8217 18.6657 83.0604 19.2225 83.0604 19.8722C83.0604 20.3097 82.9477 20.7107 82.7223 21.0753C82.5036 21.4332 82.2152 21.7216 81.8572 21.9403C81.4993 22.1525 81.1049 22.2585 80.674 22.2585Z" fill="#313131"/>
</svg>
