<svg width="180" height="196" fill="none" xmlns="http://www.w3.org/2000/svg"><rect x=".5" y=".5" width="179" height="195" rx="11.5" fill="#FAFAFA"/><path d="M27.083 25.416h-8.166c-.645 0-1.167.522-1.167 1.167v4.083c0 .644.522 1.167 1.167 1.167h8.166c.645 0 1.167-.523 1.167-1.167v-4.083c0-.645-.522-1.167-1.167-1.167ZM20.082 25.416v-2.333a2.917 2.917 0 1 1 5.833 0v2.333" stroke="#313131" stroke-width="1.4" stroke-linecap="round" stroke-linejoin="round"/><path d="M39.119 31V20.818h3.728c.723 0 1.321.12 1.795.358.474.236.829.555 1.064.96.235.4.353.853.353 1.357 0 .424-.078.782-.234 1.074-.156.288-.364.52-.626.696a2.761 2.761 0 0 1-.855.378v.1c.338.016.668.125.99.327.324.199.592.482.804.85.213.368.319.816.319 1.343a2.7 2.7 0 0 1-.368 1.402c-.242.41-.617.737-1.124.979-.507.239-1.155.358-1.944.358H39.12Zm1.536-1.317h2.217c.736 0 1.263-.143 1.581-.428.318-.285.477-.641.477-1.069 0-.321-.08-.616-.243-.885a1.74 1.74 0 0 0-.696-.641c-.298-.16-.653-.239-1.064-.239h-2.272v3.262Zm0-4.46h2.058c.345 0 .655-.066.93-.199.278-.132.499-.318.661-.557.166-.242.249-.527.249-.855 0-.42-.148-.774-.443-1.059-.295-.285-.747-.427-1.357-.427h-2.098v3.097Zm8.991-4.405V31h-1.487V20.818h1.487Zm5.216 10.336c-.715 0-1.34-.164-1.874-.492a3.319 3.319 0 0 1-1.243-1.377c-.295-.59-.442-1.28-.442-2.068 0-.793.147-1.485.442-2.078a3.312 3.312 0 0 1 1.243-1.383c.534-.328 1.159-.492 1.874-.492.716 0 1.341.164 1.875.492.533.328.948.79 1.243 1.383.295.593.442 1.285.442 2.078 0 .788-.147 1.478-.442 2.068a3.319 3.319 0 0 1-1.243 1.377c-.534.328-1.159.492-1.875.492Zm.005-1.248c.464 0 .849-.122 1.154-.368.305-.245.53-.571.676-.98.15-.407.224-.856.224-1.346 0-.488-.075-.935-.224-1.343a2.187 2.187 0 0 0-.676-.989c-.305-.249-.69-.373-1.154-.373-.467 0-.855.124-1.163.373a2.222 2.222 0 0 0-.681.99 3.96 3.96 0 0 0-.219 1.342c0 .49.073.94.219 1.347.15.408.376.734.681.98.308.245.696.367 1.163.367Zm8.43 1.248c-.738 0-1.374-.167-1.908-.502a3.325 3.325 0 0 1-1.223-1.397c-.285-.593-.428-1.273-.428-2.038 0-.776.146-1.46.438-2.054a3.351 3.351 0 0 1 1.233-1.397c.53-.334 1.155-.502 1.874-.502.58 0 1.097.108 1.551.323.454.212.82.51 1.099.895.282.385.449.834.502 1.348h-1.447a1.735 1.735 0 0 0-.547-.925c-.281-.259-.66-.388-1.133-.388-.414 0-.777.11-1.089.328-.308.216-.548.524-.72.925-.173.398-.26.868-.26 1.412 0 .557.085 1.037.254 1.442.17.404.408.717.716.94.312.221.678.332 1.099.332.282 0 .537-.051.765-.154.233-.106.426-.257.582-.452.16-.196.27-.431.333-.706h1.447a2.81 2.81 0 0 1-.482 1.322 2.775 2.775 0 0 1-1.08.915c-.447.222-.972.333-1.575.333Zm6.095-2.744-.01-1.815h.258l3.043-3.231h1.78l-3.47 3.679h-.234l-1.367 1.367ZM68.025 31V20.818h1.486V31h-1.486Zm4.822 0-2.734-3.63 1.024-1.038L74.672 31h-1.825Z" fill="#313131"/><path d="M17.75 58.5h10.5M27.085 58.5v8.166a1.167 1.167 0 0 1-1.167 1.167h-5.833a1.167 1.167 0 0 1-1.167-1.167v-8.167m1.75 0v-1.166a1.167 1.167 0 0 1 1.167-1.167h2.333a1.167 1.167 0 0 1 1.167 1.167v1.166M21.832 61.416v3.5M24.168 61.416v3.5" stroke="#313131" stroke-width="1.4" stroke-linecap="round" stroke-linejoin="round"/><path d="M39.119 67V56.818h3.629c.789 0 1.443.136 1.964.408.523.272.914.648 1.173 1.128.259.478.388 1.03.388 1.656 0 .623-.131 1.172-.393 1.646-.259.47-.65.836-1.173 1.098-.52.262-1.175.393-1.964.393h-2.75v-1.322h2.61c.498 0 .902-.072 1.214-.214.315-.143.545-.35.69-.622.147-.271.22-.598.22-.98 0-.383-.075-.717-.224-.998a1.444 1.444 0 0 0-.691-.647c-.312-.152-.721-.228-1.228-.228h-1.93V67H39.12Zm5.026-4.594L46.66 67h-1.75l-2.465-4.594h1.7Zm7.073 4.748c-.752 0-1.4-.16-1.944-.482a3.272 3.272 0 0 1-1.252-1.367c-.292-.59-.438-1.281-.438-2.074 0-.782.146-1.471.438-2.068a3.398 3.398 0 0 1 1.232-1.397c.53-.334 1.15-.502 1.86-.502.43 0 .848.072 1.253.214.404.142.767.366 1.088.671.322.305.576.701.761 1.188.186.484.279 1.073.279 1.765v.527h-6.07v-1.113h4.613c0-.392-.08-.738-.239-1.04a1.803 1.803 0 0 0-.671-.72 1.875 1.875 0 0 0-1.004-.264 1.94 1.94 0 0 0-1.094.308 2.07 2.07 0 0 0-.716.796 2.296 2.296 0 0 0-.248 1.059v.87c0 .51.089.944.268 1.302.182.358.436.632.76.82.325.186.705.28 1.14.28.28 0 .538-.04.77-.12a1.599 1.599 0 0 0 .99-.97l1.406.254a2.548 2.548 0 0 1-.606 1.089 2.941 2.941 0 0 1-1.09.72c-.434.17-.929.254-1.486.254ZM56.144 67v-7.636h1.427v1.242h.094c.16-.42.42-.748.78-.984.362-.239.794-.358 1.298-.358.51 0 .938.12 1.283.358.348.239.605.567.77.984h.08a2.15 2.15 0 0 1 .87-.974c.398-.245.872-.368 1.422-.368.693 0 1.258.217 1.695.651.441.435.662 1.09.662 1.964V67h-1.487v-4.981c0-.518-.14-.892-.423-1.124a1.537 1.537 0 0 0-1.009-.348c-.484 0-.86.149-1.128.447-.269.295-.403.675-.403 1.139V67h-1.482v-5.076c0-.414-.129-.747-.387-1-.259-.251-.595-.377-1.01-.377-.281 0-.541.074-.78.224-.235.145-.426.35-.572.611a1.873 1.873 0 0 0-.214.91V67h-1.486Zm15.59.154c-.716 0-1.341-.164-1.875-.492a3.319 3.319 0 0 1-1.243-1.377c-.295-.59-.442-1.28-.442-2.068 0-.792.147-1.485.442-2.078a3.312 3.312 0 0 1 1.243-1.383c.534-.328 1.159-.492 1.875-.492.715 0 1.34.164 1.874.492.533.328.948.79 1.243 1.383.295.593.442 1.285.442 2.078 0 .788-.147 1.478-.442 2.068a3.319 3.319 0 0 1-1.243 1.377c-.534.328-1.159.492-1.874.492Zm.005-1.248c.463 0 .848-.122 1.153-.368.305-.245.53-.571.676-.98.15-.407.224-.856.224-1.346 0-.488-.075-.935-.224-1.343a2.187 2.187 0 0 0-.676-.989c-.305-.249-.69-.373-1.153-.373-.468 0-.856.124-1.164.373a2.221 2.221 0 0 0-.681.99 3.96 3.96 0 0 0-.219 1.342c0 .49.073.94.219 1.347.15.408.376.734.681.98.308.245.696.367 1.163.367Zm11.486-6.542L80.456 67h-1.59l-2.775-7.636h1.596l1.934 5.876h.08l1.928-5.876h1.596Zm4.429 7.79c-.753 0-1.4-.16-1.944-.482a3.271 3.271 0 0 1-1.253-1.367c-.292-.59-.438-1.281-.438-2.074 0-.782.146-1.471.438-2.068a3.398 3.398 0 0 1 1.233-1.397c.53-.334 1.15-.502 1.86-.502.43 0 .848.072 1.252.214.405.142.767.366 1.089.671.322.305.575.701.76 1.188.186.484.279 1.073.279 1.765v.527h-6.07v-1.113h4.613c0-.392-.08-.738-.238-1.04a1.804 1.804 0 0 0-.671-.72 1.875 1.875 0 0 0-1.005-.264 1.94 1.94 0 0 0-1.093.308 2.07 2.07 0 0 0-.716.796 2.296 2.296 0 0 0-.249 1.059v.87c0 .51.09.944.268 1.302.183.358.436.632.761.82.325.186.704.28 1.139.28.281 0 .538-.04.77-.12a1.598 1.598 0 0 0 .99-.97l1.407.254a2.548 2.548 0 0 1-.607 1.089 2.94 2.94 0 0 1-1.089.72c-.434.17-.93.254-1.486.254Zm12.195-7.79v1.193h-4.171v-1.193h4.171Zm-3.053-1.83h1.487v7.224c0 .288.043.505.13.651.086.143.197.24.332.293.14.05.29.075.453.075.12 0 .224-.008.313-.025.09-.016.16-.03.209-.04l.268 1.228a2.499 2.499 0 0 1-.368.1c-.159.036-.358.056-.596.06a2.615 2.615 0 0 1-1.094-.21 1.876 1.876 0 0 1-.82-.675c-.21-.305-.314-.688-.314-1.149v-7.532Zm7.832 9.62c-.716 0-1.341-.164-1.874-.492a3.316 3.316 0 0 1-1.243-1.377c-.295-.59-.443-1.28-.443-2.068 0-.792.148-1.485.443-2.078a3.31 3.31 0 0 1 1.243-1.383c.533-.328 1.158-.492 1.874-.492.716 0 1.341.164 1.874.492a3.31 3.31 0 0 1 1.243 1.383c.295.593.443 1.285.443 2.078 0 .788-.148 1.478-.443 2.068a3.316 3.316 0 0 1-1.243 1.377c-.533.328-1.158.492-1.874.492Zm.005-1.248c.464 0 .848-.122 1.153-.368.305-.245.531-.571.677-.98.149-.407.223-.856.223-1.346 0-.488-.074-.935-.223-1.343a2.189 2.189 0 0 0-.677-.989c-.305-.249-.689-.373-1.153-.373-.467 0-.855.124-1.163.373a2.22 2.22 0 0 0-.681.99 3.956 3.956 0 0 0-.219 1.342c0 .49.073.94.219 1.347.149.408.376.734.681.98.308.245.696.367 1.163.367Zm11.141 1.263c-.484 0-.921-.09-1.312-.268a2.214 2.214 0 0 1-.93-.79c-.225-.346-.338-.768-.338-1.269 0-.43.083-.785.249-1.064.165-.278.389-.498.671-.66.282-.163.596-.286.944-.369a9.396 9.396 0 0 1 1.064-.189l1.114-.129c.285-.036.492-.094.621-.174.13-.08.194-.209.194-.388v-.035c0-.434-.122-.77-.368-1.009-.242-.238-.603-.358-1.083-.358-.501 0-.895.111-1.184.333-.285.22-.482.463-.591.731l-1.397-.318c.165-.464.407-.839.726-1.123a2.94 2.94 0 0 1 1.108-.627 4.331 4.331 0 0 1 1.318-.199c.305 0 .628.037.969.11.345.07.666.198.965.387.301.19.548.46.74.81.193.349.289.801.289 1.358V67h-1.452v-1.044h-.06c-.096.192-.24.381-.432.567-.192.185-.439.34-.741.462-.301.123-.663.184-1.084.184Zm.323-1.193c.411 0 .763-.081 1.054-.244.295-.162.519-.374.672-.636.155-.265.233-.549.233-.85v-.985c-.053.053-.155.103-.308.15-.149.043-.32.08-.512.114-.192.03-.38.058-.562.084l-.457.06a3.687 3.687 0 0 0-.791.184c-.235.086-.424.21-.566.373-.14.159-.209.371-.209.636 0 .368.136.647.407.835.272.186.619.279 1.039.279ZM121.523 67v-7.636h1.437v1.213h.079c.139-.411.385-.734.736-.97a2.105 2.105 0 0 1 1.203-.358 6.372 6.372 0 0 1 .631.035v1.422a2.61 2.61 0 0 0-.318-.055 3.031 3.031 0 0 0-.457-.035 1.94 1.94 0 0 0-.94.224 1.66 1.66 0 0 0-.885 1.497V67h-1.486Zm8.316.154c-.739 0-1.376-.167-1.909-.502a3.327 3.327 0 0 1-1.223-1.397c-.285-.593-.428-1.273-.428-2.038 0-.776.146-1.46.438-2.054a3.343 3.343 0 0 1 1.233-1.397c.53-.334 1.155-.502 1.874-.502.58 0 1.097.108 1.551.323.454.212.82.51 1.099.895a2.7 2.7 0 0 1 .502 1.348h-1.447a1.731 1.731 0 0 0-.547-.925c-.281-.259-.659-.388-1.133-.388-.414 0-.777.11-1.089.328-.308.216-.548.524-.721.925-.172.398-.258.868-.258 1.412 0 .557.084 1.037.253 1.442.169.404.408.717.716.94.312.221.678.332 1.099.332.282 0 .537-.051.766-.154.232-.106.425-.257.581-.452.159-.196.27-.431.333-.706h1.447a2.814 2.814 0 0 1-.482 1.322 2.777 2.777 0 0 1-1.079.915c-.447.222-.973.333-1.576.333Zm6.213-4.688V67h-1.486V56.818h1.466v3.788h.095c.179-.41.452-.737.82-.979.368-.242.849-.363 1.442-.363.524 0 .981.108 1.372.323.394.216.699.537.915.965.219.424.328.954.328 1.59V67h-1.487v-4.678c0-.56-.144-.995-.432-1.303-.288-.311-.69-.467-1.203-.467a1.97 1.97 0 0 0-.945.224c-.275.149-.492.367-.651.656-.156.285-.234.63-.234 1.034ZM142.988 67v-7.636h1.486V67h-1.486Zm.75-8.815a.946.946 0 0 1-.666-.258.841.841 0 0 1-.273-.627c0-.245.091-.454.273-.626a.936.936 0 0 1 .666-.264.92.92 0 0 1 .662.264.825.825 0 0 1 .278.626c0 .242-.093.451-.278.627a.93.93 0 0 1-.662.258Zm9.269 1.179L150.237 67h-1.591l-2.774-7.636h1.596l1.934 5.876h.08l1.929-5.876h1.596Zm4.428 7.79c-.752 0-1.4-.16-1.944-.482a3.273 3.273 0 0 1-1.253-1.367c-.291-.59-.437-1.281-.437-2.074 0-.782.146-1.471.437-2.068a3.398 3.398 0 0 1 1.233-1.397c.531-.334 1.15-.502 1.86-.502.43 0 .848.072 1.252.214.405.142.768.366 1.089.671.322.305.575.701.761 1.188.185.484.278 1.073.278 1.765v.527h-6.07v-1.113h4.614c0-.392-.08-.738-.239-1.04a1.805 1.805 0 0 0-.671-.72 1.875 1.875 0 0 0-1.004-.264 1.94 1.94 0 0 0-1.094.308 2.071 2.071 0 0 0-.716.796 2.293 2.293 0 0 0-.249 1.059v.87c0 .51.09.944.269 1.302.182.358.436.632.76.82.325.186.705.28 1.139.28.282 0 .539-.04.771-.12.232-.083.432-.206.601-.368.169-.162.298-.363.388-.602l1.407.254a2.549 2.549 0 0 1-.607 1.089 2.939 2.939 0 0 1-1.088.72c-.435.17-.93.254-1.487.254Z" fill="#313131"/><path d="M28.25 99.75a1.168 1.168 0 0 1-1.167 1.167h-7l-2.333 2.333v-9.333a1.167 1.167 0 0 1 1.167-1.167h8.166a1.167 1.167 0 0 1 1.167 1.167v5.833Z" stroke="#313131" stroke-width="1.4" stroke-linecap="round" stroke-linejoin="round"/><path d="M38.617 94.14v-1.322h7.88v1.323H43.32V103h-1.532v-8.86h-3.171Zm8.709 8.86v-7.636h1.436v1.213h.08c.139-.411.384-.734.736-.97a2.106 2.106 0 0 1 1.203-.358 6.379 6.379 0 0 1 .631.035v1.422a2.658 2.658 0 0 0-.318-.055 3.035 3.035 0 0 0-.458-.034 1.94 1.94 0 0 0-.94.223 1.662 1.662 0 0 0-.884 1.497V103h-1.486Zm7.526.169c-.483 0-.921-.089-1.312-.268a2.215 2.215 0 0 1-.93-.791c-.225-.345-.338-.767-.338-1.268 0-.431.083-.785.249-1.064.166-.278.39-.498.67-.66.283-.163.597-.286.945-.369a9.389 9.389 0 0 1 1.064-.189l1.114-.129c.285-.036.492-.094.621-.174.13-.08.194-.209.194-.388v-.034c0-.435-.122-.771-.367-1.01-.242-.238-.604-.358-1.084-.358-.5 0-.895.111-1.183.333-.285.22-.483.463-.592.731l-1.397-.318c.166-.464.407-.838.726-1.123a2.943 2.943 0 0 1 1.108-.627 4.327 4.327 0 0 1 1.318-.199c.305 0 .628.037.97.11.344.07.666.198.964.387.301.19.548.46.74.81.193.349.289.801.289 1.358V103h-1.452v-1.044h-.06c-.096.192-.24.381-.432.567-.192.185-.44.339-.74.462-.302.123-.664.184-1.084.184Zm.324-1.193c.41 0 .762-.081 1.054-.244a1.7 1.7 0 0 0 .67-.636c.157-.265.234-.549.234-.85v-.985c-.053.053-.155.103-.308.15a4.81 4.81 0 0 1-.512.114c-.192.03-.38.058-.562.084l-.457.06a3.688 3.688 0 0 0-.79.184c-.236.086-.425.21-.567.373-.14.159-.21.371-.21.636 0 .368.137.647.408.835.272.186.619.279 1.04.279Zm6.911-3.51V103h-1.486v-7.636h1.427v1.242h.094c.176-.404.45-.729.825-.974.378-.245.854-.368 1.427-.368.52 0 .976.11 1.368.328.39.216.694.537.91.965.215.427.322.956.322 1.586V103h-1.486v-4.678c0-.554-.144-.986-.433-1.298-.288-.315-.684-.472-1.188-.472-.344 0-.651.074-.92.224-.265.149-.475.368-.63.656-.153.285-.23.63-.23 1.034Zm12.603-1.238-1.347.239a1.596 1.596 0 0 0-.268-.493 1.33 1.33 0 0 0-.488-.382c-.205-.1-.462-.15-.77-.15-.421 0-.772.095-1.054.284-.282.186-.423.426-.423.72 0 .256.095.461.284.617.189.156.493.284.914.383l1.213.278c.703.163 1.227.413 1.571.751.345.338.517.777.517 1.318 0 .457-.132.865-.397 1.223-.262.354-.628.633-1.099.835-.467.202-1.01.303-1.626.303-.855 0-1.552-.182-2.093-.547-.54-.368-.871-.89-.994-1.566l1.437-.219c.09.375.273.658.552.851.278.189.64.283 1.088.283.488 0 .877-.101 1.169-.303.291-.206.437-.456.437-.751a.781.781 0 0 0-.268-.602c-.176-.162-.446-.285-.81-.367l-1.293-.284c-.713-.162-1.24-.42-1.581-.775-.338-.355-.507-.804-.507-1.348 0-.45.126-.845.377-1.183.252-.338.6-.602 1.045-.79.444-.193.953-.289 1.526-.289.825 0 1.475.18 1.949.537.474.355.787.83.94 1.427Zm4.006 5.941c-.484 0-.921-.089-1.312-.268a2.215 2.215 0 0 1-.93-.791c-.225-.345-.338-.767-.338-1.268 0-.431.083-.785.249-1.064.165-.278.389-.498.67-.66.282-.163.597-.286.945-.369a9.383 9.383 0 0 1 1.064-.189l1.114-.129c.285-.036.492-.094.621-.174.13-.08.194-.209.194-.388v-.034c0-.435-.122-.771-.368-1.01-.242-.238-.603-.358-1.084-.358-.5 0-.894.111-1.183.333-.285.22-.482.463-.591.731l-1.397-.318c.165-.464.407-.838.726-1.123a2.942 2.942 0 0 1 1.108-.627 4.328 4.328 0 0 1 1.318-.199c.305 0 .628.037.97.11.344.07.665.198.964.387.301.19.548.46.74.81.192.349.289.801.289 1.358V103h-1.452v-1.044h-.06c-.096.192-.24.381-.432.567-.192.185-.44.339-.741.462-.302.123-.663.184-1.084.184Zm.323-1.193c.411 0 .763-.081 1.054-.244.295-.162.519-.374.672-.636.155-.265.233-.549.233-.85v-.985c-.053.053-.156.103-.308.15-.15.043-.32.08-.512.114-.192.03-.38.058-.562.084l-.457.06a3.685 3.685 0 0 0-.79.184c-.236.086-.425.21-.568.373-.139.159-.208.371-.208.636 0 .368.136.647.407.835.272.186.618.279 1.04.279Zm8.642 1.178c-.739 0-1.375-.167-1.909-.502a3.326 3.326 0 0 1-1.223-1.397c-.285-.593-.427-1.273-.427-2.038 0-.776.145-1.46.437-2.054a3.351 3.351 0 0 1 1.233-1.397c.53-.334 1.155-.502 1.874-.502.58 0 1.097.108 1.551.323.454.212.82.51 1.1.895.28.385.448.834.501 1.347h-1.446a1.735 1.735 0 0 0-.547-.924c-.282-.259-.66-.388-1.134-.388-.414 0-.777.11-1.089.328-.308.216-.548.524-.72.925-.173.398-.259.868-.259 1.412 0 .557.085 1.037.254 1.442.169.404.407.717.715.939.312.222.678.333 1.1.333.28 0 .536-.051.765-.154.232-.106.426-.257.582-.452.159-.196.27-.431.333-.706h1.446a2.81 2.81 0 0 1-.482 1.322 2.773 2.773 0 0 1-1.079.915c-.447.222-.973.333-1.576.333Zm8.292-7.79v1.193H91.78v-1.193h4.172Zm-3.053-1.83h1.486v7.224c0 .288.044.505.13.651.086.143.197.24.333.293.14.05.29.075.452.075a1.7 1.7 0 0 0 .314-.025c.089-.016.159-.03.208-.04l.269 1.228a2.927 2.927 0 0 1-.965.159 2.624 2.624 0 0 1-1.093-.208 1.88 1.88 0 0 1-.82-.677c-.21-.304-.314-.687-.314-1.148v-7.532ZM97.597 103v-7.636h1.487V103h-1.487Zm.75-8.815a.945.945 0 0 1-.665-.258.84.84 0 0 1-.274-.627.83.83 0 0 1 .273-.626.935.935 0 0 1 .667-.264c.258 0 .479.088.66.264a.824.824 0 0 1 .28.626c0 .242-.093.451-.28.627a.927.927 0 0 1-.66.258Zm5.953 8.969c-.716 0-1.341-.164-1.874-.492a3.315 3.315 0 0 1-1.243-1.377c-.295-.59-.443-1.28-.443-2.068 0-.793.148-1.485.443-2.079a3.31 3.31 0 0 1 1.243-1.382c.533-.328 1.158-.492 1.874-.492.716 0 1.341.164 1.874.492a3.31 3.31 0 0 1 1.243 1.382c.295.594.443 1.286.443 2.079 0 .788-.148 1.478-.443 2.068a3.315 3.315 0 0 1-1.243 1.377c-.533.328-1.158.492-1.874.492Zm.005-1.248c.464 0 .848-.122 1.153-.368.305-.245.531-.571.676-.979.15-.408.224-.857.224-1.347a3.86 3.86 0 0 0-.224-1.343 2.18 2.18 0 0 0-.676-.989c-.305-.249-.689-.373-1.153-.373-.467 0-.855.124-1.163.373a2.23 2.23 0 0 0-.682.99 3.98 3.98 0 0 0-.218 1.342c0 .49.073.939.218 1.347.15.408.377.734.682.979.308.246.696.368 1.163.368Zm6.7-3.44V103h-1.486v-7.636h1.427v1.242h.094c.176-.404.451-.729.825-.974.378-.245.854-.368 1.427-.368.521 0 .976.11 1.367.328.392.216.695.537.91.965.216.427.323.956.323 1.586V103h-1.486v-4.678c0-.554-.144-.986-.433-1.298-.288-.315-.684-.472-1.188-.472-.345 0-.651.074-.92.224a1.61 1.61 0 0 0-.631.656c-.152.285-.229.63-.229 1.034Zm12.603-1.238-1.347.239a1.601 1.601 0 0 0-.268-.493 1.334 1.334 0 0 0-.488-.382c-.205-.1-.462-.15-.77-.15-.421 0-.773.095-1.054.284-.282.186-.423.426-.423.72 0 .256.095.461.284.617.188.156.493.284.914.383l1.213.278c.703.163 1.227.413 1.571.751.345.338.517.777.517 1.318 0 .457-.132.865-.397 1.223-.262.354-.628.633-1.099.835-.467.202-1.009.303-1.626.303-.855 0-1.552-.182-2.093-.547-.54-.368-.871-.89-.994-1.566l1.437-.219c.089.375.273.658.552.851.278.189.641.283 1.088.283.488 0 .877-.101 1.169-.303.291-.206.437-.456.437-.751a.78.78 0 0 0-.268-.602c-.176-.162-.446-.285-.811-.367l-1.292-.284c-.713-.162-1.24-.42-1.581-.775-.338-.355-.507-.804-.507-1.348 0-.45.126-.845.378-1.183.251-.338.599-.602 1.044-.79.444-.193.952-.289 1.526-.289.825 0 1.475.18 1.949.537.474.355.787.83.939 1.427Z" fill="#313131"/><path d="M0 116h180v36H0v-36Z" fill="#F0F0F0"/><path d="M25.918 128.751a1.656 1.656 0 0 1 1.167-.483 1.647 1.647 0 0 1 1.524 2.281 1.65 1.65 0 0 1-.358.535l-7.875 7.875-3.208.875.875-3.208 7.875-7.875Z" stroke="#313131" stroke-width="1.4" stroke-linecap="round" stroke-linejoin="round"/><path d="M39.119 139v-10.182h6.383v1.323h-4.847v3.102h4.514v1.317h-4.514v3.118h4.907V139h-6.443Zm11.175.149a2.958 2.958 0 0 1-1.651-.472c-.48-.318-.858-.771-1.134-1.357-.271-.59-.407-1.298-.407-2.123 0-.826.137-1.532.412-2.118.279-.587.66-1.036 1.144-1.347a2.97 2.97 0 0 1 1.645-.468c.474 0 .856.08 1.144.239.292.156.517.338.676.547.163.209.288.392.378.552h.09v-3.784h1.486V139h-1.452v-1.188h-.124c-.09.162-.219.348-.388.557a2.153 2.153 0 0 1-.686.546c-.292.156-.67.234-1.133.234Zm.328-1.268c.427 0 .788-.112 1.083-.338.299-.228.524-.545.677-.949.155-.405.233-.875.233-1.412 0-.53-.076-.995-.229-1.392-.152-.398-.376-.708-.67-.93-.296-.222-.66-.333-1.094-.333-.448 0-.82.116-1.119.348a2.128 2.128 0 0 0-.676.95 3.87 3.87 0 0 0-.224 1.357c0 .51.076.969.229 1.377.152.408.378.731.676.969.302.236.673.353 1.114.353ZM56.199 139v-7.636h1.486V139h-1.486Zm.75-8.815a.946.946 0 0 1-.666-.258.842.842 0 0 1-.273-.627.83.83 0 0 1 .273-.626.933.933 0 0 1 .666-.263c.259 0 .48.087.661.263a.823.823 0 0 1 .279.626.835.835 0 0 1-.279.627.929.929 0 0 1-.66.258Zm6.3 1.179v1.193h-4.17v-1.193h4.17Zm-3.052-1.83h1.486v7.224c0 .288.044.505.13.651.086.143.197.24.333.293.139.05.29.075.452.075a1.7 1.7 0 0 0 .313-.025c.09-.016.16-.03.21-.04l.268 1.228a2.927 2.927 0 0 1-.965.159 2.624 2.624 0 0 1-1.094-.208 1.879 1.879 0 0 1-.82-.677c-.209-.304-.313-.687-.313-1.148v-7.532Z" fill="#313131"/><path d="M21.833 164.75H17.75v4.083h4.083v-4.083ZM28.251 164.75h-4.083v4.083h4.083v-4.083ZM28.251 171.166h-4.083v4.083h4.083v-4.083ZM21.833 171.166H17.75v4.083h4.083v-4.083Z" stroke="#313131" stroke-width="1.4" stroke-linecap="round" stroke-linejoin="round"/><path d="m40.008 164.818 2.834 8.293h.115l2.834-8.293h1.66L43.787 175h-1.775l-3.664-10.182h1.66ZM48.802 175v-7.636h1.486V175h-1.486Zm.75-8.815a.946.946 0 0 1-.666-.258.842.842 0 0 1-.273-.627.83.83 0 0 1 .273-.626.933.933 0 0 1 .667-.263c.258 0 .479.087.661.263a.823.823 0 0 1 .278.626.835.835 0 0 1-.278.627.929.929 0 0 1-.661.258Zm6.028 8.969c-.753 0-1.4-.161-1.944-.482a3.275 3.275 0 0 1-1.253-1.367c-.292-.59-.438-1.281-.438-2.073 0-.783.146-1.472.438-2.069a3.403 3.403 0 0 1 1.233-1.397c.53-.334 1.15-.502 1.86-.502.43 0 .848.071 1.252.214a3.04 3.04 0 0 1 1.089.671c.321.305.575.701.76 1.188.186.484.279 1.073.279 1.765v.527h-6.07v-1.113h4.613c0-.391-.08-.738-.239-1.039a1.8 1.8 0 0 0-.67-.721 1.872 1.872 0 0 0-1.005-.264c-.417 0-.782.103-1.094.308a2.078 2.078 0 0 0-.716.796 2.298 2.298 0 0 0-.248 1.059v.87c0 .51.09.944.268 1.302.183.358.436.632.761.821.325.185.704.278 1.138.278.282 0 .539-.04.771-.119a1.593 1.593 0 0 0 .99-.97l1.406.254a2.553 2.553 0 0 1-.606 1.089 2.95 2.95 0 0 1-1.089.721c-.434.169-.93.253-1.486.253Zm6.567-.154-2.247-7.636h1.536l1.496 5.608h.075l1.502-5.608h1.536l1.491 5.583h.075l1.486-5.583h1.537L68.39 175h-1.516l-1.551-5.513h-.114L63.658 175h-1.511Zm17.465-3.301h1.512l1.064 1.387.502.616 1.695 2.213h-1.571l-1.134-1.477-.387-.537-1.68-2.202Zm5.101-1.79c0 1.087-.199 2.022-.596 2.804-.398.779-.944 1.379-1.636 1.8-.69.417-1.473.626-2.352.626-.881 0-1.669-.209-2.361-.626-.69-.421-1.233-1.023-1.63-1.805-.399-.782-.598-1.715-.598-2.799 0-1.087.2-2.02.597-2.799.398-.782.941-1.382 1.63-1.8.694-.421 1.48-.631 2.362-.631.879 0 1.662.21 2.352.631.693.418 1.238 1.018 1.636 1.8.397.779.596 1.712.596 2.799Zm-1.521 0c0-.829-.134-1.526-.403-2.093-.265-.57-.63-1.001-1.094-1.293a2.841 2.841 0 0 0-1.566-.442 2.85 2.85 0 0 0-1.57.442c-.462.292-.826.723-1.094 1.293-.266.567-.398 1.264-.398 2.093s.132 1.528.398 2.098c.268.567.632.998 1.093 1.293.46.291.985.437 1.571.437a2.87 2.87 0 0 0 1.566-.437c.464-.295.829-.726 1.094-1.293.269-.57.403-1.269.403-2.098ZM86.628 175v-10.182h3.63c.788 0 1.443.136 1.963.408.524.272.915.648 1.174 1.128.258.478.388 1.03.388 1.656 0 .623-.131 1.172-.393 1.646-.259.47-.65.836-1.174 1.098-.52.262-1.174.393-1.963.393h-2.75v-1.322h2.61c.498 0 .902-.072 1.213-.214.315-.143.546-.35.692-.622.145-.271.218-.598.218-.979 0-.385-.074-.718-.223-.999a1.444 1.444 0 0 0-.691-.647c-.312-.152-.721-.228-1.228-.228h-1.93V175h-1.536Zm5.027-4.594L94.17 175h-1.75l-2.466-4.594h1.7Zm8.377-.353v1.288h-4.514v-1.288h4.514Zm5.198 5.101c-.74 0-1.376-.167-1.91-.502a3.334 3.334 0 0 1-1.223-1.397c-.285-.593-.427-1.273-.427-2.038 0-.776.146-1.46.437-2.054a3.36 3.36 0 0 1 1.233-1.397c.531-.334 1.155-.502 1.875-.502.58 0 1.097.108 1.551.323a2.714 2.714 0 0 1 1.601 2.243h-1.447a1.735 1.735 0 0 0-.547-.925c-.282-.259-.66-.388-1.133-.388-.415 0-.778.109-1.089.328-.308.216-.549.524-.721.925-.172.398-.259.868-.259 1.412 0 .557.085 1.037.254 1.442.169.404.408.717.716.939.311.222.678.333 1.099.333.281 0 .536-.051.765-.154a1.57 1.57 0 0 0 .582-.452c.159-.196.27-.431.333-.706h1.447a2.804 2.804 0 0 1-.483 1.322 2.773 2.773 0 0 1-1.078.915c-.448.222-.973.333-1.576.333Zm7.943 0c-.716 0-1.341-.164-1.874-.492a3.315 3.315 0 0 1-1.243-1.377c-.295-.59-.443-1.28-.443-2.068 0-.793.148-1.485.443-2.079a3.317 3.317 0 0 1 1.243-1.382c.533-.328 1.158-.492 1.874-.492.716 0 1.341.164 1.874.492.534.329.948.789 1.243 1.382.295.594.443 1.286.443 2.079 0 .788-.148 1.478-.443 2.068a3.315 3.315 0 0 1-1.243 1.377c-.533.328-1.158.492-1.874.492Zm.005-1.248c.464 0 .848-.122 1.153-.368.305-.245.531-.571.676-.979.15-.408.224-.857.224-1.347 0-.488-.074-.935-.224-1.343a2.18 2.18 0 0 0-.676-.989c-.305-.249-.689-.373-1.153-.373-.467 0-.855.124-1.163.373a2.23 2.23 0 0 0-.682.989 3.982 3.982 0 0 0-.218 1.343c0 .49.073.939.218 1.347.15.408.377.734.682.979.308.246.696.368 1.163.368Zm8.073 1.243a2.958 2.958 0 0 1-1.651-.472c-.481-.318-.858-.771-1.134-1.357-.271-.59-.407-1.298-.407-2.123 0-.826.137-1.532.412-2.118.279-.587.66-1.036 1.144-1.347a2.97 2.97 0 0 1 1.645-.468c.474 0 .856.08 1.144.239.292.156.517.338.676.547.162.209.288.392.378.552h.089v-3.784h1.487V175h-1.452v-1.188h-.124a4.02 4.02 0 0 1-.388.557 2.152 2.152 0 0 1-.686.546c-.292.156-.669.234-1.133.234Zm.328-1.268c.427 0 .788-.112 1.083-.338.299-.228.524-.545.677-.949.155-.405.233-.875.233-1.412 0-.53-.076-.995-.228-1.392-.153-.398-.377-.708-.672-.93-.295-.222-.659-.333-1.093-.333-.448 0-.821.116-1.119.348a2.127 2.127 0 0 0-.676.95 3.874 3.874 0 0 0-.224 1.357c0 .51.076.969.229 1.377.152.408.378.731.676.969.302.236.673.353 1.114.353Zm8.868 1.273c-.753 0-1.401-.161-1.944-.482a3.278 3.278 0 0 1-1.253-1.367c-.292-.59-.438-1.281-.438-2.073 0-.783.146-1.472.438-2.069a3.403 3.403 0 0 1 1.233-1.397c.53-.334 1.15-.502 1.859-.502.431 0 .849.071 1.253.214a3.04 3.04 0 0 1 1.089.671c.321.305.575.701.761 1.188.185.484.278 1.073.278 1.765v.527h-6.07v-1.113h4.613c0-.391-.079-.738-.238-1.039a1.801 1.801 0 0 0-.671-.721 1.876 1.876 0 0 0-1.005-.264c-.417 0-.782.103-1.093.308a2.071 2.071 0 0 0-.716.796 2.294 2.294 0 0 0-.249 1.059v.87c0 .51.09.944.268 1.302.183.358.436.632.761.821.325.185.704.278 1.139.278.281 0 .538-.04.77-.119.232-.083.433-.206.602-.368a1.6 1.6 0 0 0 .388-.602l1.407.254a2.554 2.554 0 0 1-.607 1.089 2.945 2.945 0 0 1-1.089.721c-.434.169-.929.253-1.486.253Z" fill="#313131"/><rect x=".5" y=".5" width="179" height="195" rx="11.5" stroke="#F0F0F0"/></svg>