<svg width="288" height="97" fill="none" xmlns="http://www.w3.org/2000/svg"><rect width="288" height="96.585" rx="14.049" fill="url(#a)"/><mask id="b" style="mask-type:alpha" maskUnits="userSpaceOnUse" x="0" y="0" width="288" height="97"><rect width="288" height="96.585" rx="14.049" fill="#FFF3F9"/></mask><g mask="url(#b)"><path d="M71.344 51.703C41.088 55.083 8.117 96.585 8.117 96.585h279.298V7.902s-26.941 34.76-51.681 36.23c-16.877 1.004-24.331-13.305-41.235-12.977-28.58.554-32.086 37.287-60.478 40.556-25.559 2.943-37.107-22.864-62.677-20.008Z" fill="url(#c)"/></g><path d="M19.298 27.56h-1.432l3.217-8.94h1.559l3.217 8.94h-1.432L21.9 20.245h-.07l-2.532 7.317Zm.24-3.5h4.645v1.135h-4.645V24.06Zm12.403-3.205-2.431 6.706h-1.397l-2.436-6.706h1.401l1.698 5.16h.07l1.694-5.16h1.4Zm1.227 6.706v-6.706h1.261v1.066h.07a1.62 1.62 0 0 1 .646-.852 1.85 1.85 0 0 1 1.056-.314 5.61 5.61 0 0 1 .555.03v1.25a2.322 2.322 0 0 0-.28-.049 2.663 2.663 0 0 0-.401-.03c-.309 0-.584.065-.825.196a1.46 1.46 0 0 0-.777 1.314v4.095h-1.305Zm4.81.082a.847.847 0 0 1-.617-.253.845.845 0 0 1-.257-.62c0-.238.086-.442.258-.61a.84.84 0 0 1 .615-.258.84.84 0 0 1 .616.257.826.826 0 0 1 .257.611c0 .16-.04.308-.122.441a.903.903 0 0 1-.314.315.832.832 0 0 1-.437.117Zm5.834-.082v-8.94H47c.693 0 1.267.119 1.724.357.46.239.803.57 1.03.991.227.42.341.904.341 1.454 0 .547-.115 1.029-.345 1.445a2.32 2.32 0 0 1-1.03.965c-.457.23-1.032.344-1.724.344H44.58v-1.16h2.291c.437 0 .792-.063 1.066-.188.276-.126.478-.308.606-.546.128-.239.192-.525.192-.86 0-.338-.065-.63-.196-.877a1.269 1.269 0 0 0-.607-.568c-.273-.134-.633-.2-1.078-.2h-1.694v7.783h-1.349Zm4.414-4.034 2.209 4.034h-1.537l-2.165-4.034h1.493Zm5.356 4.182c-.425 0-.81-.079-1.153-.236a1.941 1.941 0 0 1-.816-.694c-.198-.302-.297-.674-.297-1.113 0-.378.073-.69.219-.934a1.61 1.61 0 0 1 .589-.58 3.08 3.08 0 0 1 .83-.324c.305-.072.616-.128.934-.166l.977-.113c.25-.032.432-.083.546-.153.114-.07.17-.183.17-.34v-.031c0-.381-.108-.677-.323-.886-.212-.21-.53-.314-.952-.314-.439 0-.785.097-1.038.292-.25.192-.424.406-.52.642l-1.226-.28a2.36 2.36 0 0 1 .637-.986c.282-.253.607-.437.973-.55a3.798 3.798 0 0 1 1.157-.175c.268 0 .552.032.851.096.303.061.585.175.847.34.265.167.482.404.65.712.17.306.254.703.254 1.192v4.453h-1.275v-.917h-.052c-.085.169-.211.335-.38.498a2.02 2.02 0 0 1-.65.405 2.524 2.524 0 0 1-.952.162Zm.284-1.048c.36 0 .669-.071.925-.214.26-.142.456-.328.59-.558.136-.233.205-.482.205-.747v-.864c-.047.046-.137.09-.271.13-.131.039-.28.072-.45.101-.169.026-.333.051-.493.074-.16.02-.294.038-.402.053a3.234 3.234 0 0 0-.694.161 1.192 1.192 0 0 0-.497.328c-.123.14-.184.326-.184.558 0 .323.12.568.358.734.239.163.543.244.913.244Zm7.893-5.806v1.048h-3.662v-1.048h3.662Zm-2.68-1.606h1.305v6.343c0 .253.038.444.114.572.075.125.173.21.292.257.122.044.255.066.397.066.105 0 .197-.008.275-.022l.184-.035.235 1.078a2.564 2.564 0 0 1-.847.14 2.298 2.298 0 0 1-.96-.183 1.647 1.647 0 0 1-.72-.594c-.183-.268-.275-.604-.275-1.009V19.25Zm4.124 8.312v-6.706h1.305v6.706h-1.305Zm.66-7.74a.83.83 0 0 1-.586-.227.738.738 0 0 1-.24-.55.73.73 0 0 1 .24-.55.821.821 0 0 1 .585-.232c.227 0 .42.078.58.232a.723.723 0 0 1 .245.55.732.732 0 0 1-.244.55.815.815 0 0 1-.58.227Zm3.706 3.758v3.982h-1.305v-6.706h1.253v1.092h.083c.154-.355.396-.64.725-.856.331-.215.749-.323 1.252-.323.457 0 .858.096 1.2.288.344.19.61.472.8.847.189.376.284.84.284 1.393v4.265h-1.306v-4.108c0-.486-.126-.866-.38-1.14-.253-.276-.6-.414-1.043-.414-.303 0-.572.065-.807.196a1.413 1.413 0 0 0-.555.576c-.134.25-.2.553-.2.908Zm8.853 6.636c-.532 0-.99-.07-1.375-.21a2.663 2.663 0 0 1-.934-.554 2.328 2.328 0 0 1-.541-.756l1.122-.462c.078.128.183.263.314.406.134.145.314.269.541.37.23.103.525.154.886.154.495 0 .904-.121 1.227-.363.323-.238.484-.62.484-1.143v-1.319h-.082a2.977 2.977 0 0 1-.34.476 1.842 1.842 0 0 1-.603.454c-.256.128-.59.192-1 .192-.53 0-1.007-.123-1.432-.37-.422-.251-.756-.62-1.004-1.105-.244-.49-.367-1.09-.367-1.803 0-.713.121-1.324.363-1.834.244-.509.579-.899 1.004-1.17a2.61 2.61 0 0 1 1.445-.41c.416 0 .752.07 1.008.21.256.136.456.296.598.48.146.183.258.345.336.484h.096v-1.087h1.28v6.854c0 .576-.134 1.05-.402 1.419-.268.37-.63.643-1.087.82a4.192 4.192 0 0 1-1.537.267Zm-.013-3.837c.376 0 .693-.088.952-.262.262-.178.46-.431.593-.76.137-.332.206-.729.206-1.192 0-.45-.067-.848-.201-1.191a1.77 1.77 0 0 0-.59-.804c-.258-.195-.579-.292-.96-.292-.393 0-.72.102-.982.306-.262.2-.46.474-.594.82a3.26 3.26 0 0 0-.196 1.161c0 .44.067.825.2 1.157.135.332.332.59.594.777.265.186.591.28.978.28Z" fill="#C2C6DA"/><path d="M28.91 73.959c-1.712 0-3.242-.296-4.59-.886-1.338-.59-2.398-1.41-3.18-2.457-.773-1.056-1.189-2.278-1.247-3.667h3.916c.05.757.304 1.414.761 1.97.466.55 1.073.974 1.82 1.273.75.3 1.58.449 2.495.449 1.006 0 1.896-.175 2.67-.524.781-.35 1.392-.836 1.833-1.46.44-.631.66-1.359.66-2.182 0-.856-.22-1.609-.66-2.257-.432-.657-1.069-1.173-1.908-1.547-.832-.374-1.838-.561-3.019-.561h-2.157v-3.143h2.157c.948 0 1.78-.17 2.495-.511.723-.341 1.289-.815 1.696-1.422.407-.616.611-1.335.611-2.158 0-.79-.179-1.476-.536-2.058a3.602 3.602 0 0 0-1.497-1.384c-.64-.333-1.397-.5-2.27-.5-.831 0-1.609.155-2.332.462-.715.3-1.297.732-1.746 1.297-.45.557-.69 1.227-.724 2.008H20.43c.042-1.38.45-2.594 1.223-3.642.781-1.047 1.812-1.866 3.093-2.457 1.28-.59 2.702-.885 4.265-.885 1.638 0 3.052.32 4.24.96 1.198.632 2.121 1.476 2.77 2.532a6.355 6.355 0 0 1 .972 3.467c.009 1.43-.39 2.645-1.197 3.642-.798.998-1.863 1.668-3.193 2.008v.2c1.696.258 3.01.931 3.941 2.02.94 1.09 1.406 2.44 1.397 4.054.009 1.405-.382 2.665-1.172 3.78-.782 1.113-1.85 1.99-3.206 2.63-1.355.633-2.906.949-4.652.949Zm15.497-.113a2.421 2.421 0 0 1-1.758-.723 2.415 2.415 0 0 1-.736-1.771c0-.682.245-1.264.736-1.746a2.4 2.4 0 0 1 1.758-.736 2.4 2.4 0 0 1 1.759.736 2.36 2.36 0 0 1 .736 1.746c0 .457-.117.877-.35 1.26a2.58 2.58 0 0 1-.898.898c-.374.224-.79.336-1.247.336Zm15.432.113a10.3 10.3 0 0 1-3.368-.624c-1.098-.4-2.095-1.064-2.993-1.996-.898-.93-1.618-2.182-2.158-3.754-.532-1.571-.798-3.534-.798-5.887 0-2.228.22-4.207.66-5.937.45-1.729 1.094-3.188 1.934-4.377.84-1.198 1.854-2.108 3.043-2.732 1.19-.623 2.524-.935 4.004-.935 1.521 0 2.873.3 4.053.898a7.618 7.618 0 0 1 2.869 2.482c.74 1.056 1.21 2.257 1.41 3.604H64.69c-.258-1.064-.769-1.933-1.534-2.606-.765-.674-1.763-1.01-2.993-1.01-1.871 0-3.33.814-4.378 2.444-1.04 1.63-1.563 3.895-1.571 6.797h.187a6.928 6.928 0 0 1 1.621-1.846 7.245 7.245 0 0 1 2.17-1.184 7.636 7.636 0 0 1 2.544-.424c1.48 0 2.82.361 4.017 1.085 1.205.715 2.166 1.704 2.88 2.968.716 1.264 1.073 2.71 1.073 4.34s-.37 3.106-1.11 4.428a8.139 8.139 0 0 1-3.093 3.143c-1.33.765-2.885 1.14-4.664 1.123Zm-.013-3.243c.981 0 1.858-.241 2.632-.724a5.22 5.22 0 0 0 1.833-1.945c.45-.815.674-1.726.674-2.732 0-.98-.22-1.875-.661-2.681a4.992 4.992 0 0 0-1.797-1.921c-.756-.474-1.62-.71-2.594-.71-.74 0-1.426.14-2.058.423A5.23 5.23 0 0 0 56.21 61.6a5.703 5.703 0 0 0-1.123 1.72c-.265.641-.399 1.319-.399 2.034a5.42 5.42 0 0 0 2.495 4.627c.782.49 1.663.736 2.644.736Zm22.341 3.243a10.3 10.3 0 0 1-3.368-.624c-1.097-.4-2.095-1.064-2.993-1.996-.898-.93-1.617-2.182-2.158-3.754-.532-1.571-.798-3.534-.798-5.887 0-2.228.22-4.207.661-5.937.45-1.729 1.094-3.188 1.933-4.377.84-1.198 1.855-2.108 3.044-2.732 1.189-.623 2.523-.935 4.003-.935 1.522 0 2.873.3 4.054.898a7.618 7.618 0 0 1 2.868 2.482c.74 1.056 1.21 2.257 1.41 3.604h-3.804c-.258-1.064-.77-1.933-1.534-2.606-.765-.674-1.763-1.01-2.994-1.01-1.87 0-3.33.814-4.377 2.444-1.04 1.63-1.564 3.895-1.572 6.797h.187a6.93 6.93 0 0 1 1.621-1.846 7.245 7.245 0 0 1 2.17-1.184 7.636 7.636 0 0 1 2.545-.424c1.48 0 2.819.361 4.016 1.085 1.206.715 2.166 1.704 2.881 2.968.715 1.264 1.073 2.71 1.073 4.34s-.37 3.106-1.11 4.428a8.139 8.139 0 0 1-3.093 3.143c-1.33.765-2.886 1.14-4.665 1.123Zm-.013-3.243c.982 0 1.859-.241 2.632-.724a5.22 5.22 0 0 0 1.834-1.945c.449-.815.673-1.726.673-2.732 0-.98-.22-1.875-.66-2.681a4.992 4.992 0 0 0-1.797-1.921c-.757-.474-1.621-.71-2.594-.71-.74 0-1.426.14-2.058.423a5.23 5.23 0 0 0-1.647 1.173 5.703 5.703 0 0 0-1.122 1.72c-.266.641-.4 1.319-.4 2.034 0 .956.221 1.842.662 2.656a5.42 5.42 0 0 0 1.833 1.97c.782.492 1.663.737 2.644.737Z" fill="#313131"/><path d="M230.46 49.448a1.095 1.095 0 0 0-.494-.824c-.289-.197-.654-.295-1.093-.295-.314 0-.586.05-.815.15-.23.097-.408.232-.535.404a.952.952 0 0 0-.187.58c0 .182.042.339.127.471.087.132.201.243.34.333.142.087.295.161.457.22.162.058.318.106.467.143l.749.195c.244.06.495.14.752.243.257.102.495.237.714.404.22.167.397.374.532.621.137.247.206.543.206.887 0 .434-.113.82-.337 1.156-.222.337-.545.602-.969.797-.422.195-.932.292-1.531.292-.573 0-1.07-.091-1.489-.273a2.293 2.293 0 0 1-.984-.775 2.246 2.246 0 0 1-.393-1.197h1.16c.023.277.112.508.27.692.159.182.363.318.609.408.25.087.523.13.82.13.327 0 .617-.05.872-.153.257-.104.459-.249.606-.434a1.03 1.03 0 0 0 .221-.654.802.802 0 0 0-.195-.558 1.43 1.43 0 0 0-.52-.36 5.103 5.103 0 0 0-.737-.25l-.906-.247c-.613-.167-1.1-.413-1.459-.737-.357-.324-.535-.753-.535-1.287 0-.441.12-.827.359-1.156.24-.33.564-.585.973-.767a3.332 3.332 0 0 1 1.385-.277c.518 0 .976.091 1.373.273.399.182.713.433.943.752a1.9 1.9 0 0 1 .359 1.093h-1.115Zm4.184 5.777c-.364 0-.694-.068-.988-.202a1.672 1.672 0 0 1-.7-.595c-.169-.26-.254-.578-.254-.954 0-.324.062-.591.187-.801.125-.21.293-.375.505-.498a2.64 2.64 0 0 1 .711-.276c.262-.063.529-.11.801-.143l.838-.097c.215-.027.37-.071.468-.13.097-.06.146-.158.146-.293v-.026c0-.327-.093-.58-.277-.76-.182-.18-.454-.269-.816-.269-.377 0-.673.084-.89.25a1.345 1.345 0 0 0-.446.55l-1.051-.239a2.03 2.03 0 0 1 .546-.845c.242-.217.52-.374.835-.472.314-.1.644-.15.991-.15.23 0 .473.028.73.083.259.052.501.15.726.292.227.142.412.345.557.61.145.262.217.602.217 1.021v3.817h-1.092v-.786h-.045a1.601 1.601 0 0 1-.326.427c-.145.14-.33.255-.557.347a2.164 2.164 0 0 1-.816.139Zm.243-.898c.309 0 .574-.061.793-.183.222-.123.391-.282.506-.48.117-.199.175-.412.175-.64v-.74a.583.583 0 0 1-.232.112c-.112.033-.24.061-.385.086-.145.023-.286.044-.423.064a51.8 51.8 0 0 0-.344.045 2.781 2.781 0 0 0-.595.138 1.028 1.028 0 0 0-.427.28.705.705 0 0 0-.157.48c0 .277.103.486.307.628.205.14.465.21.782.21Zm6.766-4.977v.898h-3.139v-.898h3.139Zm-2.297-1.377h1.118v5.437c0 .217.033.38.098.49.065.108.148.181.25.221.105.037.219.056.341.056.09 0 .168-.006.236-.019l.157-.03.202.925a2.193 2.193 0 0 1-.726.12 1.968 1.968 0 0 1-.823-.158c-.255-.11-.46-.279-.618-.508-.157-.23-.235-.518-.235-.865v-5.669Zm3.535 7.125V49.35h1.118v5.748h-1.118Zm.565-6.634a.712.712 0 0 1-.502-.195.634.634 0 0 1-.206-.471c0-.185.069-.342.206-.472a.705.705 0 0 1 .502-.198.69.69 0 0 1 .497.198c.14.13.21.287.21.472 0 .182-.07.339-.21.471a.697.697 0 0 1-.497.195Zm6.365 2.29-1.014.18a1.199 1.199 0 0 0-.202-.371 1 1 0 0 0-.367-.288 1.327 1.327 0 0 0-.58-.113c-.316 0-.581.072-.793.214-.212.14-.318.32-.318.542 0 .192.071.347.213.464.143.117.372.213.689.288l.913.21c.529.122.923.31 1.182.565.26.254.389.585.389.991 0 .345-.099.651-.299.92a1.962 1.962 0 0 1-.827.63c-.352.152-.759.228-1.223.228-.644 0-1.169-.137-1.576-.412-.406-.277-.656-.67-.748-1.179l1.081-.164c.068.282.206.495.416.64.209.142.482.213.819.213.367 0 .66-.076.879-.228.22-.155.33-.343.33-.565a.59.59 0 0 0-.202-.453c-.133-.122-.336-.215-.61-.277l-.973-.213c-.536-.123-.933-.317-1.19-.584-.254-.267-.382-.605-.382-1.014 0-.34.095-.636.285-.89.189-.255.451-.453.786-.595a2.865 2.865 0 0 1 1.148-.217c.621 0 1.11.134 1.467.404.357.267.592.625.707 1.074Zm4.078-1.404v.898h-3.248v-.898h3.248Zm-2.358 5.748v-6.414c0-.359.079-.657.236-.894.157-.24.366-.418.625-.535.259-.12.541-.18.846-.18.224 0 .416.02.576.057.159.035.278.067.355.097l-.262.905a4.869 4.869 0 0 0-.202-.052 1.146 1.146 0 0 0-.299-.034c-.272 0-.466.068-.584.202-.114.135-.172.33-.172.584v6.264h-1.119Zm3.512 0V49.35h1.119v5.748h-1.119Zm.565-6.634a.708.708 0 0 1-.501-.195.63.63 0 0 1-.206-.471c0-.185.068-.342.206-.472a.701.701 0 0 1 .501-.198c.195 0 .36.066.498.198.139.13.209.287.209.472a.63.63 0 0 1-.209.471.7.7 0 0 1-.498.195Zm4.536 6.75c-.566 0-1.054-.121-1.463-.363a2.46 2.46 0 0 1-.943-1.03c-.22-.443-.329-.963-.329-1.56 0-.588.109-1.107.329-1.556.222-.45.531-.8.928-1.051.399-.252.865-.378 1.399-.378.325 0 .639.053.943.16.304.108.578.276.82.506.242.23.432.527.572.894.14.364.21.807.21 1.328v.397h-4.569v-.838h3.472c0-.295-.06-.555-.179-.782a1.36 1.36 0 0 0-1.261-.741c-.315 0-.589.077-.823.232a1.555 1.555 0 0 0-.539.598c-.125.245-.187.51-.187.797v.655c0 .384.067.711.202.98.137.27.328.476.572.618.245.14.53.21.857.21.212 0 .405-.03.58-.09a1.25 1.25 0 0 0 .453-.277c.127-.123.224-.273.292-.453l1.059.19a1.915 1.915 0 0 1-.457.82c-.217.232-.49.413-.819.543-.327.127-.7.19-1.119.19Zm5.858-.004c-.464 0-.878-.119-1.242-.356-.362-.239-.646-.58-.853-1.021-.205-.444-.307-.977-.307-1.598 0-.62.104-1.152.311-1.594.209-.441.496-.78.86-1.014a2.24 2.24 0 0 1 1.239-.351c.357 0 .643.06.86.18.22.116.39.254.509.41.123.158.217.296.285.416h.067v-2.847h1.119v7.663h-1.093v-.895h-.093a3.042 3.042 0 0 1-.292.42 1.622 1.622 0 0 1-.517.411c-.219.117-.503.176-.853.176Zm.247-.954c.322 0 .594-.085.816-.255.225-.172.394-.41.509-.714.117-.305.176-.659.176-1.063 0-.4-.058-.748-.172-1.048a1.535 1.535 0 0 0-.506-.7c-.222-.166-.496-.25-.823-.25-.336 0-.617.087-.842.262a1.597 1.597 0 0 0-.508.715 2.897 2.897 0 0 0-.169 1.021c0 .384.058.73.172 1.037.115.306.285.55.509.73.227.176.507.265.838.265ZM230.982 75.784c-.893 0-1.683-.154-2.369-.462-.682-.307-1.216-.731-1.603-1.272a3.06 3.06 0 0 1-.574-1.846 3.249 3.249 0 0 1 1.26-2.631 2.876 2.876 0 0 1 1.31-.586v-.075a2.574 2.574 0 0 1-1.528-1.023 2.99 2.99 0 0 1-.568-1.82 2.99 2.99 0 0 1 .518-1.747c.353-.516.838-.92 1.453-1.216.615-.295 1.316-.443 2.101-.443.778 0 1.472.15 2.083.45.616.294 1.1.7 1.453 1.215.354.512.532 1.091.537 1.74a3.038 3.038 0 0 1-.587 1.821 2.595 2.595 0 0 1-1.509 1.023v.075a2.79 2.79 0 0 1 1.291.586c.387.303.694.684.923 1.141.233.453.351.95.356 1.49-.005.69-.2 1.306-.587 1.846-.386.54-.923.965-1.609 1.273-.681.307-1.465.461-2.351.461Zm0-1.578c.528 0 .986-.087 1.372-.262a2.12 2.12 0 0 0 .898-.742c.212-.32.32-.694.325-1.122a2.107 2.107 0 0 0-.35-1.179c-.224-.34-.53-.609-.916-.804a2.909 2.909 0 0 0-1.329-.293c-.503 0-.95.097-1.34.293a2.318 2.318 0 0 0-.923.804c-.225.341-.335.734-.331 1.179-.004.428.098.802.306 1.122.212.316.513.564.904.742.391.175.852.262 1.384.262Zm0-5.943c.424 0 .801-.085 1.129-.256a1.93 1.93 0 0 0 .773-.71c.192-.304.289-.66.294-1.067-.005-.399-.1-.748-.287-1.047-.183-.3-.439-.53-.767-.693a2.497 2.497 0 0 0-1.142-.25c-.44 0-.827.084-1.16.25a1.826 1.826 0 0 0-.767.693c-.182.299-.272.648-.268 1.047-.004.408.088.763.275 1.067.187.303.445.54.773.71.333.171.715.256 1.147.256Zm11.227 7.521c-.856 0-1.621-.148-2.295-.443-.669-.295-1.199-.704-1.59-1.228a3.258 3.258 0 0 1-.624-1.834h1.958c.025.379.152.707.381.986.233.274.536.486.91.636.374.15.79.224 1.248.224.503 0 .947-.087 1.334-.262.391-.174.696-.418.917-.73.22-.315.33-.68.33-1.09 0-.429-.11-.805-.33-1.13-.216-.328-.534-.586-.954-.773-.416-.187-.919-.28-1.509-.28h-1.079v-1.572h1.079c.473 0 .889-.085 1.247-.255a2.05 2.05 0 0 0 .848-.712c.204-.307.305-.667.305-1.078 0-.395-.089-.738-.268-1.03a1.798 1.798 0 0 0-.748-.691c-.32-.167-.699-.25-1.135-.25-.416 0-.804.077-1.166.23-.358.15-.649.367-.873.65a1.667 1.667 0 0 0-.362 1.003h-1.865a3.15 3.15 0 0 1 .612-1.82c.39-.524.906-.934 1.546-1.23.64-.294 1.351-.442 2.133-.442.819 0 1.526.16 2.12.48.599.316 1.06.738 1.385 1.266.328.528.49 1.106.486 1.734.004.715-.195 1.322-.599 1.82-.399.5-.931.834-1.596 1.005v.1c.848.129 1.505.465 1.971 1.01.469.544.702 1.22.698 2.027a3.155 3.155 0 0 1-.586 1.89c-.391.556-.925.995-1.603 1.315-.678.316-1.453.474-2.326.474Zm13.539-2.57v-.673c0-.482.099-.923.299-1.322.204-.403.499-.725.886-.966.39-.246.862-.368 1.415-.368.566 0 1.04.12 1.422.361.382.241.671.564.867.967.199.403.299.846.299 1.328v.674c0 .482-.1.925-.299 1.328-.2.4-.493.721-.879.967-.383.24-.853.361-1.41.361-.561 0-1.035-.12-1.422-.361a2.405 2.405 0 0 1-.879-.967 2.947 2.947 0 0 1-.299-1.328Zm1.453-.673v.674c0 .357.085.681.255.972.171.292.468.437.892.437.42 0 .713-.145.879-.436.167-.291.25-.616.25-.973v-.674c0-.357-.081-.682-.243-.973-.158-.29-.453-.436-.886-.436-.416 0-.711.145-.885.436a1.85 1.85 0 0 0-.262.973Zm-7.877-6.635v-.674c0-.482.1-.925.3-1.328.204-.403.499-.725.885-.967.391-.24.863-.361 1.416-.361.565 0 1.039.12 1.422.361.382.242.671.564.867.967.195.403.293.846.293 1.328v.674c0 .482-.1.925-.3 1.328-.195.4-.486.722-.873.967-.382.241-.852.362-1.409.362-.565 0-1.042-.121-1.428-.362a2.405 2.405 0 0 1-.873-.967c-.2-.403-.3-.846-.3-1.328Zm1.46-.674v.674c0 .357.083.682.249.973.171.29.468.436.892.436.416 0 .707-.145.873-.436.17-.291.256-.616.256-.973v-.674c0-.357-.081-.681-.244-.972-.162-.291-.457-.437-.885-.437-.416 0-.711.146-.886.437-.17.29-.255.615-.255.972Zm-.867 10.377 8.78-12.771h1.491l-8.781 12.771h-1.49Z" fill="#C2C6DA"/><defs><linearGradient id="a" x1="144" y1="0" x2="61.866" y2="134.394" gradientUnits="userSpaceOnUse"><stop stop-color="#F8FBFF"/><stop offset="1" stop-color="#F9F7FF"/></linearGradient><linearGradient id="c" x1="147.766" y1="7.902" x2="74.296" y2="134.878" gradientUnits="userSpaceOnUse"><stop stop-color="#EEF6FF"/><stop offset="1" stop-color="#F7F4FF"/></linearGradient></defs></svg>