<svg width="328" height="110" fill="none" xmlns="http://www.w3.org/2000/svg"><rect width="328" height="110" rx="16" fill="url(#a)"/><mask id="b" style="mask-type:alpha" maskUnits="userSpaceOnUse" x="0" y="0" width="328" height="110"><rect width="328" height="110" rx="16" fill="#FFF3F9"/></mask><g mask="url(#b)"><path d="M81.25 58.884C46.793 62.734 9.243 110 9.243 110h318.09V9s-30.684 39.587-58.859 41.262c-19.221 1.143-27.71-15.154-46.962-14.78-32.55.631-36.543 42.466-68.878 46.189-29.109 3.351-42.262-26.04-71.382-22.787Z" fill="url(#c)"/></g><path d="M20.616 23.14v-1.322h7.88v1.323H25.32V32h-1.532v-8.86h-3.172Zm11.612 9.014c-.716 0-1.341-.164-1.875-.492a3.319 3.319 0 0 1-1.243-1.377c-.294-.59-.442-1.28-.442-2.068 0-.793.148-1.485.442-2.078a3.312 3.312 0 0 1 1.243-1.383c.534-.328 1.159-.492 1.875-.492.715 0 1.34.164 1.874.492.534.328.948.79 1.243 1.383.295.593.442 1.285.442 2.078 0 .788-.147 1.478-.442 2.068a3.319 3.319 0 0 1-1.243 1.377c-.534.328-1.158.492-1.874.492Zm.005-1.248c.464 0 .848-.122 1.153-.368.305-.245.53-.571.676-.98.15-.407.224-.856.224-1.346 0-.488-.075-.935-.224-1.343a2.187 2.187 0 0 0-.676-.989c-.305-.249-.69-.373-1.153-.373-.468 0-.855.124-1.164.373a2.222 2.222 0 0 0-.68.99 3.96 3.96 0 0 0-.22 1.342c0 .49.073.94.22 1.347.148.408.375.734.68.98.309.245.696.367 1.164.367Zm8.778-6.542v1.193H36.84v-1.193h4.171Zm-3.052-1.83h1.486v7.224c0 .288.043.505.13.651.086.143.197.24.332.293.14.05.29.075.453.075.12 0 .224-.008.313-.025.09-.016.16-.03.209-.04l.268 1.228a2.499 2.499 0 0 1-.367.1c-.16.036-.358.056-.597.06a2.615 2.615 0 0 1-1.094-.21 1.876 1.876 0 0 1-.82-.675c-.209-.305-.313-.688-.313-1.149v-7.532Zm6.919 9.635a3.12 3.12 0 0 1-1.313-.268 2.21 2.21 0 0 1-.93-.79c-.225-.346-.337-.768-.337-1.269 0-.43.082-.785.248-1.064.166-.278.39-.498.671-.66.282-.163.597-.286.945-.369a9.385 9.385 0 0 1 1.064-.189l1.114-.129c.284-.036.492-.094.62-.174.13-.08.195-.209.195-.388v-.035c0-.434-.123-.77-.368-1.009-.242-.238-.603-.358-1.084-.358-.5 0-.895.111-1.183.333-.285.22-.482.463-.592.731l-1.397-.318c.166-.464.408-.838.726-1.123a2.943 2.943 0 0 1 1.109-.627 4.327 4.327 0 0 1 1.317-.199c.305 0 .628.037.97.11.344.07.666.198.964.387.302.19.549.46.741.81.192.349.288.801.288 1.358V32h-1.451v-1.044h-.06c-.096.192-.24.381-.433.567-.192.185-.439.34-.74.462-.302.123-.663.184-1.084.184Zm.323-1.193c.411 0 .762-.081 1.054-.244.295-.162.519-.374.671-.636a1.65 1.65 0 0 0 .234-.85v-.985c-.053.053-.156.103-.308.15a4.81 4.81 0 0 1-.512.114c-.193.03-.38.058-.562.084l-.458.06a3.688 3.688 0 0 0-.79.184c-.236.086-.424.21-.567.373-.14.159-.209.371-.209.636 0 .368.136.647.408.835.272.186.618.279 1.039.279Zm6.912-9.158V32h-1.487V21.818h1.487Zm9.27 2.546v1.193H57.21v-1.193h4.171Zm-3.053-1.83h1.486v7.224c0 .288.043.505.13.651.086.143.197.24.333.293.139.05.29.075.452.075.12 0 .224-.008.313-.025.09-.016.16-.03.209-.04l.269 1.228a2.499 2.499 0 0 1-.368.1c-.16.036-.358.056-.597.06a2.615 2.615 0 0 1-1.094-.21 1.876 1.876 0 0 1-.82-.675c-.209-.305-.313-.688-.313-1.149v-7.532ZM63.027 32v-7.636h1.486V32h-1.486Zm.75-8.815a.945.945 0 0 1-.666-.258.84.84 0 0 1-.273-.627.83.83 0 0 1 .273-.626.935.935 0 0 1 .666-.264c.259 0 .48.088.662.264a.824.824 0 0 1 .278.626c0 .242-.093.451-.278.627a.928.928 0 0 1-.662.258Zm2.736 11.679v-10.5h1.452v1.238h.124c.086-.16.21-.343.373-.552a2.11 2.11 0 0 1 .676-.547c.288-.16.67-.239 1.143-.239.617 0 1.167.156 1.651.468.484.311.863.76 1.138 1.347.279.587.418 1.292.418 2.118 0 .825-.137 1.533-.412 2.123-.276.586-.653 1.039-1.134 1.357-.48.315-1.03.472-1.646.472-.464 0-.843-.078-1.138-.233a2.155 2.155 0 0 1-.686-.547 4.123 4.123 0 0 1-.383-.557h-.09v4.052h-1.486Zm1.457-6.682c0 .537.078 1.007.233 1.412.156.404.382.72.676.95.295.225.657.337 1.084.337.444 0 .816-.117 1.114-.353a2.19 2.19 0 0 0 .676-.97c.156-.407.234-.866.234-1.376 0-.504-.076-.956-.229-1.357a2.078 2.078 0 0 0-.676-.95c-.298-.232-.671-.348-1.119-.348-.43 0-.795.111-1.093.333-.296.222-.52.532-.672.93-.152.398-.228.861-.228 1.392Zm12.906-1.954-1.347.239a1.597 1.597 0 0 0-.269-.493 1.33 1.33 0 0 0-.487-.382c-.206-.1-.462-.15-.77-.15-.422 0-.773.095-1.055.284-.281.186-.422.426-.422.72 0 .256.094.461.283.617.189.156.494.284.915.383l1.213.278c.703.163 1.226.413 1.571.751s.517.777.517 1.318c0 .457-.133.865-.398 1.223-.261.354-.628.633-1.098.835-.468.202-1.01.303-1.626.303-.855 0-1.553-.182-2.093-.547-.54-.368-.872-.89-.995-1.566l1.437-.219c.09.375.274.658.552.85.279.19.641.284 1.089.284.487 0 .877-.101 1.168-.303.292-.206.438-.456.438-.751a.78.78 0 0 0-.269-.602c-.175-.162-.446-.285-.81-.367l-1.293-.284c-.712-.162-1.24-.42-1.58-.775-.339-.355-.508-.804-.508-1.348 0-.45.126-.845.378-1.183.252-.338.6-.602 1.044-.79.444-.193.953-.289 1.526-.289.826 0 1.475.18 1.95.537.473.355.786.83.939 1.427Z" fill="#C8D0BD"/><path d="M32.955 85.398a11.733 11.733 0 0 1-3.836-.71c-1.25-.455-2.386-1.213-3.409-2.273-1.023-1.06-1.842-2.486-2.457-4.276-.606-1.79-.91-4.024-.91-6.704 0-2.538.252-4.792.754-6.762.511-1.97 1.245-3.631 2.201-4.986.957-1.363 2.112-2.4 3.466-3.11s2.874-1.066 4.56-1.066c1.733 0 3.272.341 4.616 1.023a8.676 8.676 0 0 1 3.267 2.827c.843 1.202 1.378 2.57 1.605 4.105H38.48c-.293-1.212-.876-2.202-1.747-2.969-.871-.767-2.008-1.15-3.41-1.15-2.13 0-3.792.928-4.985 2.784-1.184 1.856-1.78 4.436-1.79 7.741h.213a7.892 7.892 0 0 1 1.847-2.102 8.251 8.251 0 0 1 2.471-1.35 8.696 8.696 0 0 1 2.898-.483c1.686 0 3.21.412 4.574 1.236 1.373.815 2.467 1.942 3.281 3.381.815 1.44 1.222 3.087 1.222 4.943 0 1.856-.421 3.537-1.264 5.043a9.269 9.269 0 0 1-3.523 3.58c-1.515.87-3.286 1.297-5.313 1.278Zm-.015-3.694c1.118 0 2.117-.274 2.998-.823a5.946 5.946 0 0 0 2.088-2.216c.51-.928.767-1.965.767-3.111 0-1.117-.251-2.135-.753-3.054a5.685 5.685 0 0 0-2.046-2.188c-.861-.54-1.846-.81-2.954-.81-.843 0-1.624.162-2.344.484a5.955 5.955 0 0 0-1.875 1.335 6.495 6.495 0 0 0-1.278 1.96 5.974 5.974 0 0 0-.455 2.316 6.173 6.173 0 0 0 2.84 5.27c.891.558 1.895.837 3.012.837Zm25.416 3.779c-2.245-.01-4.162-.601-5.753-1.776-1.59-1.174-2.808-2.883-3.65-5.127-.843-2.245-1.265-4.948-1.265-8.111 0-3.154.422-5.848 1.264-8.083.853-2.235 2.074-3.939 3.665-5.113 1.6-1.175 3.513-1.762 5.739-1.762 2.225 0 4.133.592 5.724 1.776 1.591 1.174 2.808 2.879 3.65 5.114.853 2.225 1.28 4.914 1.28 8.068 0 3.172-.422 5.88-1.265 8.125-.843 2.235-2.06 3.944-3.65 5.128-1.591 1.174-3.504 1.761-5.74 1.761Zm0-3.793c1.97 0 3.508-.96 4.616-2.883 1.118-1.922 1.676-4.702 1.676-8.338 0-2.415-.255-4.456-.767-6.122-.502-1.676-1.226-2.945-2.173-3.807-.937-.871-2.055-1.307-3.352-1.307-1.96 0-3.5.966-4.617 2.898-1.117 1.931-1.68 4.71-1.69 8.338 0 2.424.251 4.474.753 6.15.511 1.667 1.236 2.931 2.173 3.793.938.852 2.064 1.278 3.38 1.278Zm42.741-9.843h-3.196V55.909h3.196v15.938Zm-5.88 0H92.02V55.909h3.196v15.938ZM84.762 85v-3.679h23.423V85H84.762Zm11.918-1.108c-2.453 0-4.574-.554-6.364-1.662-1.79-1.108-3.172-2.614-4.148-4.517-.966-1.913-1.449-4.072-1.449-6.477 0-2.49.502-4.65 1.506-6.478 1.004-1.827 2.396-3.238 4.176-4.232 1.78-1.004 3.83-1.506 6.15-1.506 2.34 0 4.4.516 6.18 1.548 1.79 1.032 3.182 2.51 4.176 4.432 1.004 1.913 1.506 4.195 1.506 6.847h-4.276c.01-2.065-.308-3.765-.952-5.1-.634-1.335-1.524-2.32-2.67-2.954-1.136-.644-2.457-.966-3.963-.966-1.449 0-2.746.317-3.892.951-1.137.635-2.036 1.61-2.7 2.926-.652 1.307-.98 2.974-.98 5 0 1.895.318 3.566.953 5.015.634 1.44 1.581 2.566 2.84 3.38 1.27.815 2.85 1.222 4.745 1.222l-.838 2.571Zm-8.012-2.571.114-.34h.753l-.085.34h-.782Z" fill="#313131"/><path d="M263.696 64h-1.398l3.141-8.727h1.521L270.101 64h-1.398l-2.467-7.142h-.068L263.696 64Zm.234-3.418h4.534v1.108h-4.534v-1.108Zm12.108-3.127L273.664 64h-1.363l-2.378-6.545h1.368l1.658 5.037h.068l1.653-5.037h1.368ZM277.235 64v-6.545h1.232v1.04h.068c.119-.353.33-.63.631-.832a1.805 1.805 0 0 1 1.031-.306 5.412 5.412 0 0 1 .541.03v1.218a2.297 2.297 0 0 0-.272-.047 2.623 2.623 0 0 0-.392-.03c-.302 0-.57.064-.806.192a1.422 1.422 0 0 0-.758 1.283V64h-1.275Zm4.695.081a.824.824 0 0 1-.6-.247.824.824 0 0 1-.252-.605c0-.233.084-.432.252-.597a.817.817 0 0 1 .6-.251.82.82 0 0 1 .601.251.805.805 0 0 1 .252.597c0 .156-.04.3-.12.43a.88.88 0 0 1-.306.307.814.814 0 0 1-.427.115Zm8.65-6.627v1.023h-3.575v-1.022h3.575Zm-2.617-1.568h1.275v6.192c0 .247.037.433.11.558a.578.578 0 0 0 .286.252c.119.042.248.064.388.064.102 0 .191-.007.268-.022l.179-.034.23 1.053a2.494 2.494 0 0 1-.826.136 2.244 2.244 0 0 1-.938-.179 1.606 1.606 0 0 1-.703-.58c-.179-.26-.269-.589-.269-.984v-6.456ZM291.989 64v-6.545h1.274V64h-1.274Zm.644-7.555a.81.81 0 0 1-.571-.222.722.722 0 0 1-.235-.537c0-.21.079-.39.235-.537a.801.801 0 0 1 .571-.226.79.79 0 0 1 .567.226.706.706 0 0 1 .238.537.714.714 0 0 1-.238.537.798.798 0 0 1-.567.222Zm2.345 10.01v-9h1.244v1.06h.106c.074-.136.181-.293.32-.472.139-.18.332-.336.58-.47.247-.136.573-.204.98-.204.528 0 1 .134 1.415.4.414.268.74.653.975 1.156.239.503.358 1.108.358 1.815 0 .707-.118 1.314-.353 1.82-.236.502-.56.89-.972 1.163-.412.27-.882.405-1.41.405-.398 0-.723-.067-.976-.2a1.847 1.847 0 0 1-.588-.47 3.598 3.598 0 0 1-.329-.477h-.076v3.473h-1.274Zm1.248-5.728c0 .46.067.864.2 1.21.134.347.327.618.58.814.253.194.563.29.929.29.381 0 .699-.1.955-.302.255-.205.448-.482.579-.831.134-.35.2-.743.2-1.18 0-.433-.065-.82-.196-1.164a1.778 1.778 0 0 0-.579-.814c-.256-.199-.575-.298-.959-.298-.369 0-.682.095-.937.285-.253.19-.445.456-.576.797a3.34 3.34 0 0 0-.196 1.193Zm11.063-1.674-1.155.204a1.364 1.364 0 0 0-.23-.422 1.147 1.147 0 0 0-.418-.328 1.51 1.51 0 0 0-.66-.128c-.361 0-.662.081-.904.243-.241.16-.362.365-.362.618 0 .219.081.395.243.529.162.133.423.242.784.328l1.04.238c.602.14 1.051.354 1.346.644.296.29.444.666.444 1.129 0 .392-.114.741-.341 1.048-.225.304-.539.543-.942.716-.401.174-.865.26-1.394.26-.733 0-1.331-.156-1.794-.469-.463-.315-.747-.762-.852-1.342l1.232-.188c.076.322.234.564.473.73.238.161.549.242.933.242.418 0 .751-.086 1.001-.26.25-.176.375-.39.375-.643a.667.667 0 0 0-.23-.516c-.15-.14-.382-.244-.694-.315l-1.108-.243c-.611-.14-1.063-.361-1.355-.665-.29-.304-.435-.689-.435-1.155 0-.386.108-.724.324-1.014a2.12 2.12 0 0 1 .895-.677 3.26 3.26 0 0 1 1.308-.248c.707 0 1.264.154 1.67.46.407.304.675.712.806 1.224ZM268.918 72.454V87h-2.202V74.656h-.085l-3.48 2.273v-2.102l3.629-2.373h2.138ZM272.852 87v-1.59l4.922-5.1c.526-.554.959-1.04 1.3-1.456.346-.422.604-.822.774-1.2.17-.38.256-.782.256-1.208 0-.483-.114-.9-.341-1.25a2.228 2.228 0 0 0-.931-.817 2.955 2.955 0 0 0-1.328-.29c-.521 0-.975.106-1.363.319a2.183 2.183 0 0 0-.895.902c-.209.388-.313.843-.313 1.363h-2.095c0-.885.204-1.66.611-2.322a4.148 4.148 0 0 1 1.676-1.541c.71-.37 1.518-.554 2.422-.554.914 0 1.719.182 2.415.547.7.36 1.247.852 1.64 1.477.393.62.59 1.32.59 2.102 0 .54-.102 1.068-.306 1.584-.198.516-.547 1.091-1.044 1.726-.497.63-1.188 1.394-2.074 2.294l-2.89 3.025v.107h6.548V87h-9.574Zm25.79-6.577h-1.598v-7.969h1.598v7.97Zm-2.94 0h-1.598v-7.969h1.598v7.97ZM290.475 87v-1.84h11.711V87h-11.711Zm5.959-.554c-1.227 0-2.287-.277-3.182-.83a5.617 5.617 0 0 1-2.074-2.26c-.483-.956-.725-2.035-.725-3.238 0-1.245.251-2.325.753-3.239a5.285 5.285 0 0 1 2.088-2.116c.891-.502 1.916-.753 3.076-.753 1.169 0 2.199.258 3.089.774.895.516 1.591 1.255 2.088 2.216.502.956.753 2.097.753 3.423h-2.138c.005-1.032-.154-1.882-.476-2.55-.317-.667-.762-1.16-1.335-1.477-.568-.322-1.228-.483-1.981-.483-.725 0-1.373.159-1.946.476-.569.317-1.018.805-1.35 1.463-.326.654-.49 1.487-.49 2.5 0 .947.159 1.783.476 2.507.317.72.791 1.284 1.42 1.69.635.408 1.426.611 2.373.611l-.419 1.286Zm-4.006-1.285.057-.17h.376l-.042.17h-.391Z" fill="#C8D0BD"/><defs><linearGradient id="a" x1="164" y1="0" x2="70.459" y2="153.06" gradientUnits="userSpaceOnUse"><stop stop-color="#FFFCF0"/><stop offset="1" stop-color="#F2FAF6"/></linearGradient><linearGradient id="c" x1="168.287" y1="9" x2="84.612" y2="153.611" gradientUnits="userSpaceOnUse"><stop stop-color="#FBF6E6"/><stop offset="1" stop-color="#EDF8F2"/></linearGradient></defs></svg>