<svg xmlns="http://www.w3.org/2000/svg" width="328" height="110" fill="none"><rect width="328" height="110" fill="url(#a)" rx="16"/><mask id="b" width="328" height="110" x="0" y="0" maskUnits="userSpaceOnUse" style="mask-type:alpha"><rect width="328" height="110" fill="#FFF3F9" rx="16"/></mask><g mask="url(#b)"><path fill="url(#c)" d="M81.25 58.884C46.793 62.734 9.243 110 9.243 110h318.09V9s-30.684 39.587-58.859 41.262c-19.221 1.143-27.71-15.154-46.962-14.78-32.55.631-36.543 42.466-68.878 46.189-29.109 3.351-42.262-26.04-71.382-22.787Z"/></g><path fill="#C8D0BD" d="M21.119 31V20.818h3.728c.723 0 1.321.12 1.795.358.474.236.829.555 1.064.96.235.4.353.853.353 1.357 0 .424-.078.782-.234 1.074-.155.288-.364.52-.626.696a2.761 2.761 0 0 1-.855.378v.1c.338.016.668.125.99.327.324.199.592.482.805.85.212.368.318.816.318 1.343a2.7 2.7 0 0 1-.368 1.402c-.242.41-.617.737-1.124.979-.507.239-1.155.358-1.944.358H21.12Zm1.536-1.317h2.217c.736 0 1.263-.143 1.581-.428.318-.285.477-.641.477-1.069 0-.321-.08-.616-.243-.885a1.74 1.74 0 0 0-.696-.641c-.299-.16-.653-.239-1.064-.239h-2.272v3.262Zm0-4.46h2.058c.345 0 .655-.066.93-.199.278-.132.499-.318.661-.557.166-.242.249-.527.249-.855 0-.42-.148-.774-.443-1.059-.295-.285-.747-.427-1.357-.427h-2.098v3.097Zm10.721 5.931c-.739 0-1.375-.167-1.909-.502a3.325 3.325 0 0 1-1.223-1.397c-.285-.593-.428-1.273-.428-2.038 0-.776.146-1.46.438-2.054a3.352 3.352 0 0 1 1.233-1.397c.53-.334 1.155-.502 1.874-.502.58 0 1.097.108 1.551.323.454.212.82.51 1.099.895.282.385.45.834.502 1.348h-1.447a1.733 1.733 0 0 0-.547-.925c-.281-.259-.659-.388-1.133-.388-.414 0-.777.11-1.089.328-.308.216-.548.524-.72.925-.173.398-.26.868-.26 1.412 0 .557.085 1.037.254 1.442.17.404.408.717.716.94.312.221.678.332 1.099.332.282 0 .537-.051.766-.154.232-.106.425-.257.581-.452.16-.196.27-.431.333-.706h1.447a2.81 2.81 0 0 1-.482 1.322 2.775 2.775 0 0 1-1.079.915c-.447.222-.973.333-1.576.333Zm8.018 0c-.752 0-1.4-.16-1.944-.482a3.271 3.271 0 0 1-1.253-1.367c-.291-.59-.437-1.281-.437-2.073 0-.783.146-1.472.437-2.069a3.397 3.397 0 0 1 1.233-1.397c.53-.334 1.15-.502 1.86-.502.43 0 .848.072 1.252.214.405.142.768.366 1.09.671.32.305.574.701.76 1.188.185.484.278 1.073.278 1.765v.527H38.6v-1.113h4.614c0-.391-.08-.738-.239-1.04a1.803 1.803 0 0 0-.671-.72 1.875 1.875 0 0 0-1.005-.264 1.94 1.94 0 0 0-1.093.308 2.068 2.068 0 0 0-.716.796 2.296 2.296 0 0 0-.249 1.059v.87c0 .51.09.945.269 1.302.182.358.436.632.76.82.325.186.705.28 1.139.28.282 0 .538-.04.77-.12a1.599 1.599 0 0 0 .99-.97l1.407.254a2.549 2.549 0 0 1-.607 1.089 2.941 2.941 0 0 1-1.089.72c-.434.17-.93.254-1.486.254Zm9.808-7.79v1.282h-3.416V31H46.32v-7.636h4.882Zm4.432 7.79c-.716 0-1.34-.164-1.874-.492a3.319 3.319 0 0 1-1.243-1.377c-.295-.59-.443-1.28-.443-2.068 0-.793.148-1.485.443-2.078a3.312 3.312 0 0 1 1.243-1.383c.533-.328 1.158-.492 1.874-.492.716 0 1.34.164 1.874.492.534.328.948.79 1.243 1.383.295.593.443 1.285.443 2.078 0 .788-.148 1.478-.443 2.068a3.319 3.319 0 0 1-1.243 1.377c-.533.328-1.158.492-1.874.492Zm.005-1.248c.464 0 .848-.122 1.153-.368.305-.245.53-.571.676-.98.15-.407.224-.856.224-1.346 0-.488-.075-.935-.224-1.343a2.187 2.187 0 0 0-.676-.989c-.305-.249-.69-.373-1.153-.373-.468 0-.855.124-1.164.373a2.221 2.221 0 0 0-.68.99 3.96 3.96 0 0 0-.22 1.342c0 .49.074.94.22 1.347.148.408.376.734.68.98.309.245.697.367 1.164.367Zm15.049-6.542V31h-1.452v-7.636h1.452Zm-.632 3.544v1.283c-.228.093-.47.176-.725.249a6.534 6.534 0 0 1-1.686.223c-.944 0-1.695-.23-2.252-.69-.557-.465-.835-1.174-.835-2.128v-2.496h1.447v2.495c0 .362.066.655.199.88.132.226.321.392.566.498.246.106.537.159.875.159.448 0 .86-.042 1.238-.125a9.708 9.708 0 0 0 1.174-.348Zm4.832 4.261a3.12 3.12 0 0 1-1.313-.268 2.211 2.211 0 0 1-.93-.79c-.225-.346-.338-.768-.338-1.269 0-.43.083-.785.249-1.064.166-.278.39-.498.671-.66.282-.163.597-.286.945-.369a9.383 9.383 0 0 1 1.064-.189l1.113-.129c.285-.036.492-.094.622-.174.129-.08.194-.209.194-.388v-.035c0-.434-.123-.77-.368-1.009-.242-.238-.603-.358-1.084-.358-.5 0-.895.111-1.183.333-.285.22-.483.463-.592.731l-1.397-.318c.166-.464.408-.838.726-1.123a2.942 2.942 0 0 1 1.109-.627 4.328 4.328 0 0 1 1.317-.199c.305 0 .628.037.97.11.344.07.666.198.964.387.302.19.549.46.74.81.193.349.29.801.29 1.358V31h-1.453v-1.044h-.06c-.095.192-.24.381-.432.567-.192.185-.439.34-.74.462-.302.123-.663.184-1.084.184Zm.323-1.193c.41 0 .762-.081 1.054-.244.295-.162.518-.374.67-.636a1.65 1.65 0 0 0 .235-.85v-.985c-.053.053-.156.103-.309.15-.149.043-.32.08-.512.114-.192.03-.38.058-.562.084l-.457.06a3.685 3.685 0 0 0-.79.184c-.236.086-.425.21-.567.373-.14.159-.209.371-.209.636 0 .368.136.647.408.835.272.186.618.279 1.039.279Zm8.716 1.178c-.752 0-1.4-.16-1.944-.482a3.271 3.271 0 0 1-1.252-1.367c-.292-.59-.438-1.281-.438-2.073 0-.783.146-1.472.438-2.069a3.397 3.397 0 0 1 1.232-1.397c.53-.334 1.15-.502 1.86-.502.43 0 .848.072 1.253.214.404.142.767.366 1.088.671.322.305.576.701.761 1.188.186.484.279 1.073.279 1.765v.527h-6.07v-1.113h4.613c0-.391-.08-.738-.239-1.04a1.803 1.803 0 0 0-.671-.72 1.875 1.875 0 0 0-1.004-.264 1.94 1.94 0 0 0-1.094.308 2.07 2.07 0 0 0-.716.796 2.296 2.296 0 0 0-.248 1.059v.87c0 .51.089.945.268 1.302.182.358.436.632.76.82.325.186.705.28 1.14.28.28 0 .538-.04.77-.12a1.599 1.599 0 0 0 .99-.97l1.406.254a2.548 2.548 0 0 1-.606 1.089 2.941 2.941 0 0 1-1.09.72c-.433.17-.929.254-1.486.254ZM88.853 31v-7.636h3.167c.862 0 1.544.184 2.048.552.504.364.756.86.756 1.486 0 .447-.143.802-.428 1.064-.285.262-.663.437-1.133.527.341.04.654.142.94.308.284.163.513.381.685.656.176.276.264.604.264.985 0 .404-.105.762-.313 1.074-.21.308-.513.55-.91.726-.395.172-.87.258-1.427.258h-3.65Zm1.397-1.243h2.252c.368 0 .656-.088.865-.263.209-.176.313-.415.313-.716 0-.355-.104-.633-.313-.835-.209-.206-.497-.309-.865-.309H90.25v2.123Zm0-3.212h1.785c.278 0 .517-.04.716-.119a1.01 1.01 0 0 0 .462-.338.867.867 0 0 0 .164-.527.792.792 0 0 0-.363-.691c-.242-.166-.573-.249-.994-.249h-1.77v1.925Zm7.651-.556h2.217c.935 0 1.654.232 2.158.696.504.464.756 1.062.756 1.794 0 .478-.113.907-.338 1.288a2.367 2.367 0 0 1-.99.905c-.434.219-.962.328-1.586.328h-3.335v-7.636h1.456v6.353h1.879c.428 0 .779-.11 1.054-.333.276-.225.413-.512.413-.86a1.12 1.12 0 0 0-.413-.9c-.275-.235-.626-.353-1.054-.353h-2.217V25.99ZM104.116 31v-7.636h1.486V31h-1.486Zm4.654-7.636 1.686 2.973 1.7-2.973h1.626l-2.382 3.818L113.801 31h-1.625l-1.72-2.854L108.74 31h-1.63l2.376-3.818-2.346-3.818h1.63Z"/><path fill="#313131" d="M32.955 84.398a11.733 11.733 0 0 1-3.836-.71c-1.25-.455-2.386-1.213-3.409-2.273-1.023-1.06-1.842-2.486-2.457-4.276-.606-1.79-.91-4.024-.91-6.704 0-2.538.252-4.792.754-6.762.511-1.97 1.245-3.631 2.201-4.986.957-1.363 2.112-2.4 3.466-3.11s2.874-1.066 4.56-1.066c1.733 0 3.272.341 4.616 1.023a8.676 8.676 0 0 1 3.267 2.827c.843 1.202 1.378 2.57 1.605 4.105H38.48c-.293-1.212-.876-2.202-1.747-2.969-.871-.767-2.008-1.15-3.41-1.15-2.13 0-3.792.928-4.985 2.784-1.184 1.856-1.78 4.436-1.79 7.741h.213a7.892 7.892 0 0 1 1.847-2.102 8.251 8.251 0 0 1 2.471-1.35 8.696 8.696 0 0 1 2.898-.483c1.686 0 3.21.412 4.574 1.236 1.373.815 2.467 1.942 3.281 3.381.815 1.44 1.222 3.087 1.222 4.943 0 1.856-.421 3.537-1.264 5.043a9.269 9.269 0 0 1-3.523 3.58c-1.515.87-3.286 1.297-5.313 1.278Zm-.015-3.694c1.118 0 2.117-.274 2.998-.823a5.946 5.946 0 0 0 2.088-2.216c.51-.928.767-1.965.767-3.111 0-1.117-.251-2.135-.753-3.054a5.685 5.685 0 0 0-2.046-2.188c-.861-.54-1.846-.81-2.954-.81-.843 0-1.624.162-2.344.484a5.955 5.955 0 0 0-1.875 1.335 6.495 6.495 0 0 0-1.278 1.96 5.974 5.974 0 0 0-.455 2.316 6.173 6.173 0 0 0 2.84 5.27c.891.558 1.895.837 3.012.837Zm25.416 3.779c-2.245-.01-4.162-.601-5.753-1.776-1.59-1.174-2.808-2.883-3.65-5.127-.843-2.245-1.265-4.948-1.265-8.111 0-3.154.422-5.848 1.264-8.083.853-2.235 2.074-3.939 3.665-5.113 1.6-1.175 3.513-1.762 5.739-1.762 2.225 0 4.133.592 5.724 1.776 1.591 1.174 2.808 2.879 3.65 5.114.853 2.225 1.28 4.914 1.28 8.068 0 3.172-.422 5.88-1.265 8.125-.843 2.235-2.06 3.944-3.65 5.128-1.591 1.174-3.504 1.761-5.74 1.761Zm0-3.793c1.97 0 3.508-.96 4.616-2.883 1.118-1.922 1.676-4.702 1.676-8.338 0-2.415-.255-4.456-.767-6.122-.502-1.677-1.226-2.946-2.173-3.807-.937-.871-2.055-1.307-3.352-1.307-1.96 0-3.5.966-4.617 2.898-1.117 1.931-1.68 4.71-1.69 8.338 0 2.424.251 4.474.753 6.15.511 1.667 1.236 2.931 2.173 3.793.938.852 2.064 1.278 3.38 1.278Zm42.741-9.843h-3.196V54.909h3.196v15.938Zm-5.88 0H92.02V54.909h3.196v15.938ZM84.762 84v-3.679h23.423V84H84.762Zm11.918-1.108c-2.453 0-4.574-.554-6.364-1.662-1.79-1.108-3.172-2.614-4.148-4.517-.966-1.913-1.449-4.072-1.449-6.477 0-2.49.502-4.65 1.506-6.478 1.004-1.827 2.396-3.238 4.176-4.232 1.78-1.004 3.83-1.506 6.15-1.506 2.34 0 4.4.516 6.18 1.548 1.79 1.032 3.182 2.51 4.176 4.432 1.004 1.913 1.506 4.195 1.506 6.847h-4.276c.01-2.065-.308-3.765-.952-5.1-.634-1.335-1.524-2.32-2.67-2.954-1.136-.644-2.457-.966-3.963-.966-1.449 0-2.746.317-3.892.951-1.137.635-2.036 1.61-2.7 2.926-.652 1.307-.98 2.974-.98 5 0 1.895.318 3.566.953 5.015.634 1.44 1.581 2.566 2.84 3.38 1.27.815 2.85 1.222 4.745 1.222l-.838 2.571Zm-8.012-2.571.114-.34h.753l-.085.34h-.782Z"/><path fill="#C8D0BD" d="M263.696 63h-1.398l3.141-8.727h1.521L270.101 63h-1.398l-2.467-7.142h-.068L263.696 63Zm.234-3.418h4.534v1.108h-4.534v-1.108Zm12.108-3.127L273.664 63h-1.363l-2.378-6.545h1.368l1.658 5.037h.068l1.653-5.037h1.368ZM277.235 63v-6.545h1.232v1.04h.068c.119-.353.33-.63.631-.832a1.805 1.805 0 0 1 1.031-.306 5.412 5.412 0 0 1 .541.03v1.218a2.297 2.297 0 0 0-.272-.047 2.623 2.623 0 0 0-.392-.03c-.302 0-.57.064-.806.192a1.422 1.422 0 0 0-.758 1.283V63h-1.275Zm4.695.081a.824.824 0 0 1-.6-.247.824.824 0 0 1-.252-.605c0-.233.084-.432.252-.597a.817.817 0 0 1 .6-.251.82.82 0 0 1 .601.251.805.805 0 0 1 .252.597c0 .156-.04.3-.12.43a.88.88 0 0 1-.306.307.814.814 0 0 1-.427.115Zm8.65-6.627v1.023h-3.575v-1.022h3.575Zm-2.617-1.568h1.275v6.192c0 .247.037.433.11.558a.578.578 0 0 0 .286.252c.119.042.248.064.388.064.102 0 .191-.007.268-.022l.179-.034.23 1.053a2.494 2.494 0 0 1-.826.136 2.244 2.244 0 0 1-.938-.179 1.606 1.606 0 0 1-.703-.58c-.179-.26-.269-.589-.269-.984v-6.456ZM291.989 63v-6.545h1.274V63h-1.274Zm.644-7.555a.81.81 0 0 1-.571-.222.722.722 0 0 1-.235-.537c0-.21.079-.39.235-.537a.801.801 0 0 1 .571-.226.79.79 0 0 1 .567.226.706.706 0 0 1 .238.537.714.714 0 0 1-.238.537.798.798 0 0 1-.567.222Zm2.345 10.01v-9h1.244v1.06h.106c.074-.136.181-.293.32-.472.139-.18.332-.336.58-.47.247-.136.573-.204.98-.204.528 0 1 .134 1.415.4.414.268.74.653.975 1.156.239.503.358 1.108.358 1.815 0 .707-.118 1.314-.353 1.82-.236.502-.56.89-.972 1.163-.412.27-.882.405-1.41.405-.398 0-.723-.067-.976-.2a1.847 1.847 0 0 1-.588-.47 3.598 3.598 0 0 1-.329-.477h-.076v3.473h-1.274Zm1.248-5.728c0 .46.067.864.2 1.21.134.347.327.618.58.814.253.194.563.29.929.29.381 0 .699-.1.955-.302.255-.205.448-.482.579-.831.134-.35.2-.743.2-1.18 0-.433-.065-.82-.196-1.164a1.778 1.778 0 0 0-.579-.814c-.256-.199-.575-.298-.959-.298-.369 0-.682.095-.937.285-.253.19-.445.456-.576.797a3.34 3.34 0 0 0-.196 1.193Zm11.063-1.674-1.155.204a1.364 1.364 0 0 0-.23-.422 1.147 1.147 0 0 0-.418-.328 1.51 1.51 0 0 0-.66-.128c-.361 0-.662.081-.904.243-.241.16-.362.365-.362.618 0 .219.081.395.243.529.162.133.423.242.784.328l1.04.238c.602.14 1.051.354 1.346.644.296.29.444.666.444 1.129 0 .392-.114.741-.341 1.048-.225.304-.539.543-.942.716-.401.173-.865.26-1.394.26-.733 0-1.331-.156-1.794-.469-.463-.315-.747-.762-.852-1.342l1.232-.188c.076.322.234.564.473.73.238.161.549.242.933.242.418 0 .751-.086 1.001-.26.25-.176.375-.39.375-.643a.667.667 0 0 0-.23-.516c-.15-.14-.382-.244-.694-.315l-1.108-.243c-.611-.14-1.063-.361-1.355-.665-.29-.304-.435-.689-.435-1.155 0-.386.108-.724.324-1.014a2.12 2.12 0 0 1 .895-.677 3.26 3.26 0 0 1 1.308-.248c.707 0 1.264.154 1.67.46.407.304.675.712.806 1.224ZM268.918 71.454V86h-2.202V73.656h-.085l-3.48 2.273v-2.102l3.629-2.373h2.138ZM272.852 86v-1.59l4.922-5.1c.526-.554.959-1.04 1.3-1.456.346-.422.604-.822.774-1.2.17-.38.256-.782.256-1.208 0-.483-.114-.9-.341-1.25a2.228 2.228 0 0 0-.931-.817 2.955 2.955 0 0 0-1.328-.29c-.521 0-.975.106-1.363.319a2.183 2.183 0 0 0-.895.902c-.209.388-.313.843-.313 1.363h-2.095c0-.885.204-1.66.611-2.322a4.148 4.148 0 0 1 1.676-1.541c.71-.37 1.518-.554 2.422-.554.914 0 1.719.182 2.415.547.7.36 1.247.852 1.64 1.477.393.62.59 1.32.59 2.102 0 .54-.102 1.068-.306 1.584-.198.516-.547 1.091-1.044 1.726-.497.63-1.188 1.394-2.074 2.294l-2.89 3.025v.107h6.548V86h-9.574Zm25.79-6.577h-1.598v-7.969h1.598v7.97Zm-2.94 0h-1.598v-7.969h1.598v7.97ZM290.475 86v-1.84h11.711V86h-11.711Zm5.959-.554c-1.227 0-2.287-.277-3.182-.83a5.617 5.617 0 0 1-2.074-2.26c-.483-.956-.725-2.035-.725-3.238 0-1.245.251-2.325.753-3.239a5.285 5.285 0 0 1 2.088-2.116c.891-.502 1.916-.753 3.076-.753 1.169 0 2.199.258 3.089.774.895.516 1.591 1.255 2.088 2.216.502.956.753 2.097.753 3.423h-2.138c.005-1.032-.154-1.882-.476-2.55-.317-.667-.762-1.16-1.335-1.477-.568-.322-1.228-.483-1.981-.483-.725 0-1.373.159-1.946.476-.569.317-1.018.805-1.35 1.463-.326.654-.49 1.487-.49 2.5 0 .947.159 1.783.476 2.507.317.72.791 1.284 1.42 1.69.635.408 1.426.611 2.373.611l-.419 1.286Zm-4.006-1.285.057-.17h.376l-.042.17h-.391Z"/><defs><linearGradient id="a" x1="164" x2="70.459" y1="0" y2="153.06" gradientUnits="userSpaceOnUse"><stop stop-color="#FFFCF0"/><stop offset="1" stop-color="#F2FAF6"/></linearGradient><linearGradient id="c" x1="168.287" x2="84.612" y1="9" y2="153.611" gradientUnits="userSpaceOnUse"><stop stop-color="#FBF6E6"/><stop offset="1" stop-color="#EDF8F2"/></linearGradient></defs></svg>