<svg width="264" height="89" fill="none" xmlns="http://www.w3.org/2000/svg"><rect width="264" height="88.537" rx="12.878" fill="url(#a)"/><mask id="b" style="mask-type:alpha" maskUnits="userSpaceOnUse" x="0" y="0" width="264" height="89"><rect width="264" height="88.537" rx="12.878" fill="#FFF3F9"/></mask><g mask="url(#b)"><path d="M65.4 47.395C37.663 50.493 7.44 88.537 7.44 88.537h256.024V7.244s-24.697 31.863-47.375 33.211c-15.47.92-22.303-12.197-37.798-11.896-26.199.508-29.413 34.18-55.439 37.176-23.429 2.698-34.015-20.959-57.454-18.34Z" fill="url(#c)"/></g><path d="M16.594 18.967v-1.064h6.342v1.064H20.38v7.13h-1.232v-7.13h-2.553Zm7.01 7.13v-6.146h1.156v.977h.064c.112-.331.31-.591.592-.78.286-.193.608-.289.969-.289a5.042 5.042 0 0 1 .508.028v1.145a2.153 2.153 0 0 0-.256-.044 2.441 2.441 0 0 0-.369-.028c-.282 0-.534.06-.756.18a1.338 1.338 0 0 0-.712 1.204v3.754h-1.197Zm6.058.137c-.39 0-.742-.072-1.057-.216a1.78 1.78 0 0 1-.748-.637c-.181-.277-.272-.617-.272-1.02 0-.347.067-.632.2-.856.134-.224.314-.402.54-.532.227-.131.48-.23.76-.297.28-.066.566-.117.857-.152l.896-.104c.23-.03.396-.076.5-.14.104-.064.156-.168.156-.312v-.028c0-.35-.098-.62-.296-.812-.194-.192-.485-.288-.872-.288-.403 0-.72.089-.952.268-.23.176-.388.372-.476.588l-1.125-.256c.134-.374.328-.675.584-.905.26-.232.556-.4.893-.504.336-.106.69-.16 1.06-.16.245 0 .506.03.78.088.278.056.537.16.777.312.242.152.441.37.596.653.155.28.232.644.232 1.092v4.082h-1.169v-.84h-.047a1.7 1.7 0 0 1-.349.456c-.154.149-.353.273-.596.372a2.314 2.314 0 0 1-.872.148Zm.26-.96c.33 0 .613-.066.848-.197.238-.13.418-.301.54-.512a1.33 1.33 0 0 0 .189-.684v-.793a.624.624 0 0 1-.249.12c-.12.035-.257.066-.412.093l-.452.068c-.147.018-.27.034-.368.048-.232.029-.444.078-.636.148-.19.07-.342.17-.457.3-.111.128-.168.299-.168.512 0 .296.11.52.329.672.218.15.497.224.836.224Zm5.563-2.826v3.65h-1.196V19.95h1.148v1h.076c.141-.325.363-.586.664-.784.304-.197.687-.296 1.149-.296.419 0 .785.088 1.1.264.315.174.559.432.732.777.174.344.26.77.26 1.276v3.91h-1.196v-3.766c0-.445-.116-.793-.348-1.044-.232-.254-.55-.38-.956-.38-.278 0-.525.06-.74.18-.214.12-.383.296-.509.528-.123.23-.184.507-.184.832Zm10.144-.996-1.084.192a1.285 1.285 0 0 0-.217-.396 1.068 1.068 0 0 0-.392-.308 1.42 1.42 0 0 0-.62-.12c-.339 0-.622.076-.848.228-.227.15-.34.343-.34.58 0 .205.076.37.228.496.152.126.397.228.736.308l.976.224c.566.131.987.332 1.265.605.277.272.416.625.416 1.06 0 .368-.107.696-.32.984-.21.286-.506.51-.885.673-.376.162-.812.244-1.308.244-.688 0-1.25-.147-1.685-.44-.434-.297-.701-.717-.8-1.26l1.157-.177c.072.301.22.53.444.684.224.152.516.228.876.228.392 0 .706-.081.94-.244.235-.165.352-.367.352-.604a.628.628 0 0 0-.216-.484c-.141-.13-.358-.23-.652-.296l-1.04-.228c-.574-.131-.998-.34-1.273-.625-.272-.285-.408-.646-.408-1.084 0-.363.102-.68.304-.952.203-.272.483-.485.84-.637a3.065 3.065 0 0 1 1.229-.232c.664 0 1.187.144 1.569.432.381.286.633.669.756 1.149Zm3.224 4.782a2.51 2.51 0 0 1-1.056-.216 1.78 1.78 0 0 1-.749-.637c-.181-.277-.272-.617-.272-1.02 0-.347.067-.632.2-.856.134-.224.314-.402.54-.532.227-.131.48-.23.76-.297.281-.066.566-.117.857-.152l.897-.104c.229-.03.396-.076.5-.14.104-.064.156-.168.156-.312v-.028c0-.35-.099-.62-.296-.812-.195-.192-.486-.288-.873-.288-.402 0-.72.089-.952.268-.23.176-.388.372-.476.588l-1.125-.256c.134-.374.328-.675.585-.905.258-.232.556-.4.892-.504.336-.106.69-.16 1.06-.16.246 0 .506.03.78.088.278.056.537.16.777.312.243.152.441.37.596.653.155.28.232.644.232 1.092v4.082h-1.168v-.84h-.048a1.7 1.7 0 0 1-.348.456c-.155.149-.354.273-.597.372a2.314 2.314 0 0 1-.872.148Zm.26-.96c.331 0 .614-.066.849-.197.237-.13.417-.301.54-.512a1.33 1.33 0 0 0 .188-.684v-.793a.623.623 0 0 1-.248.12c-.12.035-.258.066-.412.093l-.453.068c-.146.018-.269.034-.368.048-.232.029-.444.078-.636.148-.19.07-.341.17-.456.3-.112.128-.168.299-.168.512 0 .296.11.52.328.672.219.15.497.224.836.224Zm6.956.948c-.595 0-1.107-.135-1.537-.405a2.676 2.676 0 0 1-.984-1.124c-.23-.477-.344-1.024-.344-1.64 0-.625.117-1.176.352-1.653.235-.48.566-.855.992-1.125.427-.269.93-.404 1.509-.404.467 0 .883.087 1.248.26.366.171.66.411.885.72.226.31.361.672.404 1.085h-1.165a1.395 1.395 0 0 0-.44-.744c-.226-.208-.53-.312-.912-.312-.334 0-.626.088-.876.264a1.698 1.698 0 0 0-.58.744c-.14.32-.209.699-.209 1.136 0 .449.068.835.204 1.16.136.326.328.578.577.757.25.179.545.268.884.268.227 0 .432-.041.616-.124.187-.085.343-.207.468-.364a1.37 1.37 0 0 0 .268-.568h1.165a2.261 2.261 0 0 1-.388 1.064 2.234 2.234 0 0 1-.869.737c-.36.178-.783.268-1.268.268Zm6.673-6.27v.96h-3.357v-.96h3.357Zm-2.456-1.473h1.196v5.814c0 .232.035.407.104.524.07.115.159.194.268.236.112.04.233.06.364.06.096 0 .18-.006.252-.02l.168-.032.217.989a2.35 2.35 0 0 1-.776.128 2.107 2.107 0 0 1-.881-.168 1.51 1.51 0 0 1-.66-.545c-.168-.245-.252-.553-.252-.924V18.48Zm3.78 7.619V19.95h1.196v6.147h-1.196Zm.604-7.095a.76.76 0 0 1-.536-.208.676.676 0 0 1-.22-.504c0-.198.073-.366.22-.505a.753.753 0 0 1 .536-.212.74.74 0 0 1 .532.212c.15.14.224.307.224.505a.671.671 0 0 1-.224.504.747.747 0 0 1-.532.208Zm4.791 7.219c-.576 0-1.08-.132-1.509-.396a2.672 2.672 0 0 1-1-1.109c-.237-.475-.356-1.03-.356-1.665 0-.637.119-1.195.356-1.672.237-.478.57-.848 1-1.113.43-.264.933-.396 1.509-.396.576 0 1.08.132 1.509.396.43.265.763.635 1 1.113.237.477.356 1.035.356 1.672 0 .635-.119 1.19-.356 1.665a2.67 2.67 0 0 1-1 1.109c-.43.264-.933.396-1.509.396Zm.004-1.005c.373 0 .683-.098.928-.296.246-.197.427-.46.544-.788.12-.328.18-.69.18-1.084 0-.393-.06-.753-.18-1.08a1.759 1.759 0 0 0-.544-.797c-.245-.2-.555-.3-.928-.3-.376 0-.688.1-.936.3-.246.2-.428.465-.549.796a3.186 3.186 0 0 0-.176 1.08c0 .395.059.757.176 1.085.12.328.303.59.549.788.248.198.56.296.936.296Zm5.393-2.769v3.65h-1.196V19.95h1.148v1h.076c.141-.325.363-.586.664-.784.304-.197.687-.296 1.149-.296.419 0 .785.088 1.1.264.315.174.559.432.732.777.174.344.26.77.26 1.276v3.91h-1.196v-3.766c0-.445-.116-.793-.348-1.044-.232-.254-.55-.38-.956-.38-.278 0-.525.06-.74.18-.214.12-.383.296-.509.528-.123.23-.184.507-.184.832Zm10.144-.996-1.084.192a1.285 1.285 0 0 0-.217-.396 1.068 1.068 0 0 0-.392-.308 1.42 1.42 0 0 0-.62-.12c-.339 0-.621.076-.848.228-.227.15-.34.343-.34.58 0 .205.076.37.228.496.152.126.397.228.736.308l.976.224c.566.131.987.332 1.265.605.277.272.416.625.416 1.06 0 .368-.107.696-.32.984-.21.286-.506.51-.885.673-.376.162-.812.244-1.308.244-.688 0-1.25-.147-1.685-.44-.434-.297-.701-.717-.8-1.26l1.157-.177c.072.301.22.53.444.684.224.152.516.228.876.228.392 0 .706-.081.94-.244.235-.165.353-.367.353-.604a.628.628 0 0 0-.217-.484c-.141-.13-.358-.23-.652-.296l-1.04-.228c-.574-.131-.998-.34-1.273-.625-.272-.285-.408-.646-.408-1.084 0-.363.102-.68.304-.952.203-.272.483-.485.84-.637a3.065 3.065 0 0 1 1.229-.232c.664 0 1.187.144 1.569.432.381.286.633.669.756 1.149Z" fill="#BED6CA"/><path d="M27.233 44.562v23.415H23.69v-19.87h-.137l-5.602 3.658V48.38l5.842-3.818h3.441Zm5.843 18.841v-2.858l10.118-15.983h2.252v4.207h-1.43L36.78 60.225v.183h13.868v2.995H33.076Zm11.1 4.574v-5.443l.024-1.303v-16.67h3.35v23.416h-3.373Zm26.705.32c-1.433 0-2.72-.275-3.864-.823-1.136-.557-2.043-1.32-2.721-2.287-.678-.968-1.04-2.073-1.086-3.316h3.43c.084 1.006.53 1.834 1.337 2.481.808.648 1.776.972 2.904.972.9 0 1.696-.206 2.39-.617a4.429 4.429 0 0 0 1.646-1.727c.404-.731.606-1.566.606-2.503 0-.953-.206-1.803-.617-2.55a4.559 4.559 0 0 0-1.704-1.76c-.716-.428-1.54-.645-2.47-.652-.708 0-1.42.122-2.137.365-.717.244-1.296.565-1.738.96l-3.236-.48 1.315-11.798H77.81v3.03h-9.936l-.743 6.55h.138c.457-.441 1.063-.811 1.817-1.108a6.675 6.675 0 0 1 2.447-.446c1.425 0 2.694.339 3.807 1.017 1.12.679 2.001 1.605 2.641 2.779.648 1.166.968 2.507.96 4.024.008 1.517-.335 2.87-1.028 4.059a7.451 7.451 0 0 1-2.859 2.812c-1.212.678-2.603 1.018-4.173 1.018Zm20.411 0a9.444 9.444 0 0 1-3.087-.572c-1.006-.366-1.92-.976-2.744-1.83-.823-.853-1.482-2-1.978-3.44-.487-1.441-.731-3.24-.731-5.397 0-2.043.202-3.857.606-5.442.411-1.585 1.002-2.923 1.772-4.013.77-1.098 1.7-1.932 2.79-2.504 1.09-.571 2.313-.857 3.67-.857 1.394 0 2.633.274 3.715.823a6.983 6.983 0 0 1 2.63 2.275c.678.968 1.108 2.07 1.291 3.304H95.74c-.236-.975-.705-1.772-1.406-2.39-.701-.617-1.616-.925-2.744-.925-1.715 0-3.052.747-4.013 2.24-.952 1.494-1.433 3.571-1.44 6.231h.171c.404-.663.9-1.227 1.486-1.692a6.643 6.643 0 0 1 1.99-1.086 6.998 6.998 0 0 1 2.332-.388c1.357 0 2.584.331 3.682.994 1.105.656 1.985 1.563 2.64 2.721.656 1.159.984 2.485.984 3.979 0 1.494-.34 2.847-1.018 4.059a7.46 7.46 0 0 1-2.835 2.88c-1.22.702-2.645 1.045-4.276 1.03Zm-.011-2.973c.899 0 1.703-.22 2.412-.663a4.785 4.785 0 0 0 1.68-1.784c.412-.747.618-1.581.618-2.503 0-.9-.202-1.72-.606-2.458a4.576 4.576 0 0 0-1.646-1.761c-.694-.434-1.487-.652-2.378-.652-.679 0-1.308.13-1.887.389a4.79 4.79 0 0 0-1.509 1.075 5.226 5.226 0 0 0-1.029 1.577 4.808 4.808 0 0 0-.366 1.864 4.968 4.968 0 0 0 2.287 4.242c.716.45 1.524.674 2.424.674Zm13.093 2.653 10.221-20.214v-.171h-11.821v-3.03h15.48v3.133l-10.187 20.282h-3.693Z" fill="#313131"/><defs><linearGradient id="a" x1="132" y1="0" x2="56.711" y2="123.195" gradientUnits="userSpaceOnUse"><stop stop-color="#F2FAF6"/><stop offset="1" stop-color="#FFFCF0"/></linearGradient><linearGradient id="c" x1="135.453" y1="7.244" x2="68.105" y2="123.638" gradientUnits="userSpaceOnUse"><stop stop-color="#E6F7EE"/><stop offset="1" stop-color="#FDFAEF"/></linearGradient></defs></svg>