<svg xmlns="http://www.w3.org/2000/svg" width="264" height="89" fill="none"><rect width="264" height="88.537" fill="url(#a)" rx="12.878"/><mask id="b" width="264" height="89" x="0" y="-1" maskUnits="userSpaceOnUse" style="mask-type:alpha"><rect width="264" height="88.537" y="-1" fill="#FFF3F9" rx="12.878"/></mask><g mask="url(#b)"><path fill="url(#c)" d="M65.4 46.395C37.663 49.493 7.44 87.537 7.44 87.537h256.024V6.244s-24.697 31.863-47.375 33.211c-15.47.92-22.303-12.197-37.798-11.896-26.199.508-29.413 34.18-55.439 37.176-23.429 2.698-34.015-20.959-57.454-18.34Z"/></g><path fill="#BED6CA" d="M16.594 18.967v-1.064h6.342v1.064H20.38v7.13h-1.232v-7.13h-2.553Zm7.01 9.436V19.95h1.168v.997h.1c.07-.128.17-.276.3-.445.13-.168.312-.314.544-.44.232-.128.54-.192.92-.192.497 0 .94.126 1.33.376.389.251.694.613.915 1.085.225.472.337 1.04.337 1.704 0 .665-.111 1.234-.332 1.71-.222.471-.526.835-.913 1.092-.387.253-.828.38-1.324.38-.374 0-.68-.063-.917-.188a1.736 1.736 0 0 1-.552-.44 3.33 3.33 0 0 1-.308-.449H24.8v3.262h-1.197Zm1.172-5.378c0 .432.063.81.188 1.136.125.325.307.58.544.764.238.182.528.272.873.272.357 0 .656-.094.896-.284.24-.192.421-.452.544-.78.125-.328.188-.698.188-1.108 0-.406-.061-.77-.184-1.093a1.672 1.672 0 0 0-.544-.764c-.24-.187-.54-.28-.9-.28-.347 0-.64.089-.88.268a1.645 1.645 0 0 0-.541.748c-.123.32-.184.694-.184 1.12Zm7.57 3.209a2.51 2.51 0 0 1-1.056-.216 1.78 1.78 0 0 1-.748-.637c-.181-.277-.272-.617-.272-1.02 0-.347.067-.632.2-.856.134-.224.314-.402.54-.532.227-.131.48-.23.76-.297.28-.066.566-.117.857-.152l.896-.104c.23-.03.396-.076.5-.14.104-.064.156-.168.156-.312v-.028c0-.35-.098-.62-.296-.812-.194-.192-.485-.288-.872-.288-.403 0-.72.089-.952.268-.23.176-.388.372-.476.588l-1.125-.256c.134-.374.328-.675.584-.905.26-.232.557-.4.893-.504.336-.106.69-.16 1.06-.16.245 0 .506.03.78.088.278.056.537.16.777.312.242.152.441.37.596.653.155.28.232.644.232 1.092v4.082h-1.168v-.84h-.049a1.7 1.7 0 0 1-.348.456c-.154.149-.353.273-.596.372a2.314 2.314 0 0 1-.872.148Zm.26-.96c.332 0 .614-.066.85-.197.237-.13.417-.301.54-.512.125-.213.188-.441.188-.684v-.793a.623.623 0 0 1-.248.12 3.89 3.89 0 0 1-.413.093l-.452.068c-.147.018-.27.034-.368.048-.232.029-.444.078-.636.148-.19.07-.342.17-.456.3-.113.128-.169.299-.169.512 0 .296.11.52.329.672.218.15.497.224.836.224Zm8.533-2.766v1.037h-3.33v-1.037h3.33Zm-2.993-2.557v6.147h-1.172V19.95h1.172Zm3.83 0v6.147h-1.169V19.95h1.168Zm1.236 4.522h1.224a.71.71 0 0 0 .34.58c.214.136.49.204.829.204.344 0 .638-.073.88-.22.243-.15.364-.38.364-.692a.853.853 0 0 0-.14-.488.889.889 0 0 0-.388-.328 1.377 1.377 0 0 0-.588-.116h-1v-.94h1c.339 0 .592-.078.76-.233a.756.756 0 0 0 .252-.58.75.75 0 0 0-.272-.604c-.178-.155-.428-.232-.748-.232-.325 0-.596.073-.812.22-.216.144-.33.33-.34.56h-1.209c.008-.344.112-.646.312-.904.203-.262.475-.465.816-.609.345-.146.735-.22 1.173-.22.456 0 .85.074 1.184.22.334.147.591.35.773.609.184.258.276.556.276.892 0 .339-.102.616-.304.832-.2.214-.462.367-.785.46v.064c.238.017.449.088.633.216.184.129.328.298.432.509.104.21.156.45.156.716 0 .376-.104.702-.312.976a1.97 1.97 0 0 1-.857.637c-.362.146-.777.22-1.244.22-.454 0-.86-.071-1.22-.212a2.053 2.053 0 0 1-.853-.609 1.542 1.542 0 0 1-.332-.928Zm7.842 1.76c-.39 0-.742-.071-1.056-.215a1.78 1.78 0 0 1-.749-.637c-.181-.277-.272-.617-.272-1.02 0-.347.067-.632.2-.856.134-.224.314-.402.54-.532.227-.131.48-.23.76-.297a7.56 7.56 0 0 1 .857-.152l.896-.104c.23-.03.397-.076.5-.14.105-.064.157-.168.157-.312v-.028c0-.35-.099-.62-.296-.812-.195-.192-.486-.288-.873-.288-.403 0-.72.089-.952.268-.23.176-.388.372-.476.588l-1.125-.256c.134-.374.328-.675.584-.905.26-.232.557-.4.893-.504.336-.106.69-.16 1.06-.16.246 0 .506.03.78.088.278.056.537.16.777.312.243.152.441.37.596.653.155.28.232.644.232 1.092v4.082H52.92v-.84h-.048a1.701 1.701 0 0 1-.349.456 1.85 1.85 0 0 1-.596.372 2.313 2.313 0 0 1-.872.148Zm.26-.96c.33 0 .614-.065.848-.196.238-.13.418-.301.54-.512.126-.213.189-.441.189-.684v-.793a.624.624 0 0 1-.248.12 3.89 3.89 0 0 1-.413.093l-.452.068c-.146.018-.27.034-.368.048-.232.029-.444.078-.636.148-.19.07-.342.17-.456.3-.112.128-.168.299-.168.512 0 .296.109.52.328.672.218.15.497.224.836.224Zm4.367.825V19.95h1.196v2.577h.576l2.03-2.577h1.48l-2.381 2.99 2.409 3.157h-1.485l-1.852-2.457h-.777v2.457h-1.196Zm11.253-6.147v5.166h.9v2.961h-1.18v-1.98H61.92V19.95h1.173v5.114h2.673v-5.114h1.168Zm3.4 4.47 2.708-4.47h1.289v6.147h-1.173v-4.474l-2.697 4.474h-1.3V19.95h1.172v4.47Zm6.778 0 2.709-4.47h1.288v6.147h-1.172v-4.474l-2.697 4.474h-1.3V19.95h1.172v4.47Z"/><path fill="#313131" d="M27.233 44.562v23.415H23.69v-19.87h-.137l-5.602 3.658V48.38l5.842-3.818h3.441Zm5.843 18.841v-2.858l10.118-15.983h2.252v4.207h-1.43L36.78 60.225v.183h13.868v2.995H33.076Zm11.1 4.574v-5.443l.024-1.303v-16.67h3.35v23.416h-3.373Zm26.705.32c-1.433 0-2.72-.275-3.864-.823-1.136-.557-2.043-1.32-2.721-2.287-.678-.968-1.04-2.073-1.086-3.316h3.43c.084 1.006.53 1.834 1.337 2.481.808.648 1.776.972 2.904.972.9 0 1.696-.206 2.39-.617a4.429 4.429 0 0 0 1.646-1.727c.404-.731.606-1.566.606-2.503 0-.953-.206-1.803-.617-2.55a4.559 4.559 0 0 0-1.704-1.76c-.716-.428-1.54-.645-2.47-.652-.708 0-1.42.122-2.137.365-.717.244-1.296.565-1.738.96l-3.236-.48 1.315-11.798H77.81v3.03h-9.936l-.743 6.55h.138c.457-.441 1.063-.811 1.817-1.108a6.675 6.675 0 0 1 2.447-.446c1.425 0 2.694.339 3.807 1.017 1.12.679 2.001 1.605 2.641 2.779.648 1.166.968 2.507.96 4.024.008 1.517-.335 2.87-1.028 4.059a7.451 7.451 0 0 1-2.859 2.812c-1.212.678-2.603 1.018-4.173 1.018Zm20.411 0a9.444 9.444 0 0 1-3.087-.572c-1.006-.366-1.92-.976-2.744-1.83-.823-.853-1.482-2-1.978-3.44-.487-1.441-.731-3.24-.731-5.397 0-2.043.202-3.857.606-5.442.411-1.585 1.002-2.923 1.772-4.013.77-1.098 1.7-1.932 2.79-2.504 1.09-.571 2.313-.857 3.67-.857 1.394 0 2.633.274 3.715.823a6.983 6.983 0 0 1 2.63 2.275c.678.968 1.108 2.07 1.291 3.304H95.74c-.236-.975-.705-1.772-1.406-2.39-.701-.617-1.616-.925-2.744-.925-1.715 0-3.052.747-4.013 2.24-.952 1.494-1.433 3.571-1.44 6.231h.171c.404-.663.9-1.227 1.486-1.692a6.643 6.643 0 0 1 1.99-1.086 6.998 6.998 0 0 1 2.332-.388c1.357 0 2.584.331 3.682.994 1.105.656 1.985 1.563 2.64 2.721.656 1.159.984 2.485.984 3.979 0 1.494-.34 2.847-1.018 4.059a7.46 7.46 0 0 1-2.835 2.88c-1.22.702-2.645 1.045-4.276 1.03Zm-.011-2.973c.899 0 1.703-.22 2.412-.663a4.785 4.785 0 0 0 1.68-1.784c.412-.747.618-1.581.618-2.503 0-.9-.202-1.72-.606-2.458a4.576 4.576 0 0 0-1.646-1.761c-.694-.434-1.487-.652-2.378-.652-.679 0-1.308.13-1.887.389a4.79 4.79 0 0 0-1.509 1.075 5.226 5.226 0 0 0-1.029 1.577 4.808 4.808 0 0 0-.366 1.864 4.968 4.968 0 0 0 2.287 4.242c.716.45 1.524.674 2.424.674Zm13.093 2.653 10.221-20.214v-.171h-11.821v-3.03h15.48v3.133l-10.187 20.282h-3.693Z"/><defs><linearGradient id="a" x1="132" x2="56.711" y1="0" y2="123.195" gradientUnits="userSpaceOnUse"><stop stop-color="#F2FAF6"/><stop offset="1" stop-color="#FFFCF0"/></linearGradient><linearGradient id="c" x1="135.453" x2="68.105" y1="6.244" y2="122.638" gradientUnits="userSpaceOnUse"><stop stop-color="#E6F7EE"/><stop offset="1" stop-color="#FDFAEF"/></linearGradient></defs></svg>